<?xml version="1.0" encoding="UTF-8" standalone="no"?>
<!-- Created with Inkscape (http://www.inkscape.org/) -->

<svg
   xmlns:dc="http://purl.org/dc/elements/1.1/"
   xmlns:cc="http://creativecommons.org/ns#"
   xmlns:rdf="http://www.w3.org/1999/02/22-rdf-syntax-ns#"
   xmlns:svg="http://www.w3.org/2000/svg"
   xmlns="http://www.w3.org/2000/svg"
   xmlns:sodipodi="http://sodipodi.sourceforge.net/DTD/sodipodi-0.dtd"
   xmlns:inkscape="http://www.inkscape.org/namespaces/inkscape"
   id="svg2"
   version="1.1"
   inkscape:version="0.47 r22583"
   width="547.17444"
   height="334.1507"
   xml:space="preserve"
   sodipodi:docname="dtm_3.svg"><metadata
     id="metadata8"><rdf:RDF><cc:Work
         rdf:about=""><dc:format>image/svg+xml</dc:format><dc:type
           rdf:resource="http://purl.org/dc/dcmitype/StillImage" /><dc:title></dc:title></cc:Work></rdf:RDF></metadata><defs
     id="defs6"><marker
       inkscape:stockid="Arrow1Mend"
       orient="auto"
       refY="0"
       refX="0"
       id="Arrow1Mend"
       style="overflow:visible"><path
         id="path3896"
         d="M 0,0 5,-5 -12.5,0 5,5 0,0 z"
         style="fill-rule:evenodd;stroke:#000000;stroke-width:1pt;marker-start:none"
         transform="matrix(-0.4,0,0,-0.4,-4,0)" /></marker><inkscape:path-effect
       effect="spiro"
       id="path-effect3882"
       is_visible="true" /><inkscape:perspective
       sodipodi:type="inkscape:persp3d"
       inkscape:vp_x="0 : 0.5 : 1"
       inkscape:vp_y="0 : 1000 : 0"
       inkscape:vp_z="1 : 0.5 : 1"
       inkscape:persp3d-origin="0.5 : 0.33333333 : 1"
       id="perspective10" /><inkscape:perspective
       id="perspective3032"
       inkscape:persp3d-origin="0.5 : 0.33333333 : 1"
       inkscape:vp_z="1 : 0.5 : 1"
       inkscape:vp_y="0 : 1000 : 0"
       inkscape:vp_x="0 : 0.5 : 1"
       sodipodi:type="inkscape:persp3d" /><inkscape:perspective
       id="perspective3856"
       inkscape:persp3d-origin="0.5 : 0.33333333 : 1"
       inkscape:vp_z="1 : 0.5 : 1"
       inkscape:vp_y="0 : 1000 : 0"
       inkscape:vp_x="0 : 0.5 : 1"
       sodipodi:type="inkscape:persp3d" /><inkscape:perspective
       id="perspective4340"
       inkscape:persp3d-origin="0.5 : 0.33333333 : 1"
       inkscape:vp_z="1 : 0.5 : 1"
       inkscape:vp_y="0 : 1000 : 0"
       inkscape:vp_x="0 : 0.5 : 1"
       sodipodi:type="inkscape:persp3d" /><marker
       inkscape:stockid="Arrow1Mend"
       orient="auto"
       refY="0"
       refX="0"
       id="Arrow1Mend-7"
       style="overflow:visible"><path
         id="path3896-9"
         d="M 0,0 5,-5 -12.5,0 5,5 0,0 z"
         style="fill-rule:evenodd;stroke:#000000;stroke-width:1pt;marker-start:none"
         transform="matrix(-0.4,0,0,-0.4,-4,0)" /></marker><inkscape:path-effect
       effect="spiro"
       id="path-effect3882-0"
       is_visible="true" /><inkscape:perspective
       id="perspective4340-5"
       inkscape:persp3d-origin="0.5 : 0.33333333 : 1"
       inkscape:vp_z="1 : 0.5 : 1"
       inkscape:vp_y="0 : 1000 : 0"
       inkscape:vp_x="0 : 0.5 : 1"
       sodipodi:type="inkscape:persp3d" /><marker
       inkscape:stockid="Arrow1Mend"
       orient="auto"
       refY="0"
       refX="0"
       id="Arrow1Mend-6"
       style="overflow:visible"><path
         id="path3896-6"
         d="M 0,0 5,-5 -12.5,0 5,5 0,0 z"
         style="fill-rule:evenodd;stroke:#000000;stroke-width:1pt;marker-start:none"
         transform="matrix(-0.4,0,0,-0.4,-4,0)" /></marker><inkscape:path-effect
       effect="spiro"
       id="path-effect3882-1"
       is_visible="true" /><inkscape:perspective
       id="perspective4340-4"
       inkscape:persp3d-origin="0.5 : 0.33333333 : 1"
       inkscape:vp_z="1 : 0.5 : 1"
       inkscape:vp_y="0 : 1000 : 0"
       inkscape:vp_x="0 : 0.5 : 1"
       sodipodi:type="inkscape:persp3d" /><marker
       inkscape:stockid="Arrow1Mend"
       orient="auto"
       refY="0"
       refX="0"
       id="Arrow1Mend-1"
       style="overflow:visible"><path
         id="path3896-5"
         d="M 0,0 5,-5 -12.5,0 5,5 0,0 z"
         style="fill-rule:evenodd;stroke:#000000;stroke-width:1pt;marker-start:none"
         transform="matrix(-0.4,0,0,-0.4,-4,0)" /></marker><inkscape:path-effect
       effect="spiro"
       id="path-effect3882-2"
       is_visible="true" /><inkscape:perspective
       id="perspective2961"
       inkscape:persp3d-origin="0.5 : 0.33333333 : 1"
       inkscape:vp_z="1 : 0.5 : 1"
       inkscape:vp_y="0 : 1000 : 0"
       inkscape:vp_x="0 : 0.5 : 1"
       sodipodi:type="inkscape:persp3d" /><inkscape:perspective
       id="perspective2961-1"
       inkscape:persp3d-origin="0.5 : 0.33333333 : 1"
       inkscape:vp_z="1 : 0.5 : 1"
       inkscape:vp_y="0 : 1000 : 0"
       inkscape:vp_x="0 : 0.5 : 1"
       sodipodi:type="inkscape:persp3d" /><inkscape:perspective
       id="perspective3286"
       inkscape:persp3d-origin="0.5 : 0.33333333 : 1"
       inkscape:vp_z="1 : 0.5 : 1"
       inkscape:vp_y="0 : 1000 : 0"
       inkscape:vp_x="0 : 0.5 : 1"
       sodipodi:type="inkscape:persp3d" /><inkscape:perspective
       id="perspective4746"
       inkscape:persp3d-origin="0.5 : 0.33333333 : 1"
       inkscape:vp_z="1 : 0.5 : 1"
       inkscape:vp_y="0 : 1000 : 0"
       inkscape:vp_x="0 : 0.5 : 1"
       sodipodi:type="inkscape:persp3d" /><marker
       inkscape:stockid="Arrow1Mend"
       orient="auto"
       refY="0"
       refX="0"
       id="Arrow1Mend-1-8"
       style="overflow:visible"><path
         id="path3896-5-0"
         d="M 0,0 5,-5 -12.5,0 5,5 0,0 z"
         style="fill-rule:evenodd;stroke:#000000;stroke-width:1pt;marker-start:none"
         transform="matrix(-0.4,0,0,-0.4,-4,0)" /></marker><inkscape:perspective
       id="perspective4837"
       inkscape:persp3d-origin="0.5 : 0.33333333 : 1"
       inkscape:vp_z="1 : 0.5 : 1"
       inkscape:vp_y="0 : 1000 : 0"
       inkscape:vp_x="0 : 0.5 : 1"
       sodipodi:type="inkscape:persp3d" /><marker
       inkscape:stockid="Arrow1Mend"
       orient="auto"
       refY="0"
       refX="0"
       id="Arrow1Mend-1-7"
       style="overflow:visible"><path
         id="path3896-5-3"
         d="M 0,0 5,-5 -12.5,0 5,5 0,0 z"
         style="fill-rule:evenodd;stroke:#000000;stroke-width:1pt;marker-start:none"
         transform="matrix(-0.4,0,0,-0.4,-4,0)" /></marker><inkscape:perspective
       id="perspective4988"
       inkscape:persp3d-origin="0.5 : 0.33333333 : 1"
       inkscape:vp_z="1 : 0.5 : 1"
       inkscape:vp_y="0 : 1000 : 0"
       inkscape:vp_x="0 : 0.5 : 1"
       sodipodi:type="inkscape:persp3d" /><marker
       inkscape:stockid="Arrow1Mend"
       orient="auto"
       refY="0"
       refX="0"
       id="Arrow1Mend-1-9"
       style="overflow:visible"><path
         id="path3896-5-1"
         d="M 0,0 5,-5 -12.5,0 5,5 0,0 z"
         style="fill-rule:evenodd;stroke:#000000;stroke-width:1pt;marker-start:none"
         transform="matrix(-0.4,0,0,-0.4,-4,0)" /></marker><inkscape:perspective
       id="perspective5516"
       inkscape:persp3d-origin="0.5 : 0.33333333 : 1"
       inkscape:vp_z="1 : 0.5 : 1"
       inkscape:vp_y="0 : 1000 : 0"
       inkscape:vp_x="0 : 0.5 : 1"
       sodipodi:type="inkscape:persp3d" /><marker
       inkscape:stockid="Arrow1Mend"
       orient="auto"
       refY="0"
       refX="0"
       id="Arrow1Mend-1-0"
       style="overflow:visible"><path
         id="path3896-5-9"
         d="M 0,0 5,-5 -12.5,0 5,5 0,0 z"
         style="fill-rule:evenodd;stroke:#000000;stroke-width:1pt;marker-start:none"
         transform="matrix(-0.4,0,0,-0.4,-4,0)" /></marker><inkscape:perspective
       id="perspective5544"
       inkscape:persp3d-origin="0.5 : 0.33333333 : 1"
       inkscape:vp_z="1 : 0.5 : 1"
       inkscape:vp_y="0 : 1000 : 0"
       inkscape:vp_x="0 : 0.5 : 1"
       sodipodi:type="inkscape:persp3d" /><marker
       inkscape:stockid="Arrow1Mend"
       orient="auto"
       refY="0"
       refX="0"
       id="Arrow1Mend-1-1"
       style="overflow:visible"><path
         id="path3896-5-6"
         d="M 0,0 5,-5 -12.5,0 5,5 0,0 z"
         style="fill-rule:evenodd;stroke:#000000;stroke-width:1pt;marker-start:none"
         transform="matrix(-0.4,0,0,-0.4,-4,0)" /></marker><inkscape:perspective
       id="perspective5572"
       inkscape:persp3d-origin="0.5 : 0.33333333 : 1"
       inkscape:vp_z="1 : 0.5 : 1"
       inkscape:vp_y="0 : 1000 : 0"
       inkscape:vp_x="0 : 0.5 : 1"
       sodipodi:type="inkscape:persp3d" /><marker
       inkscape:stockid="Arrow1Mend"
       orient="auto"
       refY="0"
       refX="0"
       id="Arrow1Mend-1-3"
       style="overflow:visible"><path
         id="path3896-5-5"
         d="M 0,0 5,-5 -12.5,0 5,5 0,0 z"
         style="fill-rule:evenodd;stroke:#000000;stroke-width:1pt;marker-start:none"
         transform="matrix(-0.4,0,0,-0.4,-4,0)" /></marker><marker
       inkscape:stockid="Arrow1Mend"
       orient="auto"
       refY="0"
       refX="0"
       id="marker5578"
       style="overflow:visible"><path
         id="path5580"
         d="M 0,0 5,-5 -12.5,0 5,5 0,0 z"
         style="fill-rule:evenodd;stroke:#000000;stroke-width:1pt;marker-start:none"
         transform="matrix(-0.4,0,0,-0.4,-4,0)" /></marker></defs><sodipodi:namedview
     pagecolor="#ffffff"
     bordercolor="#666666"
     borderopacity="1"
     objecttolerance="10"
     gridtolerance="10"
     guidetolerance="10"
     inkscape:pageopacity="0"
     inkscape:pageshadow="2"
     inkscape:window-width="1366"
     inkscape:window-height="693"
     id="namedview4"
     showgrid="true"
     showguides="false"
     inkscape:snap-global="false"
     inkscape:zoom="1.2013657"
     inkscape:cx="1.7969323"
     inkscape:cy="132.89566"
     inkscape:window-x="0"
     inkscape:window-y="24"
     inkscape:window-maximized="1"
     inkscape:current-layer="g14"><inkscape:grid
       type="xygrid"
       id="grid3022"
       empspacing="5"
       visible="true"
       enabled="true"
       snapvisiblegridlinesonly="true" /></sodipodi:namedview><g
     id="g12"
     inkscape:groupmode="layer"
     inkscape:label="dtm_gm"
     transform="matrix(1.25,0,0,-1.25,-105.34621,1051.3594)"><g
       id="g14"
       transform="scale(0.1,0.1)"><path
   d="m 1347.5172,5996.9807 c 0,-78.29 -63.457,-141.73 -141.731,-141.73 -78.273,0 -141.73,63.44 -141.73,141.73 0,78.26 63.457,141.73 141.73,141.73 78.274,0 141.731,-63.47 141.731,-141.73 0,0 0,78.26 0,0"
   style="fill:none;stroke:#000000;stroke-width:14.28800011;stroke-linecap:butt;stroke-linejoin:miter;stroke-miterlimit:10;stroke-opacity:1;stroke-dasharray:none"
   id="path16" /><path
   d="m 1351.6232,7043.4254 c 0,-78.27 -63.457,-141.73 -141.73,-141.73 -78.278,0 -141.731,63.46 -141.731,141.73 0,78.28 63.453,141.73 141.731,141.73 78.273,0 141.73,-63.45 141.73,-141.73"
   style="fill:#969696;fill-opacity:1;fill-rule:evenodd;stroke:none"
   id="path18" /><path
   d="m 1351.6232,7043.4254 c 0,-78.27 -63.457,-141.73 -141.73,-141.73 -78.278,0 -141.731,63.46 -141.731,141.73 0,78.28 63.453,141.73 141.731,141.73 78.273,0 141.73,-63.45 141.73,-141.73"
   style="fill:none;stroke:#000000;stroke-width:14.28800011;stroke-linecap:butt;stroke-linejoin:miter;stroke-miterlimit:10;stroke-opacity:1;stroke-dasharray:none"
   id="path20" /><path
   d="m 1351.6232,7610.3454 c 0,-78.27 -63.457,-141.73 -141.73,-141.73 -78.278,0 -141.731,63.46 -141.731,141.73 0,78.28 63.453,141.74 141.731,141.74 78.273,0 141.73,-63.46 141.73,-141.74"
   style="fill:#ffffff;fill-opacity:1;fill-rule:evenodd;stroke:none"
   id="path22" /><path
   d="m 1351.6232,7610.3454 c 0,-78.27 -63.457,-141.73 -141.73,-141.73 -78.278,0 -141.731,63.46 -141.731,141.73 0,78.28 63.453,141.74 141.731,141.74 78.273,0 141.73,-63.46 141.73,-141.74"
   style="fill:none;stroke:#000000;stroke-width:14.28800011;stroke-linecap:butt;stroke-linejoin:miter;stroke-miterlimit:10;stroke-opacity:1;stroke-dasharray:none"
   id="path24" /><path
   d="m 926.4322,6618.2454 637.785,0 0,1275.57 -637.785,0 0,-1275.57 z"
   style="fill:none;stroke:#000000;stroke-width:14.06400013;stroke-linecap:butt;stroke-linejoin:miter;stroke-miterlimit:10;stroke-opacity:1;stroke-dasharray:none;stroke-dashoffset:0"
   id="path26" /><path
   d="m 855.6021,6433.0514 837.5642,0 0,1970.948 -837.5642,0 0,-1970.948 z"
   style="fill:none;stroke:#000000;stroke-width:13.75196457;stroke-linecap:butt;stroke-linejoin:miter;stroke-miterlimit:10;stroke-opacity:1;stroke-dasharray:none;stroke-dashoffset:0"
   id="path28"
   sodipodi:nodetypes="ccccc" /><path
   d="m 1551.2915,8315.9207 -23.5192,-110.6071 25.1413,0 c 21.1907,0 37.6625,4.4359 49.4154,13.3216 11.753,8.8996 19.6718,22.9421 23.7419,42.1274 4.07,19.0469 2.1087,32.9923 -5.8987,41.8366 -7.963,8.8717 -22.5473,13.3215 -43.738,13.3215 l -25.1427,0 m -14.4958,13.0029 39.2551,0 c 28.1953,0 47.7048,-5.5033 58.5583,-16.5238 10.8533,-11.0068 13.7732,-28.2236 8.7594,-51.6372 -5.0138,-23.5519 -15.3216,-40.8381 -30.9234,-51.8864 -15.5723,-11.0622 -37.3971,-16.5794 -65.4743,-16.5794 l -39.2611,0 29.086,136.6268"
   style="fill:#000000;fill-opacity:1;fill-rule:nonzero;stroke:none"
   id="path30" /><path
   d="m 1424.5917,7822.0054 23.6337,0 38.8065,-106.9977 23.4254,106.9977 16.5139,0 -27.7629,-126.8121 -23.6337,0 -38.8557,106.8948 -23.3748,-106.8948 -16.5154,0 27.763,126.8121"
   style="fill:#000000;fill-opacity:1;fill-rule:nonzero;stroke:none"
   id="path32" /><path
   d="m 1151.6131,7095.0457 15.8549,0 4.5072,-84.4677 32.8136,84.4677 22.5608,0 4.5986,-84.3419 32.5733,84.3419 15.8562,0 -44.1169,-114.3103 -18.5866,0 -5.0781,93.6923 -36.3097,-93.6923 -18.5853,0 -6.088,114.3103"
   style="fill:#000000;fill-opacity:1;fill-rule:nonzero;stroke:none"
   id="path34" /><path
   d="m 1351.6232,8177.2654 c 0,-78.27 -63.457,-141.73 -141.73,-141.73 -78.278,0 -141.731,63.46 -141.731,141.73 0,78.28 63.453,141.73 141.731,141.73 78.273,0 141.73,-63.45 141.73,-141.73 0,0 0,78.28 0,0"
   style="fill:#ffffff;fill-opacity:1;fill-rule:evenodd;stroke:none"
   id="path36" /><path
   d="m 1351.6232,8177.2654 c 0,-78.27 -63.457,-141.73 -141.73,-141.73 -78.278,0 -141.731,63.46 -141.731,141.73 0,78.28 63.453,141.73 141.731,141.73 78.273,0 141.73,-63.45 141.73,-141.73 0,0 0,78.28 0,0"
   style="fill:none;stroke:#000000;stroke-width:15.70400047;stroke-linecap:butt;stroke-linejoin:miter;stroke-miterlimit:10;stroke-opacity:1;stroke-dasharray:none"
   id="path38" /><path
   d="m 849.8217,5747.9119 726.2965,6.9898 -6.1573,561.5418 -720.1392,0 0,-568.5316 z"
   style="fill:none;stroke:#000000;stroke-width:14.10400009;stroke-linecap:butt;stroke-linejoin:miter;stroke-miterlimit:10;stroke-opacity:1;stroke-dasharray:none;stroke-dashoffset:0"
   id="path50"
   sodipodi:nodetypes="ccccc" /><path
   d="m 1173.8802,5955.4707 -8.613,-43.04 -16.43,0 26.805,133.94 c 5.281,26.47 20.312,39.71 45.101,39.71 25.274,0 35.664,-11.3 31.164,-33.88 -3.226,-16.09 -10.425,-27.06 -21.597,-32.93 15.23,-5.18 21.304,-15.43 18.226,-30.76 -5.453,-27.26 -22.148,-40.88 -50.089,-40.88 -12.27,0 -20.458,2.61 -24.567,7.84 m 4.219,21.12 c 4.422,-9.92 12.332,-14.88 23.722,-14.88 16.622,0 26.731,8.98 30.325,26.95 3.226,16.18 -8.582,23.62 -35.422,22.33 l 2.824,14.08 c 20.336,0 32.363,9.28 36.078,27.86 2.543,12.71 -2.847,19.07 -16.168,19.07 -14.84,0 -24.054,-8.93 -27.644,-26.81 l -13.715,-68.6"
   style="fill:#000000;fill-opacity:1;fill-rule:nonzero;stroke:none"
   id="path54" /><path
   d="m 1182.6216,7662.7575 82.5665,0 -3.2252,-17.4567 -80.5771,-83.8305 65.2017,0 -2.737,-14.9949 -86.0072,0 3.2237,17.4727 80.7384,83.8146 -61.9267,0 2.7429,14.9948"
   style="fill:#000000;fill-opacity:1;fill-rule:nonzero;stroke:none"
   id="path58" /><path
   d="m 1260.1972,8175.8054 c 0,-12.2 -0.804,-22.99 -2.417,-32.38 -1.614,-9.36 -4.145,-17.23 -7.59,-23.61 -3.422,-6.38 -7.797,-11.23 -13.129,-14.56 -5.305,-3.3 -11.656,-4.94 -19.067,-4.94 -6.918,0 -12.906,1.63 -17.964,4.91 -5.036,3.27 -9.192,8.1 -12.465,14.48 -3.254,6.38 -5.649,14.25 -7.188,23.61 -1.543,9.39 -2.312,20.21 -2.312,32.49 0,12.07 0.773,22.77 2.312,32.08 1.539,9.31 3.961,17.12 7.258,23.43 3.301,6.3 7.52,11.07 12.652,14.3 5.157,3.25 11.34,4.88 18.551,4.88 13.859,0 24.215,-6.34 31.059,-19 6.867,-12.63 10.3,-31.2 10.3,-55.69 m -42.128,65.3 c -4.496,0 -8.102,-1.37 -10.817,-4.11 -2.715,-2.74 -4.84,-6.71 -6.379,-11.91 -1.539,-5.21 -2.578,-11.6 -3.117,-19.18 -0.539,-7.56 -0.844,-16.16 -0.918,-25.81 l 44.699,0 c -0.148,9.65 -0.613,18.25 -1.394,25.81 -0.781,7.58 -2.055,13.97 -3.813,19.18 -1.761,5.2 -4.121,9.17 -7.078,11.91 -2.957,2.74 -6.683,4.11 -11.183,4.11 m 0,-131.41 c 4.425,0 8.117,1.38 11.074,4.14 2.957,2.76 5.316,6.76 7.078,11.99 1.758,5.23 3.031,11.62 3.812,19.18 0.782,7.55 1.247,16.12 1.391,25.7 l -44.586,0 c 0.074,-9.58 0.395,-18.15 0.953,-25.7 0.586,-7.56 1.641,-13.95 3.156,-19.18 1.54,-5.23 3.665,-9.23 6.379,-11.99 2.739,-2.76 6.321,-4.14 10.743,-4.14"
   style="fill:#000000;fill-opacity:1;fill-rule:nonzero;stroke:none"
   id="path60" /><path
   d="m 1220.0092,6129.752 -7.125,698"
   style="fill:none;stroke:#000000;stroke-width:14.07199955;stroke-linecap:butt;stroke-linejoin:miter;stroke-miterlimit:10;stroke-opacity:1;stroke-dasharray:none"
   id="path68" /><path
   d="m 1211.1742,6888.8454 33.141,-64.92 -32.735,16.03 -32.461,-16.57"
   style="fill:#000000;fill-opacity:1;fill-rule:evenodd;stroke:none"
   id="path70" /><path
   d="m 1211.1742,6888.8454 33.141,-64.92 -32.735,16.03 -32.461,-16.57 32.055,65.46 z"
   style="fill:none;stroke:#000000;stroke-width:8.50380039;stroke-linecap:butt;stroke-linejoin:miter;stroke-miterlimit:10;stroke-opacity:1;stroke-dasharray:none"
   id="path72" /><path
   d="m 1209.8932,7468.4854 0,-224.78"
   style="fill:none;stroke:#000000;stroke-width:14.10400009;stroke-linecap:butt;stroke-linejoin:miter;stroke-miterlimit:10;stroke-opacity:1;stroke-dasharray:none"
   id="path166" /><path
   d="m 1209.8932,7194.8054 -32.598,65.2 32.598,-16.3 32.597,16.3"
   style="fill:#000000;fill-opacity:1;fill-rule:evenodd;stroke:none"
   id="path168" /><path
   d="m 1209.8932,7194.8054 -32.598,65.2 32.598,-16.3 32.597,16.3 -32.597,-65.2 z"
   style="fill:none;stroke:#000000;stroke-width:8.50380039;stroke-linecap:butt;stroke-linejoin:miter;stroke-miterlimit:10;stroke-opacity:1;stroke-dasharray:none"
   id="path170" /><path
   d="m 1209.8932,8035.4054 0,-224.78"
   style="fill:none;stroke:#000000;stroke-width:8.50380039;stroke-linecap:butt;stroke-linejoin:miter;stroke-miterlimit:10;stroke-opacity:1;stroke-dasharray:none"
   id="path192" /><path
   d="m 1209.8932,7761.7254 -32.598,65.19 32.598,-16.29 32.597,16.29"
   style="fill:#000000;fill-opacity:1;fill-rule:evenodd;stroke:none"
   id="path194" /><path
   d="m 1209.8932,7761.7254 -32.598,65.19 32.598,-16.29 32.597,16.29 -32.597,-65.19 z"
   style="fill:none;stroke:#000000;stroke-width:8.50380039;stroke-linecap:butt;stroke-linejoin:miter;stroke-miterlimit:10;stroke-opacity:1;stroke-dasharray:none"
   id="path196" /><text
   xml:space="preserve"
   style="font-size:154.09539795px;font-style:normal;font-weight:normal;fill:#000000;fill-opacity:1;stroke:none;font-family:Bitstream Vera Sans"
   x="1511.9214"
   y="-5736.2754"
   id="text3046"
   transform="scale(0.93401144,-1.0706507)"><tspan
     sodipodi:role="line"
     id="tspan3048"
     x="1511.9214"
     y="-5736.2754"
     style="font-style:italic">K</tspan></text>






<path
   d="m 3109.7658,5996.4051 c 0,-78.29 -63.457,-141.73 -141.731,-141.73 -78.273,0 -141.73,63.44 -141.73,141.73 0,78.26 63.457,141.73 141.73,141.73 78.274,0 141.731,-63.47 141.731,-141.73 0,0 0,78.26 0,0"
   style="fill:none;stroke:#000000;stroke-width:14.28800011;stroke-linecap:butt;stroke-linejoin:miter;stroke-miterlimit:10;stroke-opacity:1;stroke-dasharray:none"
   id="path16-9" /><path
   d="m 3113.8718,7042.8498 c 0,-78.27 -63.457,-141.73 -141.73,-141.73 -78.278,0 -141.731,63.46 -141.731,141.73 0,78.28 63.453,141.73 141.731,141.73 78.273,0 141.73,-63.45 141.73,-141.73"
   style="fill:#969696;fill-opacity:1;fill-rule:evenodd;stroke:none"
   id="path18-6" /><path
   d="m 3113.8718,7042.8498 c 0,-78.27 -63.457,-141.73 -141.73,-141.73 -78.278,0 -141.731,63.46 -141.731,141.73 0,78.28 63.453,141.73 141.731,141.73 78.273,0 141.73,-63.45 141.73,-141.73"
   style="fill:none;stroke:#000000;stroke-width:14.28800011;stroke-linecap:butt;stroke-linejoin:miter;stroke-miterlimit:10;stroke-opacity:1;stroke-dasharray:none"
   id="path20-0" /><path
   d="m 3113.8718,7609.7698 c 0,-78.27 -63.457,-141.73 -141.73,-141.73 -78.278,0 -141.731,63.46 -141.731,141.73 0,78.28 63.453,141.74 141.731,141.74 78.273,0 141.73,-63.46 141.73,-141.74"
   style="fill:#ffffff;fill-opacity:1;fill-rule:evenodd;stroke:none"
   id="path22-7" /><path
   d="m 3113.8718,7609.7698 c 0,-78.27 -63.457,-141.73 -141.73,-141.73 -78.278,0 -141.731,63.46 -141.731,141.73 0,78.28 63.453,141.74 141.731,141.74 78.273,0 141.73,-63.46 141.73,-141.74"
   style="fill:none;stroke:#000000;stroke-width:14.28800011;stroke-linecap:butt;stroke-linejoin:miter;stroke-miterlimit:10;stroke-opacity:1;stroke-dasharray:none"
   id="path24-0" /><path
   d="m 2688.6808,6617.6698 637.785,0 0,1275.57 -637.785,0 0,-1275.57 z"
   style="fill:none;stroke:#000000;stroke-width:14.06400013;stroke-linecap:butt;stroke-linejoin:miter;stroke-miterlimit:10;stroke-opacity:1;stroke-dasharray:none;stroke-dashoffset:0"
   id="path26-1" /><path
   d="m 2617.8507,6432.4758 837.5642,0 0,1970.948 -837.5642,0 0,-1970.948 z"
   style="fill:none;stroke:#000000;stroke-width:13.75196457;stroke-linecap:butt;stroke-linejoin:miter;stroke-miterlimit:10;stroke-opacity:1;stroke-dasharray:none;stroke-dashoffset:0"
   id="path28-0"
   sodipodi:nodetypes="ccccc" /><path
   d="m 3313.5401,8315.3451 -23.5192,-110.6071 25.1413,0 c 21.1907,0 37.6625,4.4359 49.4154,13.3216 11.753,8.8996 19.6718,22.9421 23.7419,42.1274 4.07,19.0469 2.1087,32.9923 -5.8987,41.8366 -7.963,8.8717 -22.5473,13.3215 -43.738,13.3215 l -25.1427,0 m -14.4958,13.0029 39.2551,0 c 28.1953,0 47.7048,-5.5033 58.5583,-16.5238 10.8533,-11.0068 13.7732,-28.2236 8.7594,-51.6372 -5.0138,-23.5519 -15.3216,-40.8381 -30.9234,-51.8864 -15.5723,-11.0622 -37.3971,-16.5794 -65.4743,-16.5794 l -39.2611,0 29.086,136.6268"
   style="fill:#000000;fill-opacity:1;fill-rule:nonzero;stroke:none"
   id="path30-1" /><path
   d="m 3186.8403,7821.4298 23.6337,0 38.8065,-106.9977 23.4254,106.9977 16.5139,0 -27.7629,-126.8121 -23.6337,0 -38.8557,106.8948 -23.3748,-106.8948 -16.5154,0 27.763,126.8121"
   style="fill:#000000;fill-opacity:1;fill-rule:nonzero;stroke:none"
   id="path32-3" /><path
   d="m 2913.8617,7094.4701 15.8549,0 4.5072,-84.4677 32.8136,84.4677 22.5608,0 4.5986,-84.3419 32.5733,84.3419 15.8562,0 -44.1169,-114.3103 -18.5866,0 -5.0781,93.6923 -36.3097,-93.6923 -18.5853,0 -6.088,114.3103"
   style="fill:#000000;fill-opacity:1;fill-rule:nonzero;stroke:none"
   id="path34-7" /><path
   d="m 3113.8718,8176.6898 c 0,-78.27 -63.457,-141.73 -141.73,-141.73 -78.278,0 -141.731,63.46 -141.731,141.73 0,78.28 63.453,141.73 141.731,141.73 78.273,0 141.73,-63.45 141.73,-141.73 0,0 0,78.28 0,0"
   style="fill:#ffffff;fill-opacity:1;fill-rule:evenodd;stroke:none"
   id="path36-7" /><path
   d="m 3113.8718,8176.6898 c 0,-78.27 -63.457,-141.73 -141.73,-141.73 -78.278,0 -141.731,63.46 -141.731,141.73 0,78.28 63.453,141.73 141.731,141.73 78.273,0 141.73,-63.45 141.73,-141.73 0,0 0,78.28 0,0"
   style="fill:none;stroke:#000000;stroke-width:15.70400047;stroke-linecap:butt;stroke-linejoin:miter;stroke-miterlimit:10;stroke-opacity:1;stroke-dasharray:none"
   id="path38-2" /><path
   d="m 2612.0703,5747.3363 726.2965,6.9898 -6.1573,561.5418 -720.1392,0 0,-568.5316 z"
   style="fill:none;stroke:#000000;stroke-width:14.10400009;stroke-linecap:butt;stroke-linejoin:miter;stroke-miterlimit:10;stroke-opacity:1;stroke-dasharray:none;stroke-dashoffset:0"
   id="path50-6"
   sodipodi:nodetypes="ccccc" /><path
   d="m 2936.1288,5954.8951 -8.613,-43.04 -16.43,0 26.805,133.94 c 5.281,26.47 20.312,39.71 45.101,39.71 25.274,0 35.664,-11.3 31.164,-33.88 -3.226,-16.09 -10.425,-27.06 -21.597,-32.93 15.23,-5.18 21.304,-15.43 18.226,-30.76 -5.453,-27.26 -22.148,-40.88 -50.089,-40.88 -12.27,0 -20.458,2.61 -24.567,7.84 m 4.219,21.12 c 4.422,-9.92 12.332,-14.88 23.722,-14.88 16.622,0 26.731,8.98 30.325,26.95 3.226,16.18 -8.582,23.62 -35.422,22.33 l 2.824,14.08 c 20.336,0 32.363,9.28 36.078,27.86 2.543,12.71 -2.847,19.07 -16.168,19.07 -14.84,0 -24.054,-8.93 -27.644,-26.81 l -13.715,-68.6"
   style="fill:#000000;fill-opacity:1;fill-rule:nonzero;stroke:none"
   id="path54-4" /><path
   d="m 2944.8702,7662.1819 82.5665,0 -3.2252,-17.4567 -80.5771,-83.8305 65.2017,0 -2.737,-14.9949 -86.0072,0 3.2237,17.4727 80.7384,83.8146 -61.9267,0 2.7429,14.9948"
   style="fill:#000000;fill-opacity:1;fill-rule:nonzero;stroke:none"
   id="path58-5" /><path
   d="m 3022.4458,8175.2298 c 0,-12.2 -0.804,-22.99 -2.417,-32.38 -1.614,-9.36 -4.145,-17.23 -7.59,-23.61 -3.422,-6.38 -7.797,-11.23 -13.129,-14.56 -5.305,-3.3 -11.656,-4.94 -19.067,-4.94 -6.918,0 -12.906,1.63 -17.964,4.91 -5.036,3.27 -9.192,8.1 -12.465,14.48 -3.254,6.38 -5.649,14.25 -7.188,23.61 -1.543,9.39 -2.312,20.21 -2.312,32.49 0,12.07 0.773,22.77 2.312,32.08 1.539,9.31 3.961,17.12 7.258,23.43 3.301,6.3 7.52,11.07 12.652,14.3 5.157,3.25 11.34,4.88 18.551,4.88 13.859,0 24.215,-6.34 31.059,-19 6.867,-12.63 10.3,-31.2 10.3,-55.69 m -42.128,65.3 c -4.496,0 -8.102,-1.37 -10.817,-4.11 -2.715,-2.74 -4.84,-6.71 -6.379,-11.91 -1.539,-5.21 -2.578,-11.6 -3.117,-19.18 -0.5391,-7.56 -0.844,-16.16 -0.918,-25.81 l 44.699,0 c -0.148,9.65 -0.613,18.25 -1.394,25.81 -0.7811,7.58 -2.055,13.97 -3.813,19.18 -1.761,5.2 -4.121,9.17 -7.078,11.91 -2.957,2.74 -6.683,4.11 -11.183,4.11 m 0,-131.41 c 4.425,0 8.117,1.38 11.074,4.14 2.957,2.76 5.316,6.76 7.078,11.99 1.758,5.23 3.031,11.62 3.812,19.18 0.782,7.55 1.247,16.12 1.391,25.7 l -44.586,0 c 0.074,-9.58 0.3949,-18.15 0.953,-25.7 0.586,-7.56 1.641,-13.95 3.156,-19.18 1.54,-5.23 3.665,-9.23 6.379,-11.99 2.739,-2.76 6.321,-4.14 10.743,-4.14"
   style="fill:#000000;fill-opacity:1;fill-rule:nonzero;stroke:none"
   id="path60-2" /><path
   d="m 2982.2578,6129.1764 -7.125,698"
   style="fill:none;stroke:#000000;stroke-width:14.07199955;stroke-linecap:butt;stroke-linejoin:miter;stroke-miterlimit:10;stroke-opacity:1;stroke-dasharray:none"
   id="path68-0" /><path
   d="m 2973.4228,6888.2698 33.141,-64.92 -32.735,16.03 -32.461,-16.57"
   style="fill:#000000;fill-opacity:1;fill-rule:evenodd;stroke:none"
   id="path70-2" /><path
   d="m 2973.4228,6888.2698 33.141,-64.92 -32.735,16.03 -32.461,-16.57 32.055,65.46 z"
   style="fill:none;stroke:#000000;stroke-width:8.50380039;stroke-linecap:butt;stroke-linejoin:miter;stroke-miterlimit:10;stroke-opacity:1;stroke-dasharray:none"
   id="path72-9" /><path
   d="m 2972.1418,7467.9098 0,-224.78"
   style="fill:none;stroke:#000000;stroke-width:14.10400009;stroke-linecap:butt;stroke-linejoin:miter;stroke-miterlimit:10;stroke-opacity:1;stroke-dasharray:none"
   id="path166-0" /><path
   d="m 2972.1418,7194.2298 -32.598,65.2 32.598,-16.3 32.597,16.3"
   style="fill:#000000;fill-opacity:1;fill-rule:evenodd;stroke:none"
   id="path168-9" /><path
   d="m 2972.1418,7194.2298 -32.598,65.2 32.598,-16.3 32.597,16.3 -32.597,-65.2 z"
   style="fill:none;stroke:#000000;stroke-width:8.50380039;stroke-linecap:butt;stroke-linejoin:miter;stroke-miterlimit:10;stroke-opacity:1;stroke-dasharray:none"
   id="path170-9" /><path
   d="m 2972.1418,8034.8298 0,-224.78"
   style="fill:none;stroke:#000000;stroke-width:8.50380039;stroke-linecap:butt;stroke-linejoin:miter;stroke-miterlimit:10;stroke-opacity:1;stroke-dasharray:none"
   id="path192-4" /><path
   d="m 2972.1418,7761.1498 -32.598,65.19 32.598,-16.29 32.597,16.29"
   style="fill:#000000;fill-opacity:1;fill-rule:evenodd;stroke:none"
   id="path194-5" /><path
   d="m 2972.1418,7761.1498 -32.598,65.19 32.598,-16.29 32.597,16.29 -32.597,-65.19 z"
   style="fill:none;stroke:#000000;stroke-width:8.50380039;stroke-linecap:butt;stroke-linejoin:miter;stroke-miterlimit:10;stroke-opacity:1;stroke-dasharray:none"
   id="path196-1" /><text
   xml:space="preserve"
   style="font-size:154.09539795px;font-style:normal;font-weight:normal;fill:#000000;fill-opacity:1;stroke:none;font-family:Bitstream Vera Sans"
   x="3398.6697"
   y="-5735.7383"
   id="text3046-0"
   transform="scale(0.93401143,-1.0706507)"><tspan
     sodipodi:role="line"
     id="tspan3048-3"
     x="3398.6697"
     y="-5735.7383"
     style="font-style:italic">K</tspan></text>

<path
   d="m 1353.8565,5997.8368 1451.3861,2.1252"
   style="fill:#000000;stroke:#000000;stroke-width:20.47200000000000131;stroke-linecap:butt;stroke-linejoin:miter;stroke-miterlimit:10;stroke-opacity:1;stroke-dasharray:none;marker-end:url(#Arrow1Mend-1);fill-opacity:1"
   id="path68-7"
   sodipodi:nodetypes="cc" /><path
   d="m 4867.6401,5993.7905 c 0,-78.29 -63.457,-141.73 -141.731,-141.73 -78.273,0 -141.73,63.44 -141.73,141.73 0,78.26 63.457,141.73 141.73,141.73 78.274,0 141.731,-63.47 141.731,-141.73 0,0 0,78.26 0,0"
   style="fill:none;stroke:#000000;stroke-width:14.28800011;stroke-linecap:butt;stroke-linejoin:miter;stroke-miterlimit:10;stroke-opacity:1;stroke-dasharray:none"
   id="path16-9-2" /><path
   d="m 4871.7461,7040.2352 c 0,-78.27 -63.457,-141.73 -141.73,-141.73 -78.278,0 -141.731,63.46 -141.731,141.73 0,78.28 63.453,141.73 141.731,141.73 78.273,0 141.73,-63.45 141.73,-141.73"
   style="fill:#969696;fill-opacity:1;fill-rule:evenodd;stroke:none"
   id="path18-6-2" /><path
   d="m 4871.7461,7040.2352 c 0,-78.27 -63.457,-141.73 -141.73,-141.73 -78.278,0 -141.731,63.46 -141.731,141.73 0,78.28 63.453,141.73 141.731,141.73 78.273,0 141.73,-63.45 141.73,-141.73"
   style="fill:none;stroke:#000000;stroke-width:14.28800011;stroke-linecap:butt;stroke-linejoin:miter;stroke-miterlimit:10;stroke-opacity:1;stroke-dasharray:none"
   id="path20-0-1" /><path
   d="m 4871.7461,7607.1552 c 0,-78.27 -63.457,-141.73 -141.73,-141.73 -78.278,0 -141.731,63.46 -141.731,141.73 0,78.28 63.453,141.74 141.731,141.74 78.273,0 141.73,-63.46 141.73,-141.74"
   style="fill:#ffffff;fill-opacity:1;fill-rule:evenodd;stroke:none"
   id="path22-7-5" /><path
   d="m 4871.7461,7607.1552 c 0,-78.27 -63.457,-141.73 -141.73,-141.73 -78.278,0 -141.731,63.46 -141.731,141.73 0,78.28 63.453,141.74 141.731,141.74 78.273,0 141.73,-63.46 141.73,-141.74"
   style="fill:none;stroke:#000000;stroke-width:14.28800011;stroke-linecap:butt;stroke-linejoin:miter;stroke-miterlimit:10;stroke-opacity:1;stroke-dasharray:none"
   id="path24-0-3" /><path
   d="m 4446.5551,6615.0552 637.785,0 0,1275.57 -637.785,0 0,-1275.57 z"
   style="fill:none;stroke:#000000;stroke-width:14.06400013;stroke-linecap:butt;stroke-linejoin:miter;stroke-miterlimit:10;stroke-opacity:1;stroke-dasharray:none;stroke-dashoffset:0"
   id="path26-1-3" /><path
   d="m 4375.7249,6429.8612 837.5643,0 0,1970.948 -837.5643,0 0,-1970.948 z"
   style="fill:none;stroke:#000000;stroke-width:13.75196457;stroke-linecap:butt;stroke-linejoin:miter;stroke-miterlimit:10;stroke-opacity:1;stroke-dasharray:none;stroke-dashoffset:0"
   id="path28-0-8"
   sodipodi:nodetypes="ccccc" /><path
   d="m 5071.4144,8312.7305 -23.5192,-110.6071 25.1413,0 c 21.1907,0 37.6624,4.4359 49.4154,13.3216 11.753,8.8996 19.6718,22.9421 23.7418,42.1274 4.07,19.0469 2.1088,32.9923 -5.8986,41.8366 -7.963,8.8717 -22.5474,13.3215 -43.738,13.3215 l -25.1427,0 m -14.4959,13.0029 39.2552,0 c 28.1952,0 47.7048,-5.5033 58.5583,-16.5238 10.8533,-11.0068 13.7732,-28.2236 8.7593,-51.6372 -5.0137,-23.5519 -15.3216,-40.8381 -30.9233,-51.8864 -15.5723,-11.0622 -37.3971,-16.5794 -65.4743,-16.5794 l -39.2612,0 29.086,136.6268"
   style="fill:#000000;fill-opacity:1;fill-rule:nonzero;stroke:none"
   id="path30-1-2" /><path
   d="m 4944.7145,7818.8152 23.6338,0 38.8065,-106.9977 23.4253,106.9977 16.514,0 -27.7629,-126.8121 -23.6337,0 -38.8558,106.8948 -23.3748,-106.8948 -16.5153,0 27.7629,126.8121"
   style="fill:#000000;fill-opacity:1;fill-rule:nonzero;stroke:none"
   id="path32-3-8" /><path
   d="m 4671.736,7091.8555 15.8549,0 4.5072,-84.4677 32.8136,84.4677 22.5608,0 4.5986,-84.3419 32.5733,84.3419 15.8561,0 -44.1168,-114.3103 -18.5866,0 -5.0782,93.6923 -36.3096,-93.6923 -18.5853,0 -6.088,114.3103"
   style="fill:#000000;fill-opacity:1;fill-rule:nonzero;stroke:none"
   id="path34-7-5" /><path
   d="m 4871.7461,8174.0752 c 0,-78.27 -63.457,-141.73 -141.73,-141.73 -78.278,0 -141.731,63.46 -141.731,141.73 0,78.28 63.453,141.73 141.731,141.73 78.273,0 141.73,-63.45 141.73,-141.73 0,0 0,78.28 0,0"
   style="fill:#ffffff;fill-opacity:1;fill-rule:evenodd;stroke:none"
   id="path36-7-8" /><path
   d="m 4871.7461,8174.0752 c 0,-78.27 -63.457,-141.73 -141.73,-141.73 -78.278,0 -141.731,63.46 -141.731,141.73 0,78.28 63.453,141.73 141.731,141.73 78.273,0 141.73,-63.45 141.73,-141.73 0,0 0,78.28 0,0"
   style="fill:none;stroke:#000000;stroke-width:15.70400047;stroke-linecap:butt;stroke-linejoin:miter;stroke-miterlimit:10;stroke-opacity:1;stroke-dasharray:none"
   id="path38-2-0" /><path
   d="m 4369.9445,5744.7217 726.2966,6.9898 -6.1574,561.5418 -720.1392,0 0,-568.5316 z"
   style="fill:none;stroke:#000000;stroke-width:14.10400009;stroke-linecap:butt;stroke-linejoin:miter;stroke-miterlimit:10;stroke-opacity:1;stroke-dasharray:none;stroke-dashoffset:0"
   id="path50-6-8"
   sodipodi:nodetypes="ccccc" /><path
   d="m 4694.0031,5952.2805 -8.613,-43.04 -16.43,0 26.805,133.94 c 5.281,26.47 20.312,39.71 45.101,39.71 25.274,0 35.664,-11.3 31.164,-33.88 -3.226,-16.09 -10.425,-27.06 -21.597,-32.93 15.23,-5.18 21.304,-15.43 18.226,-30.76 -5.453,-27.26 -22.148,-40.88 -50.089,-40.88 -12.27,0 -20.458,2.61 -24.567,7.84 m 4.219,21.12 c 4.422,-9.92 12.332,-14.88 23.722,-14.88 16.622,0 26.731,8.98 30.325,26.95 3.226,16.18 -8.582,23.62 -35.422,22.33 l 2.824,14.08 c 20.336,0 32.363,9.28 36.078,27.86 2.543,12.71 -2.847,19.07 -16.168,19.07 -14.84,0 -24.054,-8.93 -27.644,-26.81 l -13.715,-68.6"
   style="fill:#000000;fill-opacity:1;fill-rule:nonzero;stroke:none"
   id="path54-4-6" /><path
   d="m 4702.7445,7659.5673 82.5664,0 -3.2252,-17.4567 -80.577,-83.8305 65.2017,0 -2.7371,-14.9949 -86.0072,0 3.2238,17.4727 80.7384,83.8146 -61.9267,0 2.7429,14.9948"
   style="fill:#000000;fill-opacity:1;fill-rule:nonzero;stroke:none"
   id="path58-5-9" /><path
   d="m 4780.3201,8172.6152 c 0,-12.2 -0.804,-22.99 -2.417,-32.38 -1.614,-9.36 -4.145,-17.23 -7.59,-23.61 -3.422,-6.38 -7.797,-11.23 -13.129,-14.56 -5.305,-3.3 -11.656,-4.94 -19.067,-4.94 -6.918,0 -12.906,1.63 -17.964,4.91 -5.036,3.27 -9.192,8.1 -12.465,14.48 -3.254,6.38 -5.649,14.25 -7.188,23.61 -1.543,9.39 -2.312,20.21 -2.312,32.49 0,12.07 0.7728,22.77 2.312,32.08 1.539,9.31 3.961,17.12 7.258,23.43 3.301,6.3 7.52,11.07 12.652,14.3 5.157,3.25 11.34,4.88 18.551,4.88 13.859,0 24.215,-6.34 31.059,-19 6.867,-12.63 10.3,-31.2 10.3,-55.69 m -42.128,65.3 c -4.496,0 -8.102,-1.37 -10.817,-4.11 -2.715,-2.74 -4.84,-6.71 -6.379,-11.91 -1.539,-5.21 -2.578,-11.6 -3.117,-19.18 -0.5392,-7.56 -0.844,-16.16 -0.918,-25.81 l 44.699,0 c -0.148,9.65 -0.6128,18.25 -1.394,25.81 -0.7808,7.58 -2.055,13.97 -3.813,19.18 -1.761,5.2 -4.121,9.17 -7.078,11.91 -2.957,2.74 -6.683,4.11 -11.183,4.11 m 0,-131.41 c 4.425,0 8.117,1.38 11.074,4.14 2.957,2.76 5.316,6.76 7.078,11.99 1.758,5.23 3.031,11.62 3.812,19.18 0.7816,7.55 1.247,16.12 1.391,25.7 l -44.586,0 c 0.072,-9.58 0.3952,-18.15 0.953,-25.7 0.5864,-7.56 1.641,-13.95 3.156,-19.18 1.54,-5.23 3.665,-9.23 6.379,-11.99 2.739,-2.76 6.321,-4.14 10.743,-4.14"
   style="fill:#000000;fill-opacity:1;fill-rule:nonzero;stroke:none"
   id="path60-2-3" /><path
   d="m 4740.1321,6126.5618 -7.125,698"
   style="fill:none;stroke:#000000;stroke-width:14.07199955;stroke-linecap:butt;stroke-linejoin:miter;stroke-miterlimit:10;stroke-opacity:1;stroke-dasharray:none"
   id="path68-0-3" /><path
   d="m 4731.2971,6885.6552 33.141,-64.92 -32.735,16.03 -32.461,-16.57"
   style="fill:#000000;fill-opacity:1;fill-rule:evenodd;stroke:none"
   id="path70-2-7" /><path
   d="m 4731.2971,6885.6552 33.141,-64.92 -32.735,16.03 -32.461,-16.57 32.055,65.46 z"
   style="fill:none;stroke:#000000;stroke-width:8.50380039;stroke-linecap:butt;stroke-linejoin:miter;stroke-miterlimit:10;stroke-opacity:1;stroke-dasharray:none"
   id="path72-9-4" /><path
   d="m 4730.0161,7465.2952 0,-224.78"
   style="fill:none;stroke:#000000;stroke-width:14.10400009;stroke-linecap:butt;stroke-linejoin:miter;stroke-miterlimit:10;stroke-opacity:1;stroke-dasharray:none"
   id="path166-0-3" /><path
   d="m 4730.0161,7191.6152 -32.598,65.2 32.598,-16.3 32.597,16.3"
   style="fill:#000000;fill-opacity:1;fill-rule:evenodd;stroke:none"
   id="path168-9-7" /><path
   d="m 4730.0161,7191.6152 -32.598,65.2 32.598,-16.3 32.597,16.3 -32.597,-65.2 z"
   style="fill:none;stroke:#000000;stroke-width:8.50380039;stroke-linecap:butt;stroke-linejoin:miter;stroke-miterlimit:10;stroke-opacity:1;stroke-dasharray:none"
   id="path170-9-1" /><path
   d="m 4730.0161,8032.2152 0,-224.78"
   style="fill:none;stroke:#000000;stroke-width:8.50380039;stroke-linecap:butt;stroke-linejoin:miter;stroke-miterlimit:10;stroke-opacity:1;stroke-dasharray:none"
   id="path192-4-3" /><path
   d="m 4730.0161,7758.5352 -32.598,65.19 32.598,-16.29 32.597,16.29"
   style="fill:#000000;fill-opacity:1;fill-rule:evenodd;stroke:none"
   id="path194-5-9" /><path
   d="m 4730.0161,7758.5352 -32.598,65.19 32.598,-16.29 32.597,16.29 -32.597,-65.19 z"
   style="fill:none;stroke:#000000;stroke-width:8.50380039;stroke-linecap:butt;stroke-linejoin:miter;stroke-miterlimit:10;stroke-opacity:1;stroke-dasharray:none"
   id="path196-1-6" /><text
   xml:space="preserve"
   style="font-size:154.09539795px;font-style:normal;font-weight:normal;fill:#000000;fill-opacity:1;stroke:none;font-family:Bitstream Vera Sans"
   x="5280.7344"
   y="-5733.2964"
   id="text3046-0-4"
   transform="scale(0.93401143,-1.0706507)"><tspan
     sodipodi:role="line"
     id="tspan3048-3-2"
     x="5280.7344"
     y="-5733.2964"
     style="font-style:italic">K</tspan></text>

<path
   d="m 3110.6719,6002.0878 1451.3861,2.1252"
   style="fill:#ff0000;fill-opacity:1;stroke:#000000;stroke-width:20.47200012000000058;stroke-linecap:butt;stroke-linejoin:miter;stroke-miterlimit:10;stroke-opacity:1;stroke-dasharray:none;marker-end:url(#Arrow1Mend-1)"
   id="path68-7-4"
   sodipodi:nodetypes="cc" /><path
   d="M 1342.3883,6978.6849 2820.4107,6075.1741"
   style="fill:#ff0000;fill-opacity:1;stroke:#ff0000;stroke-width:20.47200012;stroke-linecap:butt;stroke-linejoin:miter;stroke-miterlimit:10;stroke-opacity:1;stroke-dasharray:none;marker-end:url(#Arrow1Mend-1)"
   id="path68-7-2"
   sodipodi:nodetypes="cc" /><path
   d="M 1302.8578,7504.0103 2851.4484,6137.0451"
   style="fill:#ff0000;fill-opacity:1;stroke:#ff0000;stroke-width:20.47200012;stroke-linecap:butt;stroke-linejoin:miter;stroke-miterlimit:10;stroke-opacity:1;stroke-dasharray:none;marker-end:url(#Arrow1Mend-1)"
   id="path68-7-2-2"
   sodipodi:nodetypes="cc" /><path
   d="M 3116.7751,6985.6553 4594.7975,6082.1445"
   style="fill:#ff0000;fill-opacity:1;stroke:#ff0000;stroke-width:20.47200012;stroke-linecap:butt;stroke-linejoin:miter;stroke-miterlimit:10;stroke-opacity:1;stroke-dasharray:none;marker-end:url(#Arrow1Mend-1)"
   id="path68-7-2-0"
   sodipodi:nodetypes="cc" /><path
   d="M 3077.2446,7510.9807 4625.8352,6144.0155"
   style="fill:#ff0000;fill-opacity:1;stroke:#ff0000;stroke-width:20.47200012;stroke-linecap:butt;stroke-linejoin:miter;stroke-miterlimit:10;stroke-opacity:1;stroke-dasharray:none;marker-end:url(#Arrow1Mend-1)"
   id="path68-7-2-2-4"
   sodipodi:nodetypes="cc" /></g></g></svg>