<?xml version="1.0" encoding="UTF-8" standalone="no"?>
<!-- Created with Inkscape (http://www.inkscape.org/) -->

<svg
   xmlns:dc="http://purl.org/dc/elements/1.1/"
   xmlns:cc="http://creativecommons.org/ns#"
   xmlns:rdf="http://www.w3.org/1999/02/22-rdf-syntax-ns#"
   xmlns:svg="http://www.w3.org/2000/svg"
   xmlns="http://www.w3.org/2000/svg"
   xmlns:sodipodi="http://sodipodi.sourceforge.net/DTD/sodipodi-0.dtd"
   xmlns:inkscape="http://www.inkscape.org/namespaces/inkscape"
   id="svg3737"
   version="1.1"
   inkscape:version="0.47 r22583"
   width="699.76807"
   height="542.38403"
   xml:space="preserve"
   sodipodi:docname="134_interesting_senator_name_accuracy_by_ip_sample_all.pdf"><metadata
     id="metadata3743"><rdf:RDF><cc:Work
         rdf:about=""><dc:format>image/svg+xml</dc:format><dc:type
           rdf:resource="http://purl.org/dc/dcmitype/StillImage" /><dc:title></dc:title></cc:Work></rdf:RDF></metadata><defs
     id="defs3741"><marker
       inkscape:stockid="Arrow2Mstart"
       orient="auto"
       refY="0"
       refX="0"
       id="Arrow2Mstart"
       style="overflow:visible"><path
         id="path5456"
         style="font-size:12px;fill-rule:evenodd;stroke-width:0.625;stroke-linejoin:round"
         d="M 8.7185878,4.0337352 -2.2072895,0.01601326 8.7185884,-4.0017078 c -1.7454984,2.3720609 -1.7354408,5.6174519 -6e-7,8.035443 z"
         transform="scale(0.6,0.6)" /></marker><marker
       inkscape:stockid="Arrow2Mend"
       orient="auto"
       refY="0"
       refX="0"
       id="Arrow2Mend"
       style="overflow:visible"><path
         id="path5459"
         style="font-size:12px;fill-rule:evenodd;stroke-width:0.625;stroke-linejoin:round"
         d="M 8.7185878,4.0337352 -2.2072895,0.01601326 8.7185884,-4.0017078 c -1.7454984,2.3720609 -1.7354408,5.6174519 -6e-7,8.035443 z"
         transform="scale(-0.6,-0.6)" /></marker><marker
       inkscape:stockid="Arrow1Mend"
       orient="auto"
       refY="0"
       refX="0"
       id="Arrow1Mend"
       style="overflow:visible"><path
         id="path5441"
         d="M 0,0 5,-5 -12.5,0 5,5 0,0 z"
         style="fill-rule:evenodd;stroke:#000000;stroke-width:1pt;marker-start:none"
         transform="matrix(-0.4,0,0,-0.4,-4,0)" /></marker><marker
       inkscape:stockid="Arrow1Mstart"
       orient="auto"
       refY="0"
       refX="0"
       id="Arrow1Mstart"
       style="overflow:visible"><path
         id="path5438"
         d="M 0,0 5,-5 -12.5,0 5,5 0,0 z"
         style="fill-rule:evenodd;stroke:#000000;stroke-width:1pt;marker-start:none"
         transform="matrix(0.4,0,0,0.4,4,0)" /></marker><marker
       inkscape:stockid="Arrow1Lstart"
       orient="auto"
       refY="0"
       refX="0"
       id="Arrow1Lstart"
       style="overflow:visible"><path
         id="path5432"
         d="M 0,0 5,-5 -12.5,0 5,5 0,0 z"
         style="fill-rule:evenodd;stroke:#000000;stroke-width:1pt;marker-start:none"
         transform="matrix(0.8,0,0,0.8,10,0)" /></marker><marker
       inkscape:stockid="Arrow2Lend"
       orient="auto"
       refY="0"
       refX="0"
       id="Arrow2Lend"
       style="overflow:visible"><path
         id="path5453"
         style="font-size:12px;fill-rule:evenodd;stroke-width:0.625;stroke-linejoin:round"
         d="M 8.7185878,4.0337352 -2.2072895,0.01601326 8.7185884,-4.0017078 c -1.7454984,2.3720609 -1.7354408,5.6174519 -6e-7,8.035443 z"
         transform="matrix(-1.1,0,0,-1.1,-1.1,0)" /></marker><marker
       inkscape:stockid="Arrow1Lend"
       orient="auto"
       refY="0"
       refX="0"
       id="Arrow1Lend"
       style="overflow:visible"><path
         id="path5435"
         d="M 0,0 5,-5 -12.5,0 5,5 0,0 z"
         style="fill-rule:evenodd;stroke:#000000;stroke-width:1pt;marker-start:none"
         transform="matrix(-0.8,0,0,-0.8,-10,0)" /></marker><inkscape:perspective
       sodipodi:type="inkscape:persp3d"
       inkscape:vp_x="0 : 0.5 : 1"
       inkscape:vp_y="0 : 1000 : 0"
       inkscape:vp_z="1 : 0.5 : 1"
       inkscape:persp3d-origin="0.5 : 0.33333333 : 1"
       id="perspective3745" /><clipPath
       clipPathUnits="userSpaceOnUse"
       id="clipPath3777"><path
         d="m 23.02,489.6 11.52,0 0,0 -11.52,0 z"
         id="path3779" /></clipPath><clipPath
       clipPathUnits="userSpaceOnUse"
       id="clipPath3787"><path
         d="m 23.02,489.6 11.52,0 0,0 -11.52,0 z"
         id="path3789" /></clipPath><clipPath
       clipPathUnits="userSpaceOnUse"
       id="clipPath3801"><path
         d="m 23.02,133.18 11.52,0 0,0 -11.52,0 z"
         id="path3803" /></clipPath><clipPath
       clipPathUnits="userSpaceOnUse"
       id="clipPath3811"><path
         d="m 23.02,23.02 11.52,0 0,110.16 -11.52,0 0,-110.16 z"
         id="path3813" /></clipPath><clipPath
       clipPathUnits="userSpaceOnUse"
       id="clipPath3821"><path
         d="m 23.02,23.02 11.52,0 0,0 -11.52,0 z"
         id="path3823" /></clipPath><clipPath
       clipPathUnits="userSpaceOnUse"
       id="clipPath3831"><path
         d="m 34.54,489.6 0,0 0,0 0,0 z"
         id="path3833" /></clipPath><clipPath
       clipPathUnits="userSpaceOnUse"
       id="clipPath3841"><path
         d="m 34.54,489.6 0,0 0,0 0,0 z"
         id="path3843" /></clipPath><clipPath
       clipPathUnits="userSpaceOnUse"
       id="clipPath3851"><path
         d="m 34.54,133.18 0,0 0,356.42 0,0 0,-356.42 z"
         id="path3853" /></clipPath><clipPath
       clipPathUnits="userSpaceOnUse"
       id="clipPath3861"><path
         d="m 34.54,133.18 0,0 0,0 0,0 z"
         id="path3863" /></clipPath><clipPath
       clipPathUnits="userSpaceOnUse"
       id="clipPath3871"><path
         d="m 34.54,23.02 0,0 0,110.16 0,0 0,-110.16 z"
         id="path3873" /></clipPath><clipPath
       clipPathUnits="userSpaceOnUse"
       id="clipPath3881"><path
         d="m 34.54,23.02 0,0 0,0 0,0 z"
         id="path3883" /></clipPath><clipPath
       clipPathUnits="userSpaceOnUse"
       id="clipPath3891"><path
         d="m 34.54,489.6 455.06,0 0,0 -455.06,0 z"
         id="path3893" /></clipPath><clipPath
       clipPathUnits="userSpaceOnUse"
       id="clipPath3901"><path
         d="m 34.54,489.6 455.06,0 0,0 -455.06,0 z"
         id="path3903" /></clipPath><clipPath
       clipPathUnits="userSpaceOnUse"
       id="clipPath3911"><path
         d="m 34.54,133.18 455.06,0 0,356.42 -455.06,0 0,-356.42 z"
         id="path3913" /></clipPath><clipPath
       clipPathUnits="userSpaceOnUse"
       id="clipPath3921"><path
         d="m 34.54,133.18 455.06,0 0,0 -455.06,0 z"
         id="path3923" /></clipPath><clipPath
       clipPathUnits="userSpaceOnUse"
       id="clipPath3935"><path
         d="m 34.54,23.02 455.06,0 0,0 -455.06,0 z"
         id="path3937" /></clipPath><clipPath
       clipPathUnits="userSpaceOnUse"
       id="clipPath3945"><path
         d="m 489.6,489.6 0,0 0,0 0,0 z"
         id="path3947" /></clipPath><clipPath
       clipPathUnits="userSpaceOnUse"
       id="clipPath3955"><path
         d="m 489.6,489.6 0,0 0,0 0,0 z"
         id="path3957" /></clipPath><clipPath
       clipPathUnits="userSpaceOnUse"
       id="clipPath3965"><path
         d="m 489.6,133.18 0,0 0,356.42 0,0 0,-356.42 z"
         id="path3967" /></clipPath><clipPath
       clipPathUnits="userSpaceOnUse"
       id="clipPath3975"><path
         d="m 489.6,133.18 0,0 0,0 0,0 z"
         id="path3977" /></clipPath><clipPath
       clipPathUnits="userSpaceOnUse"
       id="clipPath3985"><path
         d="m 489.6,23.02 0,0 0,110.16 0,0 0,-110.16 z"
         id="path3987" /></clipPath><clipPath
       clipPathUnits="userSpaceOnUse"
       id="clipPath3995"><path
         d="m 489.6,23.02 0,0 0,0 0,0 z"
         id="path3997" /></clipPath><clipPath
       clipPathUnits="userSpaceOnUse"
       id="clipPath4005"><path
         d="m 489.6,489.6 0,0 0,0 0,0 z"
         id="path4007" /></clipPath><clipPath
       clipPathUnits="userSpaceOnUse"
       id="clipPath4015"><path
         d="m 489.6,489.6 0,0 0,0 0,0 z"
         id="path4017" /></clipPath><clipPath
       clipPathUnits="userSpaceOnUse"
       id="clipPath4025"><path
         d="m 489.6,133.18 0,0 0,356.42 0,0 0,-356.42 z"
         id="path4027" /></clipPath><clipPath
       clipPathUnits="userSpaceOnUse"
       id="clipPath4035"><path
         d="m 489.6,133.18 0,0 0,0 0,0 z"
         id="path4037" /></clipPath><clipPath
       clipPathUnits="userSpaceOnUse"
       id="clipPath4045"><path
         d="m 489.6,23.02 0,0 0,110.16 0,0 0,-110.16 z"
         id="path4047" /></clipPath><clipPath
       clipPathUnits="userSpaceOnUse"
       id="clipPath4055"><path
         d="m 489.6,23.02 0,0 0,0 0,0 z"
         id="path4057" /></clipPath><clipPath
       clipPathUnits="userSpaceOnUse"
       id="clipPath4065"><path
         d="m 489.6,489.6 0,0 0,0 0,0 z"
         id="path4067" /></clipPath><clipPath
       clipPathUnits="userSpaceOnUse"
       id="clipPath4075"><path
         d="m 489.6,489.6 0,0 0,0 0,0 z"
         id="path4077" /></clipPath><clipPath
       clipPathUnits="userSpaceOnUse"
       id="clipPath4085"><path
         d="m 489.6,133.18 0,0 0,356.42 0,0 0,-356.42 z"
         id="path4087" /></clipPath><clipPath
       clipPathUnits="userSpaceOnUse"
       id="clipPath4095"><path
         d="m 489.6,133.18 0,0 0,0 0,0 z"
         id="path4097" /></clipPath><clipPath
       clipPathUnits="userSpaceOnUse"
       id="clipPath4105"><path
         d="m 489.6,23.02 0,0 0,110.16 0,0 0,-110.16 z"
         id="path4107" /></clipPath><clipPath
       clipPathUnits="userSpaceOnUse"
       id="clipPath4115"><path
         d="m 489.6,23.02 0,0 0,0 0,0 z"
         id="path4117" /></clipPath><clipPath
       clipPathUnits="userSpaceOnUse"
       id="clipPath4125"><path
         d="m 23.02,489.6 11.52,0 0,0 -11.52,0 z"
         id="path4127" /></clipPath><clipPath
       clipPathUnits="userSpaceOnUse"
       id="clipPath4135"><path
         d="m 23.02,489.6 11.52,0 0,0 -11.52,0 z"
         id="path4137" /></clipPath><clipPath
       clipPathUnits="userSpaceOnUse"
       id="clipPath4159"><path
         d="m 23.02,133.18 11.52,0 0,0 -11.52,0 z"
         id="path4161" /></clipPath><clipPath
       clipPathUnits="userSpaceOnUse"
       id="clipPath4169"><path
         d="m 23.02,23.02 11.52,0 0,110.16 -11.52,0 0,-110.16 z"
         id="path4171" /></clipPath><clipPath
       clipPathUnits="userSpaceOnUse"
       id="clipPath4179"><path
         d="m 23.02,23.02 11.52,0 0,0 -11.52,0 z"
         id="path4181" /></clipPath><clipPath
       clipPathUnits="userSpaceOnUse"
       id="clipPath4189"><path
         d="m 34.54,489.6 0,0 0,0 0,0 z"
         id="path4191" /></clipPath><clipPath
       clipPathUnits="userSpaceOnUse"
       id="clipPath4199"><path
         d="m 34.54,489.6 0,0 0,0 0,0 z"
         id="path4201" /></clipPath><clipPath
       clipPathUnits="userSpaceOnUse"
       id="clipPath4209"><path
         d="m 34.54,133.18 0,0 0,356.42 0,0 0,-356.42 z"
         id="path4211" /></clipPath><clipPath
       clipPathUnits="userSpaceOnUse"
       id="clipPath4219"><path
         d="m 34.54,133.18 0,0 0,0 0,0 z"
         id="path4221" /></clipPath><clipPath
       clipPathUnits="userSpaceOnUse"
       id="clipPath4229"><path
         d="m 34.54,23.02 0,0 0,110.16 0,0 0,-110.16 z"
         id="path4231" /></clipPath><clipPath
       clipPathUnits="userSpaceOnUse"
       id="clipPath4239"><path
         d="m 34.54,23.02 0,0 0,0 0,0 z"
         id="path4241" /></clipPath><clipPath
       clipPathUnits="userSpaceOnUse"
       id="clipPath4249"><path
         d="m 34.54,489.6 455.06,0 0,0 -455.06,0 z"
         id="path4251" /></clipPath><clipPath
       clipPathUnits="userSpaceOnUse"
       id="clipPath4259"><path
         d="m 34.54,489.6 455.06,0 0,0 -455.06,0 z"
         id="path4261" /></clipPath><clipPath
       clipPathUnits="userSpaceOnUse"
       id="clipPath4269"><path
         d="m 34.54,133.18 455.06,0 0,356.42 -455.06,0 0,-356.42 z"
         id="path4271" /></clipPath><clipPath
       clipPathUnits="userSpaceOnUse"
       id="clipPath4383"><path
         d="m 34.54,133.18 455.06,0 0,0 -455.06,0 z"
         id="path4385" /></clipPath><clipPath
       clipPathUnits="userSpaceOnUse"
       id="clipPath4457"><path
         d="m 34.54,23.02 455.06,0 0,0 -455.06,0 z"
         id="path4459" /></clipPath><clipPath
       clipPathUnits="userSpaceOnUse"
       id="clipPath4467"><path
         d="m 489.6,489.6 0,0 0,0 0,0 z"
         id="path4469" /></clipPath><clipPath
       clipPathUnits="userSpaceOnUse"
       id="clipPath4477"><path
         d="m 489.6,489.6 0,0 0,0 0,0 z"
         id="path4479" /></clipPath><clipPath
       clipPathUnits="userSpaceOnUse"
       id="clipPath4487"><path
         d="m 489.6,133.18 0,0 0,356.42 0,0 0,-356.42 z"
         id="path4489" /></clipPath><clipPath
       clipPathUnits="userSpaceOnUse"
       id="clipPath4497"><path
         d="m 489.6,133.18 0,0 0,0 0,0 z"
         id="path4499" /></clipPath><clipPath
       clipPathUnits="userSpaceOnUse"
       id="clipPath4507"><path
         d="m 489.6,23.02 0,0 0,110.16 0,0 0,-110.16 z"
         id="path4509" /></clipPath><clipPath
       clipPathUnits="userSpaceOnUse"
       id="clipPath4517"><path
         d="m 489.6,23.02 0,0 0,0 0,0 z"
         id="path4519" /></clipPath><clipPath
       clipPathUnits="userSpaceOnUse"
       id="clipPath4527"><path
         d="m 489.6,489.6 0,0 0,0 0,0 z"
         id="path4529" /></clipPath><clipPath
       clipPathUnits="userSpaceOnUse"
       id="clipPath4537"><path
         d="m 489.6,489.6 0,0 0,0 0,0 z"
         id="path4539" /></clipPath><clipPath
       clipPathUnits="userSpaceOnUse"
       id="clipPath4547"><path
         d="m 489.6,133.18 0,0 0,356.42 0,0 0,-356.42 z"
         id="path4549" /></clipPath><clipPath
       clipPathUnits="userSpaceOnUse"
       id="clipPath4557"><path
         d="m 489.6,133.18 0,0 0,0 0,0 z"
         id="path4559" /></clipPath><clipPath
       clipPathUnits="userSpaceOnUse"
       id="clipPath4567"><path
         d="m 489.6,23.02 0,0 0,110.16 0,0 0,-110.16 z"
         id="path4569" /></clipPath><clipPath
       clipPathUnits="userSpaceOnUse"
       id="clipPath4577"><path
         d="m 489.6,23.02 0,0 0,0 0,0 z"
         id="path4579" /></clipPath><clipPath
       clipPathUnits="userSpaceOnUse"
       id="clipPath4587"><path
         d="m 489.6,489.6 0,0 0,0 0,0 z"
         id="path4589" /></clipPath><clipPath
       clipPathUnits="userSpaceOnUse"
       id="clipPath4597"><path
         d="m 489.6,489.6 0,0 0,0 0,0 z"
         id="path4599" /></clipPath><clipPath
       clipPathUnits="userSpaceOnUse"
       id="clipPath4607"><path
         d="m 489.6,133.18 0,0 0,356.42 0,0 0,-356.42 z"
         id="path4609" /></clipPath><clipPath
       clipPathUnits="userSpaceOnUse"
       id="clipPath4617"><path
         d="m 489.6,133.18 0,0 0,0 0,0 z"
         id="path4619" /></clipPath><clipPath
       clipPathUnits="userSpaceOnUse"
       id="clipPath4627"><path
         d="m 489.6,23.02 0,0 0,110.16 0,0 0,-110.16 z"
         id="path4629" /></clipPath><clipPath
       clipPathUnits="userSpaceOnUse"
       id="clipPath4637"><path
         d="m 489.6,23.02 0,0 0,0 0,0 z"
         id="path4639" /></clipPath><inkscape:perspective
       id="perspective9253"
       inkscape:persp3d-origin="0.5 : 0.33333333 : 1"
       inkscape:vp_z="1 : 0.5 : 1"
       inkscape:vp_y="0 : 1000 : 0"
       inkscape:vp_x="0 : 0.5 : 1"
       sodipodi:type="inkscape:persp3d" /><inkscape:perspective
       id="perspective9346"
       inkscape:persp3d-origin="0.5 : 0.33333333 : 1"
       inkscape:vp_z="1 : 0.5 : 1"
       inkscape:vp_y="0 : 1000 : 0"
       inkscape:vp_x="0 : 0.5 : 1"
       sodipodi:type="inkscape:persp3d" /><inkscape:perspective
       id="perspective9346-5"
       inkscape:persp3d-origin="0.5 : 0.33333333 : 1"
       inkscape:vp_z="1 : 0.5 : 1"
       inkscape:vp_y="0 : 1000 : 0"
       inkscape:vp_x="0 : 0.5 : 1"
       sodipodi:type="inkscape:persp3d" /><inkscape:perspective
       id="perspective9346-1"
       inkscape:persp3d-origin="0.5 : 0.33333333 : 1"
       inkscape:vp_z="1 : 0.5 : 1"
       inkscape:vp_y="0 : 1000 : 0"
       inkscape:vp_x="0 : 0.5 : 1"
       sodipodi:type="inkscape:persp3d" /><inkscape:perspective
       id="perspective9346-6"
       inkscape:persp3d-origin="0.5 : 0.33333333 : 1"
       inkscape:vp_z="1 : 0.5 : 1"
       inkscape:vp_y="0 : 1000 : 0"
       inkscape:vp_x="0 : 0.5 : 1"
       sodipodi:type="inkscape:persp3d" /><inkscape:perspective
       id="perspective9346-14"
       inkscape:persp3d-origin="0.5 : 0.33333333 : 1"
       inkscape:vp_z="1 : 0.5 : 1"
       inkscape:vp_y="0 : 1000 : 0"
       inkscape:vp_x="0 : 0.5 : 1"
       sodipodi:type="inkscape:persp3d" /><inkscape:perspective
       id="perspective9346-7"
       inkscape:persp3d-origin="0.5 : 0.33333333 : 1"
       inkscape:vp_z="1 : 0.5 : 1"
       inkscape:vp_y="0 : 1000 : 0"
       inkscape:vp_x="0 : 0.5 : 1"
       sodipodi:type="inkscape:persp3d" /><inkscape:perspective
       id="perspective9346-2"
       inkscape:persp3d-origin="0.5 : 0.33333333 : 1"
       inkscape:vp_z="1 : 0.5 : 1"
       inkscape:vp_y="0 : 1000 : 0"
       inkscape:vp_x="0 : 0.5 : 1"
       sodipodi:type="inkscape:persp3d" /><inkscape:perspective
       id="perspective9346-0"
       inkscape:persp3d-origin="0.5 : 0.33333333 : 1"
       inkscape:vp_z="1 : 0.5 : 1"
       inkscape:vp_y="0 : 1000 : 0"
       inkscape:vp_x="0 : 0.5 : 1"
       sodipodi:type="inkscape:persp3d" /><inkscape:perspective
       id="perspective9346-9"
       inkscape:persp3d-origin="0.5 : 0.33333333 : 1"
       inkscape:vp_z="1 : 0.5 : 1"
       inkscape:vp_y="0 : 1000 : 0"
       inkscape:vp_x="0 : 0.5 : 1"
       sodipodi:type="inkscape:persp3d" /></defs><sodipodi:namedview
     pagecolor="#ffffff"
     bordercolor="#666666"
     borderopacity="1"
     objecttolerance="10"
     gridtolerance="10"
     guidetolerance="10"
     inkscape:pageopacity="0"
     inkscape:pageshadow="2"
     inkscape:window-width="1006"
     inkscape:window-height="549"
     id="namedview3739"
     showgrid="true"
     inkscape:snap-global="true"
     inkscape:snap-midpoints="true"
     inkscape:zoom="1.0595378"
     inkscape:cx="219.50715"
     inkscape:cy="128.871"
     inkscape:window-x="358"
     inkscape:window-y="117"
     inkscape:window-maximized="0"
     inkscape:current-layer="g3747"
     inkscape:object-nodes="true"><inkscape:grid
       type="xygrid"
       id="grid5421"
       empspacing="5"
       visible="true"
       enabled="true"
       snapvisiblegridlinesonly="true" /></sodipodi:namedview><g
     id="g3747"
     inkscape:groupmode="layer"
     inkscape:label="134_interesting_senator_name_accuracy_by_ip_sample"
     transform="matrix(1.25,0,0,-1.25,31.813932,547.96875)"><g
   id="g3749" /><g
   id="g3751" /><g
   id="g3753" /><g
   id="g3755" /><g
   id="g3757" /><g
   id="g3759" /><g
   id="g3761" /><g
   id="g3763" /><g
   id="g3765" /><g
   id="g3767" /><g
   id="g3769" /><g
   id="g3771" /><g
   id="g3773"><g
     id="g3775"
     clip-path="url(#clipPath3777)" /></g><g
   id="g3781" /><g
   id="g3783"><g
     id="g3785"
     clip-path="url(#clipPath3787)" /></g><g
   id="g3791" /><g
   id="g3793" /><g
   id="g3795" /><g
   id="g3797"><g
     id="g3799"
     clip-path="url(#clipPath3801)" /></g><g
   id="g3805" /><g
   id="g3807"><g
     id="g3809"
     clip-path="url(#clipPath3811)" /></g><g
   id="g3815" /><g
   id="g3817"><g
     id="g3819"
     clip-path="url(#clipPath3821)" /></g><g
   id="g3825" /><g
   id="g3827"><g
     id="g3829"
     clip-path="url(#clipPath3831)" /></g><g
   id="g3835" /><g
   id="g3837"><g
     id="g3839"
     clip-path="url(#clipPath3841)" /></g><g
   id="g3845" /><g
   id="g3847"><g
     id="g3849"
     clip-path="url(#clipPath3851)" /></g><g
   id="g3855" /><g
   id="g3857"><g
     id="g3859"
     clip-path="url(#clipPath3861)" /></g><g
   id="g3865" /><g
   id="g3867"><g
     id="g3869"
     clip-path="url(#clipPath3871)" /></g><g
   id="g3875" /><g
   id="g3877"><g
     id="g3879"
     clip-path="url(#clipPath3881)" /></g><g
   id="g3885" /><g
   id="g3887"><g
     id="g3889"
     clip-path="url(#clipPath3891)" /></g><g
   id="g3895" /><g
   id="g3897"><g
     id="g3899"
     clip-path="url(#clipPath3901)" /></g><g
   id="g3905" /><g
   id="g3907"><g
     id="g3909"
     clip-path="url(#clipPath3911)" /></g><g
   id="g3915" /><g
   id="g3917"><g
     id="g3919"
     clip-path="url(#clipPath3921)" /></g><g
   id="g3925" /><g
   id="g3927" /><g
   id="g3929" /><g
   id="g3931"><g
     id="g3933"
     clip-path="url(#clipPath3935)" /></g><g
   id="g3939" /><g
   id="g3941"><g
     id="g3943"
     clip-path="url(#clipPath3945)" /></g><g
   id="g3949" /><g
   id="g3951"><g
     id="g3953"
     clip-path="url(#clipPath3955)" /></g><g
   id="g3959" /><g
   id="g3961"><g
     id="g3963"
     clip-path="url(#clipPath3965)" /></g><g
   id="g3969" /><g
   id="g3971"><g
     id="g3973"
     clip-path="url(#clipPath3975)" /></g><g
   id="g3979" /><g
   id="g3981"><g
     id="g3983"
     clip-path="url(#clipPath3985)" /></g><g
   id="g3989" /><g
   id="g3991"><g
     id="g3993"
     clip-path="url(#clipPath3995)" /></g><g
   id="g3999" /><g
   id="g4001"><g
     id="g4003"
     clip-path="url(#clipPath4005)" /></g><g
   id="g4009" /><g
   id="g4011"><g
     id="g4013"
     clip-path="url(#clipPath4015)" /></g><g
   id="g4019" /><g
   id="g4021"><g
     id="g4023"
     clip-path="url(#clipPath4025)" /></g><g
   id="g4029" /><g
   id="g4031"><g
     id="g4033"
     clip-path="url(#clipPath4035)" /></g><g
   id="g4039" /><g
   id="g4041"><g
     id="g4043"
     clip-path="url(#clipPath4045)" /></g><g
   id="g4049" /><g
   id="g4051"><g
     id="g4053"
     clip-path="url(#clipPath4055)" /></g><g
   id="g4059" /><g
   id="g4061"><g
     id="g4063"
     clip-path="url(#clipPath4065)" /></g><g
   id="g4069" /><g
   id="g4071"><g
     id="g4073"
     clip-path="url(#clipPath4075)" /></g><g
   id="g4079" /><g
   id="g4081"><g
     id="g4083"
     clip-path="url(#clipPath4085)" /></g><g
   id="g4089" /><g
   id="g4091"><g
     id="g4093"
     clip-path="url(#clipPath4095)" /></g><g
   id="g4099" /><g
   id="g4101"><g
     id="g4103"
     clip-path="url(#clipPath4105)" /></g><g
   id="g4109" /><g
   id="g4111"><g
     id="g4113"
     clip-path="url(#clipPath4115)" /></g><g
   id="g4119" /><g
   id="g4121"><g
     id="g4123"
     clip-path="url(#clipPath4125)" /></g><g
   id="g4129" /><g
   id="g4131"><g
     id="g4133"
     clip-path="url(#clipPath4135)" /></g><g
   id="g4139" /><g
   id="g4153" /><g
   id="g4155"><g
     id="g4157"
     clip-path="url(#clipPath4159)" /></g><g
   id="g4163" /><g
   id="g4165"><g
     id="g4167"
     clip-path="url(#clipPath4169)" /></g><g
   id="g4173" /><g
   id="g4175"><g
     id="g4177"
     clip-path="url(#clipPath4179)" /></g><g
   id="g4183" /><g
   id="g4185"><g
     id="g4187"
     clip-path="url(#clipPath4189)" /></g><g
   id="g4193" /><g
   id="g4195"><g
     id="g4197"
     clip-path="url(#clipPath4199)" /></g><g
   id="g4203" /><g
   id="g4205"><g
     id="g4207"
     clip-path="url(#clipPath4209)" /></g><g
   id="g4213" /><g
   id="g4215"><g
     id="g4217"
     clip-path="url(#clipPath4219)" /></g><g
   id="g4223" /><g
   id="g4225"><g
     id="g4227"
     clip-path="url(#clipPath4229)" /></g><g
   id="g4233" /><g
   id="g4235"><g
     id="g4237"
     clip-path="url(#clipPath4239)" /></g><g
   id="g4243" /><g
   id="g4245"><g
     id="g4247"
     clip-path="url(#clipPath4249)" /></g><g
   id="g4253" /><g
   id="g4255"><g
     id="g4257"
     clip-path="url(#clipPath4259)" /></g><g
   id="g4263" /><g
   id="g4265"
   transform="matrix(1,0,0,0.31223773,0,102.79618)"><g
     id="g4267"
     clip-path="url(#clipPath4269)"><path
       d="m 34.54,133.18 455.06,0 0,356.42 -455.06,0 0,-356.42 z"
       style="fill:#ffffff;fill-opacity:1;fill-rule:nonzero;stroke:none"
       id="path4273" /><path
       d="m 34.54,149.38 455.06,0"
       style="fill:none;stroke:#fafafa;stroke-width:1.05999994;stroke-linecap:round;stroke-linejoin:round;stroke-miterlimit:10;stroke-opacity:1;stroke-dasharray:none"
       id="path4275" /><path
       d="m 34.54,185.48 455.06,0"
       style="fill:none;stroke:#fafafa;stroke-width:1.05999994;stroke-linecap:round;stroke-linejoin:round;stroke-miterlimit:10;stroke-opacity:1;stroke-dasharray:none"
       id="path4277" /><path
       d="m 34.54,221.57 455.06,0"
       style="fill:none;stroke:#fafafa;stroke-width:1.05999994;stroke-linecap:round;stroke-linejoin:round;stroke-miterlimit:10;stroke-opacity:1;stroke-dasharray:none"
       id="path4279" /><path
       d="m 34.54,257.67 455.06,0"
       style="fill:none;stroke:#fafafa;stroke-width:1.05999994;stroke-linecap:round;stroke-linejoin:round;stroke-miterlimit:10;stroke-opacity:1;stroke-dasharray:none"
       id="path4281" /><path
       d="m 34.54,293.77 455.06,0"
       style="fill:none;stroke:#fafafa;stroke-width:1.05999994;stroke-linecap:round;stroke-linejoin:round;stroke-miterlimit:10;stroke-opacity:1;stroke-dasharray:none"
       id="path4283" /><path
       d="m 34.54,329.87 455.06,0"
       style="fill:none;stroke:#fafafa;stroke-width:1.05999994;stroke-linecap:round;stroke-linejoin:round;stroke-miterlimit:10;stroke-opacity:1;stroke-dasharray:none"
       id="path4285" /><path
       d="m 34.54,365.96 455.06,0"
       style="fill:none;stroke:#fafafa;stroke-width:1.05999994;stroke-linecap:round;stroke-linejoin:round;stroke-miterlimit:10;stroke-opacity:1;stroke-dasharray:none"
       id="path4287" /><path
       d="m 34.54,402.06 455.06,0"
       style="fill:none;stroke:#fafafa;stroke-width:1.05999994;stroke-linecap:round;stroke-linejoin:round;stroke-miterlimit:10;stroke-opacity:1;stroke-dasharray:none"
       id="path4289" /><path
       d="m 34.54,438.16 455.06,0"
       style="fill:none;stroke:#fafafa;stroke-width:1.05999994;stroke-linecap:round;stroke-linejoin:round;stroke-miterlimit:10;stroke-opacity:1;stroke-dasharray:none"
       id="path4291" /><path
       d="m 34.54,474.26 455.06,0"
       style="fill:none;stroke:#fafafa;stroke-width:1.05999994;stroke-linecap:round;stroke-linejoin:round;stroke-miterlimit:10;stroke-opacity:1;stroke-dasharray:none"
       id="path4293" /><path
       d="m 34.54,149.38 455.06,0"
       style="fill:none;stroke:#e5e5e5;stroke-width:0.43000001;stroke-linecap:round;stroke-linejoin:round;stroke-miterlimit:10;stroke-opacity:1;stroke-dasharray:none"
       id="path4337" /><path
       d="m 34.54,221.57 455.06,0"
       style="fill:none;stroke:#e5e5e5;stroke-width:0.43000001;stroke-linecap:round;stroke-linejoin:round;stroke-miterlimit:10;stroke-opacity:1;stroke-dasharray:none"
       id="path4339" /><path
       d="m 34.54,293.77 455.06,0"
       style="fill:none;stroke:#e5e5e5;stroke-width:0.43000001;stroke-linecap:round;stroke-linejoin:round;stroke-miterlimit:10;stroke-opacity:1;stroke-dasharray:none"
       id="path4341" /><path
       d="m 34.54,365.96 455.06,0"
       style="fill:none;stroke:#e5e5e5;stroke-width:0.43000001;stroke-linecap:round;stroke-linejoin:round;stroke-miterlimit:10;stroke-opacity:1;stroke-dasharray:none"
       id="path4343" /><path
       d="m 34.54,438.16 455.06,0"
       style="fill:none;stroke:#e5e5e5;stroke-width:0.43000001;stroke-linecap:round;stroke-linejoin:round;stroke-miterlimit:10;stroke-opacity:1;stroke-dasharray:none"
       id="path4345" /><path
       d="m 55.22,149.38 0.81,0 0.81,0 0.81,0 0.81,0 0.81,0 0.81,0 0.81,0 0.81,0 0.81,0 0.81,0 0.81,0 0.81,0 0.81,0 0.8,0 0.81,0 0.81,0 0.81,0 0.81,0 0.81,0 0.81,0 0.81,0 0.81,0 0.81,0 0.81,0 0.81,0 0.81,0 0.81,0 0.81,0 0.81,0 0.81,0 0.81,0 0.81,0 0.81,0 0.81,0 0.81,0 0.81,0 0.81,0 0.8,0 0.81,0 0.81,0 0.81,0 0.81,0 0.81,0 0.81,0 0.81,0 0.81,0 0.81,0 0.81,0 0.81,0 0.81,0 0.81,0 0.81,0 0.81,0 0.81,0 0.81,0 0.81,0 0.81,0 0.81,0 0.81,0 0.81,0 0.81,0 0.8,0 0.81,0 0.81,0 0.81,0 0.81,0 0.81,0 0.81,0 0.81,0 0.81,0 0.81,0 0.81,0 0.81,0 0.81,0 0.81,0 0.81,0 0.81,0 0.81,0 0.81,0 0.81,0 0.81,0 0.81,0 0.81,0 0.81,0 0.8,0 0.81,0 0.81,0 0.81,0 0.81,0 0.81,0 0.81,0 0.81,0 0.81,0 0.81,0 0.81,0 0.81,0 0.81,0 0.81,0 0.81,0 0.81,0 0.81,0 0.81,0 0.81,0 0.81,0 0.81,0 0.81,0 0.81,0 0.81,0 0.8,0 0.81,0 0.81,0 0.81,0 0.81,0 0.81,0 0.81,0 0.81,0 0.81,0 0.81,0 0.81,0 0.81,0 0.81,0 0.81,0 0.81,0 0.81,0 0.81,0 0.81,0 0.81,0 0.81,0 0.81,0 0.81,0 0.81,0 0.81,0 0.8,0 0.81,0 0.81,0 0.81,0 0.81,0 0.81,0 0.81,0 0.81,0 0.81,0 0.81,0 0.81,0 0.81,0 0.81,0 0.81,0 0.81,0 0.81,0 0.81,0 0.81,0 0.81,0 0.81,0 0.81,0 0.81,0 0.81,0 0.8,0 0.81,0 0.81,0 0.81,0 0.81,0 0.81,0 0.81,0 0.81,0.01 0.81,0 0.81,0 0.81,0.01 0.81,0.01 0.81,0.01 0.81,0.01 0.81,0.01 0.81,0.02 0.81,0.02 0.81,0.03 0.81,0.03 0.81,0.04 0.81,0.05 0.81,0.06 0.81,0.07 0.81,0.08 0.8,0.09 0.81,0.12 0.81,0.12 0.81,0.15 0.81,0.16 0.81,0.19 0.81,0.2 0.81,0.24 0.81,0.25 0.81,0.28 0.81,0.3 0.81,0.33 0.81,0.35 0.81,0.37 0.81,0.4 0.81,0.43 0.81,0.44 0.81,0.46 0.81,0.49 0.81,0.51 0.81,0.53 0.81,0.55 0.81,0.58 0.81,0.61 0.8,0.64 0.81,0.68 0.81,0.73 0.81,0.77 0.81,0.84 0.81,0.9 0.81,0.97 0.81,1.06 0.81,1.17 0.81,1.29 0.81,1.4 0.81,1.53 0.81,1.67 0.81,1.81 0.81,1.98 0.81,2.16 0.81,2.32 0.81,2.49 0.81,2.65 0.81,2.82 0.81,2.99 0.81,3.16 0.81,3.31 0.81,3.43 0.8,3.55 0.81,3.64 0.81,3.73 0.81,3.81 0.81,3.84 0.81,3.85 0.81,3.86 0.81,3.83 0.81,3.8 0.81,3.73 0.81,3.66 0.81,3.56 0.81,3.47 0.81,3.36 0.81,3.27 0.81,3.15 0.81,3.03 0.81,2.94 0.81,2.85 0.81,2.78 0.81,2.71 0.81,2.66 0.81,2.63 0.8,2.61 0.81,2.61 0.81,2.62 0.81,2.65 0.81,2.68 0.81,2.74 0.81,2.79 0.81,2.85 0.81,2.9 0.81,2.97 0.81,3.01 0.81,3.06 0.81,3.09 0.81,3.12 0.81,3.13 0.81,3.12 0.81,3.09 0.81,3.06 0.81,2.99 0.81,2.91 0.81,2.82 0.81,2.7 0.81,2.58 0.81,2.44 0.8,2.27 0.81,2.09 0.81,1.9 0.81,1.73 0.81,1.53 0.81,1.33 0.81,1.13 0.81,0.88 0.81,0.67 0.81,0.46 0.81,0.25 0.81,0.05 0.81,-0.15 0.81,-0.39 0.81,-0.6 0.81,-0.78 0.81,-0.96 0.81,-1.14 0.81,-1.31 0.81,-1.48 0.81,-1.63 0.81,-1.77 0.81,-1.88 0.81,-1.99 0.8,-2.08 0.81,-2.17 0.81,-2.24 0.81,-2.3 0.81,-2.34 0.81,-2.37 0.81,-2.41 0.81,-2.43 0.81,-2.46 0.81,-2.48 0.81,-2.51 0.81,-2.53 0.81,-2.56 0.81,-2.6 0.81,-2.65 0.81,-2.71 0.81,-2.76 0.81,-2.83 0.81,-2.9 0.81,-2.98 0.81,-3.05 0.81,-3.14 0.81,-3.22 0.8,-3.28 0.81,-3.35 0.81,-3.4 0.81,-3.45 0.81,-3.49 0.81,-3.5 0.81,-3.51 0.81,-3.5 0.81,-3.47 0.81,-3.44 0.81,-3.38 0.81,-3.31 0.81,-3.22 0.81,-3.15 0.81,-3.04 0.81,-2.95 0.81,-2.84 0.81,-2.7 0.81,-2.58 0.81,-2.47 0.81,-2.36 0.81,-2.24 0.81,-2.12 0.81,-2 0.8,-1.88 0.81,-1.77 0.81,-1.66 0.81,-1.57 0.81,-1.46 0.81,-1.36 0.81,-1.25 0.81,-1.15 0.81,-1.05 0.81,-0.96 0.81,-0.86 0.81,-0.78 0.81,-0.65 0.81,-0.57 0.81,-0.48 0.81,-0.39 0.81,-0.31 0.81,-0.23 0.81,-0.15 0.81,-0.09 0.81,-0.03 0.81,0.01 0.81,0.04 0.81,0.06 0.8,0.07 0.81,0.06 0.81,0.03 0.81,-0.01 0.81,-0.06 0.81,-0.13 0.81,-0.2 0.81,-0.31 0.81,-0.41 0.81,-0.52 0.81,-0.63 0.81,-0.75 0.81,-0.86 0.81,-1 0.81,-1.12 0.81,-1.22 0.81,-1.32 0.81,-1.4 0.81,-1.49 0.81,-1.55 0.81,-1.61 0.81,-1.64 0.81,-1.66 0.81,-1.66 0.8,-1.66 0.81,-1.64 0.81,-1.59 0.81,-1.55 0.81,-1.49 0.81,-1.43 0.81,-1.37 0.81,-1.28 0.81,-1.2 0.81,-1.11 0.81,-1.03 0.81,-0.96 0.81,-0.87 0.81,-0.81 0.81,-0.73 0.81,-0.64 0.81,-0.59 0.81,-0.53 0.81,-0.48 0.81,-0.43 0.81,-0.38 0.81,-0.34 0.81,-0.29 0.8,-0.26 0.81,-0.22 0.81,-0.2 0.81,-0.17 0.81,-0.14 0.81,-0.11 0.81,-0.09 0.81,-0.06 0.81,-0.05 0.81,-0.04 0.81,-0.02 0.81,0 0.81,0 0.81,0.01 0.81,0.02 0.81,0.02 0.81,0.02 0.81,0.02 0.81,0.01 0.81,0.02 0.81,0.01 0.81,0.01 0.81,0.01 0.81,0 0.8,0.02 0.81,0.01 0.81,0.02 0.81,0.04 0.81,0.04 0.81,0.07 0.81,0.09 0.81,0.11 0.81,0.14 0.81,0.17 0.81,0.19 0.81,0.23 0.81,0.25 0.81,0.29 0.81,0.31 0.81,0.33 0.81,0.35 0.81,0.37 0.81,0.37 0.81,0.37 0.81,0.36 0.81,0.35 0.81,0.33 0.81,0.31 0.8,0.28 0.81,0.23 0.81,0.19 0.81,0.15 0.81,0.11 0.81,0.06 0.81,0.01 0.81,-0.04 0.81,-0.08 0.81,-0.13 0.81,-0.16 0.81,-0.18 0.81,-0.22 0.81,-0.24 0.81,-0.25 0.81,-0.26 0.81,-0.27 0.81,-0.26 0.81,-0.26 0.81,-0.26 0.81,-0.24 0.81,-0.22 0.81,-0.21 0.8,-0.19 0.81,-0.17 0.81,-0.16 0.81,-0.14 0.81,-0.12 0.81,-0.11 0.81,-0.1 0.81,-0.08 0.81,-0.08 0.81,-0.07 0.81,-0.06 0.81,-0.06 0.81,-0.06 0.81,-0.06 0.81,-0.06 0.81,-0.06 0.81,-0.07 0.81,-0.08 0.81,-0.08 0.81,-0.1 0.81,-0.1 0.81,-0.11 0.81,-0.13 0.81,-0.13 0,-4.32 -0.81,0 -0.81,0 -0.81,0 -0.81,0 -0.81,0 -0.81,0 -0.81,0 -0.81,0 -0.81,0 -0.81,0 -0.81,0 -0.81,0 -0.81,0 -0.81,0 -0.81,0 -0.81,0 -0.81,0 -0.81,0 -0.81,0 -0.81,0 -0.81,0 -0.81,0 -0.81,0 -0.8,0 -0.81,0 -0.81,0 -0.81,0 -0.81,0 -0.81,0 -0.81,0 -0.81,0 -0.81,0 -0.81,0 -0.81,0 -0.81,0 -0.81,0 -0.81,0 -0.81,0 -0.81,0 -0.81,0 -0.81,0 -0.81,0 -0.81,0 -0.81,0 -0.81,0 -0.81,0 -0.8,0 -0.81,0 -0.81,0 -0.81,0 -0.81,0 -0.81,0 -0.81,0 -0.81,0 -0.81,0 -0.81,0 -0.81,0 -0.81,0 -0.81,0 -0.81,0 -0.81,0 -0.81,0 -0.81,0 -0.81,0 -0.81,0 -0.81,0 -0.81,0 -0.81,0 -0.81,0 -0.81,0 -0.8,0 -0.81,0 -0.81,0 -0.81,0 -0.81,0 -0.81,0 -0.81,0 -0.81,0 -0.81,0 -0.81,0 -0.81,0 -0.81,0 -0.81,0 -0.81,0 -0.81,0 -0.81,0 -0.81,0 -0.81,0 -0.81,0 -0.81,0 -0.81,0 -0.81,0 -0.81,0 -0.81,0 -0.8,0 -0.81,0 -0.81,0 -0.81,0 -0.81,0 -0.81,0 -0.81,0 -0.81,0 -0.81,0 -0.81,0 -0.81,0 -0.81,0 -0.81,0 -0.81,0 -0.81,0 -0.81,0 -0.81,0 -0.81,0 -0.81,0 -0.81,0 -0.81,0 -0.81,0 -0.81,0 -0.8,0 -0.81,0 -0.81,0 -0.81,0 -0.81,0 -0.81,0 -0.81,0 -0.81,0 -0.81,0 -0.81,0 -0.81,0 -0.81,0 -0.81,0 -0.81,0 -0.81,0 -0.81,0 -0.81,0 -0.81,0 -0.81,0 -0.81,0 -0.81,0 -0.81,0 -0.81,0 -0.81,0 -0.8,0 -0.81,0 -0.81,0 -0.81,0 -0.81,0 -0.81,0 -0.81,0 -0.81,0 -0.81,0 -0.81,0 -0.81,0 -0.81,0 -0.81,0 -0.81,0 -0.81,0 -0.81,0 -0.81,0 -0.81,0 -0.81,0 -0.81,0 -0.81,0 -0.81,0 -0.81,0 -0.81,0 -0.8,0 -0.81,0 -0.81,0 -0.81,0 -0.81,0 -0.81,0 -0.81,0 -0.81,0 -0.81,0 -0.81,0 -0.81,0 -0.81,0 -0.81,0 -0.81,0 -0.81,0 -0.81,0 -0.81,0 -0.81,0 -0.81,0 -0.81,0 -0.81,0 -0.81,0 -0.81,0 -0.81,0 -0.8,0 -0.81,0 -0.81,0 -0.81,0 -0.81,0 -0.81,0 -0.81,0 -0.81,0 -0.81,0 -0.81,0 -0.81,0 -0.81,0 -0.81,0 -0.81,0 -0.81,0 -0.81,0 -0.81,0 -0.81,0 -0.81,0 -0.81,0 -0.81,0 -0.81,0 -0.81,0 -0.8,0 -0.81,0 -0.81,0 -0.81,0 -0.81,0 -0.81,0 -0.81,0 -0.81,0 -0.81,0 -0.81,0 -0.81,0 -0.81,0 -0.81,0 -0.81,0 -0.81,0 -0.81,0 -0.81,0 -0.81,0 -0.81,0 -0.81,0 -0.81,0 -0.81,0 -0.81,0 -0.81,0 -0.8,0 -0.81,0 -0.81,0 -0.81,0 -0.81,0 -0.81,0 -0.81,0 -0.81,0 -0.81,0 -0.81,0 -0.81,0 -0.81,0 -0.81,0 -0.81,0 -0.81,0 -0.81,0 -0.81,0 -0.81,0 -0.81,0 -0.81,0 -0.81,0 -0.81,0 -0.81,0 -0.81,0 -0.8,0 -0.81,0 -0.81,0 -0.81,0 -0.81,0 -0.81,0 -0.81,0 -0.81,0 -0.81,0 -0.81,0 -0.81,0 -0.81,0 -0.81,0 -0.81,0 -0.81,0 -0.81,0 -0.81,0 -0.81,0 -0.81,0 -0.81,0 -0.81,0 -0.81,0 -0.81,0 -0.8,0 -0.81,0 -0.81,0 -0.81,0 -0.81,0 -0.81,0 -0.81,0 -0.81,0 -0.81,0 -0.81,0 -0.81,0 -0.81,0 -0.81,0 -0.81,0 -0.81,0 -0.81,0 -0.81,0 -0.81,0 -0.81,0 -0.81,0 -0.81,0 -0.81,0 -0.81,0 -0.81,0 -0.8,0 -0.81,0 -0.81,0 -0.81,0 -0.81,0 -0.81,0 -0.81,0 -0.81,0 -0.81,0 -0.81,0 -0.81,0 -0.81,0 -0.81,0 -0.81,0 -0.81,0 -0.81,0 -0.81,0 -0.81,0 -0.81,0 -0.81,0 -0.81,0 -0.81,0 -0.81,0 -0.81,0 -0.8,0 -0.81,0 -0.81,0 -0.81,0 -0.81,0 -0.81,0 -0.81,0 -0.81,0 -0.81,0 -0.81,0 -0.81,0 -0.81,0 -0.81,0 -0.81,0 -0.81,0 -0.81,0 -0.81,0 -0.81,0 -0.81,0 -0.81,0 -0.81,0 -0.81,0 -0.81,0 -0.81,0 -0.8,0 -0.81,0 -0.81,0 -0.81,0 -0.81,0 -0.81,0 -0.81,0 -0.81,0 -0.81,0 -0.81,0 -0.81,0 -0.81,0 -0.81,0 -0.81,0 -0.81,0 -0.81,0 -0.81,0 -0.81,0 -0.81,0 -0.81,0 -0.81,0 -0.81,0 -0.81,0 -0.8,0 -0.81,0 -0.81,0 -0.81,0 -0.81,0 -0.81,0 -0.81,0 -0.81,0 -0.81,0 -0.81,0 -0.81,0 -0.81,0 -0.81,0 -0.81,0 -0.81,0 -0.81,0 -0.81,0 -0.81,0 -0.81,0 -0.81,0 -0.81,0 -0.81,0 -0.81,0 -0.81,0 -0.8,0 -0.81,0 -0.81,0 -0.81,0 -0.81,0 -0.81,0 -0.81,0 -0.81,0 -0.81,0 -0.81,0 -0.81,0 -0.81,0 -0.81,0 -0.81,0 -0.81,0 -0.81,0 -0.81,0 -0.81,0 -0.81,0 -0.81,0 -0.81,0 -0.81,0 -0.81,0 -0.81,0 -0.8,0 -0.81,0 -0.81,0 -0.81,0 -0.81,0 -0.81,0 -0.81,0 -0.81,0 -0.81,0 -0.81,0 -0.81,0 -0.81,0 -0.81,0 -0.81,0 -0.81,0 -0.81,0 -0.81,0 -0.81,0 -0.81,0 -0.81,0 -0.81,0 -0.81,0 -0.81,0 -0.8,0 -0.81,0 -0.81,0 -0.81,0 -0.81,0 -0.81,0 -0.81,0 -0.81,0 -0.81,0 -0.81,0 -0.81,0 -0.81,0 -0.81,0 -0.81,0 -0.81,0 -0.81,0 -0.81,0 -0.81,0 -0.81,0 -0.81,0 -0.81,0 -0.81,0 -0.81,0 -0.81,0 -0.8,0 -0.81,0 -0.81,0 -0.81,0 -0.81,0 -0.81,0 -0.81,0 -0.81,0 -0.81,0 -0.81,0 -0.81,0 -0.81,0 -0.81,0 -0.81,0 -0.81,0 -0.81,0 -0.81,0 -0.81,0 -0.81,0 -0.81,0 -0.81,0 -0.81,0 -0.81,0 -0.81,0 -0.8,0 -0.81,0 -0.81,0 -0.81,0 -0.81,0 -0.81,0 -0.81,0 -0.81,0 -0.81,0 -0.81,0 -0.81,0 -0.81,0 -0.81,0 -0.81,0 z"
       style="fill:#f8766d;fill-opacity:0.25100002;fill-rule:nonzero;stroke:none"
       id="path4367" /><path
       d="m 55.22,149.38 0.81,0 0.81,0 0.81,0 0.81,0 0.81,0 0.81,0 0.81,0 0.81,0 0.81,0 0.81,0 0.81,0 0.81,0 0.81,0 0.8,0 0.81,0 0.81,0 0.81,0 0.81,0 0.81,0 0.81,0 0.81,0 0.81,0 0.81,0 0.81,0 0.81,0 0.81,0 0.81,0 0.81,0 0.81,0 0.81,0 0.81,0 0.81,0 0.81,0 0.81,0 0.81,0 0.81,0 0.81,0 0.8,0 0.81,0 0.81,0 0.81,0 0.81,0 0.81,0 0.81,0 0.81,0 0.81,0 0.81,0 0.81,0 0.81,0 0.81,0 0.81,0 0.81,0 0.81,0 0.81,0 0.81,0 0.81,0 0.81,0 0.81,0 0.81,0 0.81,0 0.81,0 0.8,0 0.81,0 0.81,0 0.81,0 0.81,0 0.81,0 0.81,0 0.81,0 0.81,0 0.81,0 0.81,0 0.81,0 0.81,0 0.81,0 0.81,0 0.81,0 0.81,0 0.81,0 0.81,0 0.81,0 0.81,0 0.81,0 0.81,0 0.8,0 0.81,0 0.81,0 0.81,0 0.81,0 0.81,0 0.81,0 0.81,0 0.81,0 0.81,0 0.81,0 0.81,0 0.81,0 0.81,0 0.81,0 0.81,0 0.81,0 0.81,0 0.81,0 0.81,0 0.81,0 0.81,0 0.81,0 0.81,0 0.8,0 0.81,0 0.81,0 0.81,0 0.81,0 0.81,0 0.81,0 0.81,0 0.81,0 0.81,0 0.81,0 0.81,0 0.81,0 0.81,0 0.81,0 0.81,0 0.81,0 0.81,0 0.81,0 0.81,0 0.81,0 0.81,0 0.81,0 0.81,0 0.8,0 0.81,0 0.81,0 0.81,0 0.81,0 0.81,0 0.81,0 0.81,0 0.81,0 0.81,0 0.81,0 0.81,0 0.81,0 0.81,0 0.81,0 0.81,0 0.81,0 0.81,0 0.81,0 0.81,0 0.81,0 0.81,0 0.81,0 0.8,0 0.81,0 0.81,0 0.81,0 0.81,0 0.81,0 0.81,0 0.81,0.01 0.81,0 0.81,0 0.81,0.01 0.81,0.01 0.81,0.01 0.81,0.01 0.81,0.01 0.81,0.02 0.81,0.02 0.81,0.03 0.81,0.03 0.81,0.04 0.81,0.05 0.81,0.06 0.81,0.07 0.81,0.08 0.8,0.09 0.81,0.12 0.81,0.12 0.81,0.15 0.81,0.16 0.81,0.19 0.81,0.2 0.81,0.24 0.81,0.25 0.81,0.28 0.81,0.3 0.81,0.33 0.81,0.35 0.81,0.37 0.81,0.4 0.81,0.43 0.81,0.44 0.81,0.46 0.81,0.49 0.81,0.51 0.81,0.53 0.81,0.55 0.81,0.58 0.81,0.61 0.8,0.64 0.81,0.68 0.81,0.73 0.81,0.77 0.81,0.84 0.81,0.9 0.81,0.97 0.81,1.06 0.81,1.17 0.81,1.29 0.81,1.4 0.81,1.53 0.81,1.67 0.81,1.81 0.81,1.98 0.81,2.16 0.81,2.32 0.81,2.49 0.81,2.65 0.81,2.82 0.81,2.99 0.81,3.16 0.81,3.31 0.81,3.43 0.8,3.55 0.81,3.64 0.81,3.73 0.81,3.81 0.81,3.84 0.81,3.85 0.81,3.86 0.81,3.83 0.81,3.8 0.81,3.73 0.81,3.66 0.81,3.56 0.81,3.47 0.81,3.36 0.81,3.27 0.81,3.15 0.81,3.03 0.81,2.94 0.81,2.85 0.81,2.78 0.81,2.71 0.81,2.66 0.81,2.63 0.8,2.61 0.81,2.61 0.81,2.62 0.81,2.65 0.81,2.68 0.81,2.74 0.81,2.79 0.81,2.85 0.81,2.9 0.81,2.97 0.81,3.01 0.81,3.06 0.81,3.09 0.81,3.12 0.81,3.13 0.81,3.12 0.81,3.09 0.81,3.06 0.81,2.99 0.81,2.91 0.81,2.82 0.81,2.7 0.81,2.58 0.81,2.44 0.8,2.27 0.81,2.09 0.81,1.9 0.81,1.73 0.81,1.53 0.81,1.33 0.81,1.13 0.81,0.88 0.81,0.67 0.81,0.46 0.81,0.25 0.81,0.05 0.81,-0.15 0.81,-0.39 0.81,-0.6 0.81,-0.78 0.81,-0.96 0.81,-1.14 0.81,-1.31 0.81,-1.48 0.81,-1.63 0.81,-1.77 0.81,-1.88 0.81,-1.99 0.8,-2.08 0.81,-2.17 0.81,-2.24 0.81,-2.3 0.81,-2.34 0.81,-2.37 0.81,-2.41 0.81,-2.43 0.81,-2.46 0.81,-2.48 0.81,-2.51 0.81,-2.53 0.81,-2.56 0.81,-2.6 0.81,-2.65 0.81,-2.71 0.81,-2.76 0.81,-2.83 0.81,-2.9 0.81,-2.98 0.81,-3.05 0.81,-3.14 0.81,-3.22 0.8,-3.28 0.81,-3.35 0.81,-3.4 0.81,-3.45 0.81,-3.49 0.81,-3.5 0.81,-3.51 0.81,-3.5 0.81,-3.47 0.81,-3.44 0.81,-3.38 0.81,-3.31 0.81,-3.22 0.81,-3.15 0.81,-3.04 0.81,-2.95 0.81,-2.84 0.81,-2.7 0.81,-2.58 0.81,-2.47 0.81,-2.36 0.81,-2.24 0.81,-2.12 0.81,-2 0.8,-1.88 0.81,-1.77 0.81,-1.66 0.81,-1.57 0.81,-1.46 0.81,-1.36 0.81,-1.25 0.81,-1.15 0.81,-1.05 0.81,-0.96 0.81,-0.86 0.81,-0.78 0.81,-0.65 0.81,-0.57 0.81,-0.48 0.81,-0.39 0.81,-0.31 0.81,-0.23 0.81,-0.15 0.81,-0.09 0.81,-0.03 0.81,0.01 0.81,0.04 0.81,0.06 0.8,0.07 0.81,0.06 0.81,0.03 0.81,-0.01 0.81,-0.06 0.81,-0.13 0.81,-0.2 0.81,-0.31 0.81,-0.41 0.81,-0.52 0.81,-0.63 0.81,-0.75 0.81,-0.86 0.81,-1 0.81,-1.12 0.81,-1.22 0.81,-1.32 0.81,-1.4 0.81,-1.49 0.81,-1.55 0.81,-1.61 0.81,-1.64 0.81,-1.66 0.81,-1.66 0.8,-1.66 0.81,-1.64 0.81,-1.59 0.81,-1.55 0.81,-1.49 0.81,-1.43 0.81,-1.37 0.81,-1.28 0.81,-1.2 0.81,-1.11 0.81,-1.03 0.81,-0.96 0.81,-0.87 0.81,-0.81 0.81,-0.73 0.81,-0.64 0.81,-0.59 0.81,-0.53 0.81,-0.48 0.81,-0.43 0.81,-0.38 0.81,-0.34 0.81,-0.29 0.8,-0.26 0.81,-0.22 0.81,-0.2 0.81,-0.17 0.81,-0.14 0.81,-0.11 0.81,-0.09 0.81,-0.06 0.81,-0.05 0.81,-0.04 0.81,-0.02 0.81,0 0.81,0 0.81,0.01 0.81,0.02 0.81,0.02 0.81,0.02 0.81,0.02 0.81,0.01 0.81,0.02 0.81,0.01 0.81,0.01 0.81,0.01 0.81,0 0.8,0.02 0.81,0.01 0.81,0.02 0.81,0.04 0.81,0.04 0.81,0.07 0.81,0.09 0.81,0.11 0.81,0.14 0.81,0.17 0.81,0.19 0.81,0.23 0.81,0.25 0.81,0.29 0.81,0.31 0.81,0.33 0.81,0.35 0.81,0.37 0.81,0.37 0.81,0.37 0.81,0.36 0.81,0.35 0.81,0.33 0.81,0.31 0.8,0.28 0.81,0.23 0.81,0.19 0.81,0.15 0.81,0.11 0.81,0.06 0.81,0.01 0.81,-0.04 0.81,-0.08 0.81,-0.13 0.81,-0.16 0.81,-0.18 0.81,-0.22 0.81,-0.24 0.81,-0.25 0.81,-0.26 0.81,-0.27 0.81,-0.26 0.81,-0.26 0.81,-0.26 0.81,-0.24 0.81,-0.22 0.81,-0.21 0.8,-0.19 0.81,-0.17 0.81,-0.16 0.81,-0.14 0.81,-0.12 0.81,-0.11 0.81,-0.1 0.81,-0.08 0.81,-0.08 0.81,-0.07 0.81,-0.06 0.81,-0.06 0.81,-0.06 0.81,-0.06 0.81,-0.06 0.81,-0.06 0.81,-0.07 0.81,-0.08 0.81,-0.08 0.81,-0.1 0.81,-0.1 0.81,-0.11 0.81,-0.13 0.81,-0.13 0,-4.32 -0.81,0 -0.81,0 -0.81,0 -0.81,0 -0.81,0 -0.81,0 -0.81,0 -0.81,0 -0.81,0 -0.81,0 -0.81,0 -0.81,0 -0.81,0 -0.81,0 -0.81,0 -0.81,0 -0.81,0 -0.81,0 -0.81,0 -0.81,0 -0.81,0 -0.81,0 -0.81,0 -0.8,0 -0.81,0 -0.81,0 -0.81,0 -0.81,0 -0.81,0 -0.81,0 -0.81,0 -0.81,0 -0.81,0 -0.81,0 -0.81,0 -0.81,0 -0.81,0 -0.81,0 -0.81,0 -0.81,0 -0.81,0 -0.81,0 -0.81,0 -0.81,0 -0.81,0 -0.81,0 -0.8,0 -0.81,0 -0.81,0 -0.81,0 -0.81,0 -0.81,0 -0.81,0 -0.81,0 -0.81,0 -0.81,0 -0.81,0 -0.81,0 -0.81,0 -0.81,0 -0.81,0 -0.81,0 -0.81,0 -0.81,0 -0.81,0 -0.81,0 -0.81,0 -0.81,0 -0.81,0 -0.81,0 -0.8,0 -0.81,0 -0.81,0 -0.81,0 -0.81,0 -0.81,0 -0.81,0 -0.81,0 -0.81,0 -0.81,0 -0.81,0 -0.81,0 -0.81,0 -0.81,0 -0.81,0 -0.81,0 -0.81,0 -0.81,0 -0.81,0 -0.81,0 -0.81,0 -0.81,0 -0.81,0 -0.81,0 -0.8,0 -0.81,0 -0.81,0 -0.81,0 -0.81,0 -0.81,0 -0.81,0 -0.81,0 -0.81,0 -0.81,0 -0.81,0 -0.81,0 -0.81,0 -0.81,0 -0.81,0 -0.81,0 -0.81,0 -0.81,0 -0.81,0 -0.81,0 -0.81,0 -0.81,0 -0.81,0 -0.8,0 -0.81,0 -0.81,0 -0.81,0 -0.81,0 -0.81,0 -0.81,0 -0.81,0 -0.81,0 -0.81,0 -0.81,0 -0.81,0 -0.81,0 -0.81,0 -0.81,0 -0.81,0 -0.81,0 -0.81,0 -0.81,0 -0.81,0 -0.81,0 -0.81,0 -0.81,0 -0.81,0 -0.8,0 -0.81,0 -0.81,0 -0.81,0 -0.81,0 -0.81,0 -0.81,0 -0.81,0 -0.81,0 -0.81,0 -0.81,0 -0.81,0 -0.81,0 -0.81,0 -0.81,0 -0.81,0 -0.81,0 -0.81,0 -0.81,0 -0.81,0 -0.81,0 -0.81,0 -0.81,0 -0.81,0 -0.8,0 -0.81,0 -0.81,0 -0.81,0 -0.81,0 -0.81,0 -0.81,0 -0.81,0 -0.81,0 -0.81,0 -0.81,0 -0.81,0 -0.81,0 -0.81,0 -0.81,0 -0.81,0 -0.81,0 -0.81,0 -0.81,0 -0.81,0 -0.81,0 -0.81,0 -0.81,0 -0.81,0 -0.8,0 -0.81,0 -0.81,0 -0.81,0 -0.81,0 -0.81,0 -0.81,0 -0.81,0 -0.81,0 -0.81,0 -0.81,0 -0.81,0 -0.81,0 -0.81,0 -0.81,0 -0.81,0 -0.81,0 -0.81,0 -0.81,0 -0.81,0 -0.81,0 -0.81,0 -0.81,0 -0.8,0 -0.81,0 -0.81,0 -0.81,0 -0.81,0 -0.81,0 -0.81,0 -0.81,0 -0.81,0 -0.81,0 -0.81,0 -0.81,0 -0.81,0 -0.81,0 -0.81,0 -0.81,0 -0.81,0 -0.81,0 -0.81,0 -0.81,0 -0.81,0 -0.81,0 -0.81,0 -0.81,0 -0.8,0 -0.81,0 -0.81,0 -0.81,0 -0.81,0 -0.81,0 -0.81,0 -0.81,0 -0.81,0 -0.81,0 -0.81,0 -0.81,0 -0.81,0 -0.81,0 -0.81,0 -0.81,0 -0.81,0 -0.81,0 -0.81,0 -0.81,0 -0.81,0 -0.81,0 -0.81,0 -0.81,0 -0.8,0 -0.81,0 -0.81,0 -0.81,0 -0.81,0 -0.81,0 -0.81,0 -0.81,0 -0.81,0 -0.81,0 -0.81,0 -0.81,0 -0.81,0 -0.81,0 -0.81,0 -0.81,0 -0.81,0 -0.81,0 -0.81,0 -0.81,0 -0.81,0 -0.81,0 -0.81,0 -0.8,0 -0.81,0 -0.81,0 -0.81,0 -0.81,0 -0.81,0 -0.81,0 -0.81,0 -0.81,0 -0.81,0 -0.81,0 -0.81,0 -0.81,0 -0.81,0 -0.81,0 -0.81,0 -0.81,0 -0.81,0 -0.81,0 -0.81,0 -0.81,0 -0.81,0 -0.81,0 -0.81,0 -0.8,0 -0.81,0 -0.81,0 -0.81,0 -0.81,0 -0.81,0 -0.81,0 -0.81,0 -0.81,0 -0.81,0 -0.81,0 -0.81,0 -0.81,0 -0.81,0 -0.81,0 -0.81,0 -0.81,0 -0.81,0 -0.81,0 -0.81,0 -0.81,0 -0.81,0 -0.81,0 -0.81,0 -0.8,0 -0.81,0 -0.81,0 -0.81,0 -0.81,0 -0.81,0 -0.81,0 -0.81,0 -0.81,0 -0.81,0 -0.81,0 -0.81,0 -0.81,0 -0.81,0 -0.81,0 -0.81,0 -0.81,0 -0.81,0 -0.81,0 -0.81,0 -0.81,0 -0.81,0 -0.81,0 -0.81,0 -0.8,0 -0.81,0 -0.81,0 -0.81,0 -0.81,0 -0.81,0 -0.81,0 -0.81,0 -0.81,0 -0.81,0 -0.81,0 -0.81,0 -0.81,0 -0.81,0 -0.81,0 -0.81,0 -0.81,0 -0.81,0 -0.81,0 -0.81,0 -0.81,0 -0.81,0 -0.81,0 -0.8,0 -0.81,0 -0.81,0 -0.81,0 -0.81,0 -0.81,0 -0.81,0 -0.81,0 -0.81,0 -0.81,0 -0.81,0 -0.81,0 -0.81,0 -0.81,0 -0.81,0 -0.81,0 -0.81,0 -0.81,0 -0.81,0 -0.81,0 -0.81,0 -0.81,0 -0.81,0 -0.81,0 -0.8,0 -0.81,0 -0.81,0 -0.81,0 -0.81,0 -0.81,0 -0.81,0 -0.81,0 -0.81,0 -0.81,0 -0.81,0 -0.81,0 -0.81,0 -0.81,0 -0.81,0 -0.81,0 -0.81,0 -0.81,0 -0.81,0 -0.81,0 -0.81,0 -0.81,0 -0.81,0 -0.81,0 -0.8,0 -0.81,0 -0.81,0 -0.81,0 -0.81,0 -0.81,0 -0.81,0 -0.81,0 -0.81,0 -0.81,0 -0.81,0 -0.81,0 -0.81,0 -0.81,0 -0.81,0 -0.81,0 -0.81,0 -0.81,0 -0.81,0 -0.81,0 -0.81,0 -0.81,0 -0.81,0 -0.8,0 -0.81,0 -0.81,0 -0.81,0 -0.81,0 -0.81,0 -0.81,0 -0.81,0 -0.81,0 -0.81,0 -0.81,0 -0.81,0 -0.81,0 -0.81,0 -0.81,0 -0.81,0 -0.81,0 -0.81,0 -0.81,0 -0.81,0 -0.81,0 -0.81,0 -0.81,0 -0.81,0 -0.8,0 -0.81,0 -0.81,0 -0.81,0 -0.81,0 -0.81,0 -0.81,0 -0.81,0 -0.81,0 -0.81,0 -0.81,0 -0.81,0 -0.81,0 -0.81,0 -0.81,0 -0.81,0 -0.81,0 -0.81,0 -0.81,0 -0.81,0 -0.81,0 -0.81,0 -0.81,0 -0.81,0 -0.8,0 -0.81,0 -0.81,0 -0.81,0 -0.81,0 -0.81,0 -0.81,0 -0.81,0 -0.81,0 -0.81,0 -0.81,0 -0.81,0 -0.81,0 -0.81,0 0,0"
       style="fill:none;stroke:#000000;stroke-width:1.05999994;stroke-linecap:round;stroke-linejoin:round;stroke-miterlimit:10;stroke-opacity:1;stroke-dasharray:none"
       id="path4369" /><path
       d="m 55.22,152.31 0.81,-0.02 0.81,-0.06 0.81,-0.08 0.81,-0.11 0.81,-0.14 0.81,-0.16 0.81,-0.18 0.81,-0.19 0.81,-0.19 0.81,-0.19 0.81,-0.19 0.81,-0.19 0.81,-0.17 0.8,-0.16 0.81,-0.14 0.81,-0.13 0.81,-0.11 0.81,-0.1 0.81,-0.08 0.81,-0.07 0.81,-0.06 0.81,-0.05 0.81,-0.04 0.81,-0.03 0.81,-0.02 0.81,-0.02 0.81,-0.01 0.81,-0.01 0.81,0 0.81,0 0.81,0 0.81,0 0.81,0.02 0.81,0.01 0.81,0.03 0.81,0.03 0.81,0.05 0.8,0.05 0.81,0.08 0.81,0.1 0.81,0.13 0.81,0.16 0.81,0.2 0.81,0.24 0.81,0.3 0.81,0.36 0.81,0.43 0.81,0.52 0.81,0.62 0.81,0.71 0.81,0.83 0.81,0.94 0.81,1.07 0.81,1.21 0.81,1.34 0.81,1.52 0.81,1.68 0.81,1.83 0.81,2 0.81,2.16 0.81,2.33 0.8,2.48 0.81,2.64 0.81,2.82 0.81,2.97 0.81,3.1 0.81,3.24 0.81,3.37 0.81,3.49 0.81,3.61 0.81,3.72 0.81,3.86 0.81,3.98 0.81,4.1 0.81,4.24 0.81,4.4 0.81,4.55 0.81,4.74 0.81,4.95 0.81,5.21 0.81,5.49 0.81,5.77 0.81,6.09 0.81,6.41 0.8,6.77 0.81,7.13 0.81,7.5 0.81,7.91 0.81,8.3 0.81,8.65 0.81,8.97 0.81,9.29 0.81,9.55 0.81,9.78 0.81,9.96 0.81,10.1 0.81,10.15 0.81,10.12 0.81,10.01 0.81,9.81 0.81,9.52 0.81,9.12 0.81,8.62 0.81,7.91 0.81,7.12 0.81,6.25 0.81,5.28 0.81,4.22 0.8,3.1 0.81,1.94 0.81,0.73 0.81,-0.61 0.81,-1.83 0.81,-2.95 0.81,-3.98 0.81,-4.91 0.81,-5.76 0.81,-6.47 0.81,-7.08 0.81,-7.61 0.81,-7.97 0.81,-8.21 0.81,-8.36 0.81,-8.42 0.81,-8.43 0.81,-8.36 0.81,-8.25 0.81,-8.06 0.81,-7.83 0.81,-7.55 0.81,-7.23 0.81,-6.88 0.8,-6.49 0.81,-6.04 0.81,-5.56 0.81,-4.99 0.81,-4.43 0.81,-3.88 0.81,-3.34 0.81,-2.81 0.81,-2.3 0.81,-1.84 0.81,-1.42 0.81,-1.02 0.81,-0.73 0.81,-0.51 0.81,-0.37 0.81,-0.29 0.81,-0.26 0.81,-0.28 0.81,-0.36 0.81,-0.47 0.81,-0.61 0.81,-0.76 0.81,-0.91 0.8,-1.08 0.81,-1.24 0.81,-1.4 0.81,-1.54 0.81,-1.71 0.81,-1.85 0.81,-1.99 0.81,-2.11 0.81,-2.24 0.81,-2.35 0.81,-2.46 0.81,-2.56 0.81,-2.67 0.81,-2.76 0.81,-2.83 0.81,-2.88 0.81,-2.93 0.81,-2.97 0.81,-2.99 0.81,-3.01 0.81,-3.03 0.81,-3.03 0.81,-3.04 0.81,-3.04 0.8,-3.05 0.81,-3.06 0.81,-3.07 0.81,-3.07 0.81,-3.08 0.81,-3.07 0.81,-3.06 0.81,-3.02 0.81,-2.98 0.81,-2.91 0.81,-2.84 0.81,-2.72 0.81,-2.6 0.81,-2.44 0.81,-2.27 0.81,-2.11 0.81,-1.92 0.81,-1.75 0.81,-1.56 0.81,-1.38 0.81,-1.21 0.81,-1.05 0.81,-0.92 0.81,-0.83 0.8,-0.74 0.81,-0.68 0.81,-0.65 0.81,-0.63 0.81,-0.64 0.81,-0.67 0.81,-0.7 0.81,-0.74 0.81,-0.79 0.81,-0.85 0.81,-0.89 0.81,-0.93 0.81,-0.97 0.81,-0.99 0.81,-1.01 0.81,-1.01 0.81,-0.99 0.81,-0.97 0.81,-0.95 0.81,-0.9 0.81,-0.85 0.81,-0.79 0.81,-0.73 0.81,-0.67 0.8,-0.61 0.81,-0.55 0.81,-0.48 0.81,-0.43 0.81,-0.37 0.81,-0.31 0.81,-0.27 0.81,-0.23 0.81,-0.19 0.81,-0.16 0.81,-0.13 0.81,-0.1 0.81,-0.08 0.81,-0.07 0.81,-0.05 0.81,-0.04 0.81,-0.03 0.81,-0.02 0.81,-0.02 0.81,-0.01 0.81,-0.01 0.81,-0.01 0.81,0 0.8,-0.01 0.81,0 0.81,0 0.81,0 0.81,0 0.81,0 0.81,0 0.81,0 0.81,0 0.81,0 0.81,0 0.81,0 0.81,0 0.81,0 0.81,0 0.81,0 0.81,0 0.81,0 0.81,0 0.81,0 0.81,0 0.81,0 0.81,0 0.81,0 0.8,0 0.81,0 0.81,0 0.81,0 0.81,0 0.81,0 0.81,0 0.81,0 0.81,0 0.81,0 0.81,0 0.81,0 0.81,0 0.81,0 0.81,0 0.81,0 0.81,0 0.81,0 0.81,0 0.81,0 0.81,0 0.81,0 0.81,0 0.81,0 0.8,0 0.81,0 0.81,0 0.81,0 0.81,0 0.81,0 0.81,0 0.81,0 0.81,0 0.81,0 0.81,0 0.81,0 0.81,0 0.81,0 0.81,0 0.81,0 0.81,0 0.81,0 0.81,0 0.81,0 0.81,0 0.81,0 0.81,0 0.8,0 0.81,0 0.81,0 0.81,0 0.81,0 0.81,0 0.81,0 0.81,0 0.81,0 0.81,0 0.81,0 0.81,0 0.81,0 0.81,0 0.81,0 0.81,0 0.81,0 0.81,0 0.81,0 0.81,0 0.81,0 0.81,0 0.81,0 0.81,0 0.8,0 0.81,0 0.81,0 0.81,0 0.81,0 0.81,0 0.81,0 0.81,0 0.81,0 0.81,0 0.81,0 0.81,0 0.81,0 0.81,0 0.81,0 0.81,0 0.81,0 0.81,0 0.81,0 0.81,0 0.81,0 0.81,0 0.81,0 0.81,0 0.8,0 0.81,0 0.81,0 0.81,0 0.81,0 0.81,0 0.81,0 0.81,0 0.81,0 0.81,0 0.81,0 0.81,0 0.81,0 0.81,0 0.81,0 0.81,0 0.81,0 0.81,0 0.81,0 0.81,0 0.81,0 0.81,0 0.81,0 0.81,0 0.8,0 0.81,0 0.81,0 0.81,0 0.81,0 0.81,0 0.81,0 0.81,0 0.81,0 0.81,0 0.81,0 0.81,0 0.81,0 0.81,0 0.81,0 0.81,0 0.81,0 0.81,0 0.81,0 0.81,0 0.81,0 0.81,0 0.81,0 0.8,0 0.81,0 0.81,0 0.81,0 0.81,0 0.81,0 0.81,0 0.81,0 0.81,0 0.81,0 0.81,0 0.81,0 0.81,0 0.81,0 0.81,0 0.81,0 0.81,0 0.81,0 0.81,0 0.81,0 0.81,0 0.81,0 0.81,0 0.81,0 0.8,0 0.81,0 0.81,0 0.81,0 0.81,0 0.81,0 0.81,0 0.81,0 0.81,0 0.81,0 0.81,0 0.81,0 0.81,0 0.81,0 0.81,0 0.81,0 0.81,0 0.81,0 0.81,0 0.81,0 0.81,0 0.81,0 0.81,0 0.81,0 0.8,0 0.81,0 0.81,0 0.81,0 0.81,0 0.81,0 0.81,0 0.81,0 0.81,0 0.81,0 0.81,0 0.81,0 0.81,0 0.81,0 0.81,0 0.81,0 0.81,0 0.81,0 0.81,0 0.81,0 0.81,0 0.81,0 0.81,0 0.8,0 0.81,0 0.81,0 0.81,0 0.81,0 0.81,0 0.81,0 0.81,0 0.81,0 0.81,0 0.81,0 0.81,0 0.81,0 0.81,0 0.81,0 0.81,0 0.81,0 0.81,0 0.81,0 0.81,0 0.81,0 0.81,0 0.81,0 0.81,0 0,0 -0.81,0 -0.81,0 -0.81,0 -0.81,0 -0.81,0 -0.81,0 -0.81,0 -0.81,0 -0.81,0 -0.81,0 -0.81,0 -0.81,0 -0.81,0 -0.81,0 -0.81,0 -0.81,0 -0.81,0 -0.81,0 -0.81,0 -0.81,0 -0.81,0 -0.81,0 -0.81,0 -0.8,0 -0.81,0 -0.81,0 -0.81,0 -0.81,0 -0.81,0 -0.81,0 -0.81,0 -0.81,0 -0.81,0 -0.81,0 -0.81,0 -0.81,0 -0.81,0 -0.81,0 -0.81,0 -0.81,0 -0.81,0 -0.81,0 -0.81,0 -0.81,0 -0.81,0 -0.81,0 -0.8,0 -0.81,0 -0.81,0 -0.81,0 -0.81,0 -0.81,0 -0.81,0 -0.81,0 -0.81,0 -0.81,0 -0.81,0 -0.81,0 -0.81,0 -0.81,0 -0.81,0 -0.81,0 -0.81,0 -0.81,0 -0.81,0 -0.81,0 -0.81,0 -0.81,0 -0.81,0 -0.81,0 -0.8,0 -0.81,0 -0.81,0 -0.81,0 -0.81,0 -0.81,0 -0.81,0 -0.81,0 -0.81,0 -0.81,0 -0.81,0 -0.81,0 -0.81,0 -0.81,0 -0.81,0 -0.81,0 -0.81,0 -0.81,0 -0.81,0 -0.81,0 -0.81,0 -0.81,0 -0.81,0 -0.81,0 -0.8,0 -0.81,0 -0.81,0 -0.81,0 -0.81,0 -0.81,0 -0.81,0 -0.81,0 -0.81,0 -0.81,0 -0.81,0 -0.81,0 -0.81,0 -0.81,0 -0.81,0 -0.81,0 -0.81,0 -0.81,0 -0.81,0 -0.81,0 -0.81,0 -0.81,0 -0.81,0 -0.8,0 -0.81,0 -0.81,0 -0.81,0 -0.81,0 -0.81,0 -0.81,0 -0.81,0 -0.81,0 -0.81,0 -0.81,0 -0.81,0 -0.81,0 -0.81,0 -0.81,0 -0.81,0 -0.81,0 -0.81,0 -0.81,0 -0.81,0 -0.81,0 -0.81,0 -0.81,0 -0.81,0 -0.8,0 -0.81,0 -0.81,0 -0.81,0 -0.81,0 -0.81,0 -0.81,0 -0.81,0 -0.81,0 -0.81,0 -0.81,0 -0.81,0 -0.81,0 -0.81,0 -0.81,0 -0.81,0 -0.81,0 -0.81,0 -0.81,0 -0.81,0 -0.81,0 -0.81,0 -0.81,0 -0.81,0 -0.8,0 -0.81,0 -0.81,0 -0.81,0 -0.81,0 -0.81,0 -0.81,0 -0.81,0 -0.81,0 -0.81,0 -0.81,0 -0.81,0 -0.81,0 -0.81,0 -0.81,0 -0.81,0 -0.81,0 -0.81,0 -0.81,0 -0.81,0 -0.81,0 -0.81,0 -0.81,0 -0.81,0 -0.8,0 -0.81,0 -0.81,0 -0.81,0 -0.81,0 -0.81,0 -0.81,0 -0.81,0 -0.81,0 -0.81,0 -0.81,0 -0.81,0 -0.81,0 -0.81,0 -0.81,0 -0.81,0 -0.81,0 -0.81,0 -0.81,0 -0.81,0 -0.81,0 -0.81,0 -0.81,0 -0.8,0 -0.81,0 -0.81,0 -0.81,0 -0.81,0 -0.81,0 -0.81,0 -0.81,0 -0.81,0 -0.81,0 -0.81,0 -0.81,0 -0.81,0 -0.81,0 -0.81,0 -0.81,0 -0.81,0 -0.81,0 -0.81,0 -0.81,0 -0.81,0 -0.81,0 -0.81,0 -0.81,0 -0.8,0 -0.81,0 -0.81,0 -0.81,0 -0.81,0 -0.81,0 -0.81,0 -0.81,0 -0.81,0 -0.81,0 -0.81,0 -0.81,0 -0.81,0 -0.81,0 -0.81,0 -0.81,0 -0.81,0 -0.81,0 -0.81,0 -0.81,0 -0.81,0 -0.81,0 -0.81,0 -0.81,0 -0.8,0 -0.81,0 -0.81,0 -0.81,0 -0.81,0 -0.81,0 -0.81,0 -0.81,0 -0.81,0 -0.81,0 -0.81,0 -0.81,0 -0.81,0 -0.81,0 -0.81,0 -0.81,0 -0.81,0 -0.81,0 -0.81,0 -0.81,0 -0.81,0 -0.81,0 -0.81,0 -0.8,0 -0.81,0 -0.81,0 -0.81,0 -0.81,0 -0.81,0 -0.81,0 -0.81,0 -0.81,0 -0.81,0 -0.81,0 -0.81,0 -0.81,0 -0.81,0 -0.81,0 -0.81,0 -0.81,0 -0.81,0 -0.81,0 -0.81,0 -0.81,0 -0.81,0 -0.81,0 -0.81,0 -0.8,0 -0.81,0 -0.81,0 -0.81,0 -0.81,0 -0.81,0 -0.81,0 -0.81,0 -0.81,0 -0.81,0 -0.81,0 -0.81,0 -0.81,0 -0.81,0 -0.81,0 -0.81,0 -0.81,0 -0.81,0 -0.81,0 -0.81,0 -0.81,0 -0.81,0 -0.81,0 -0.81,0 -0.8,0 -0.81,0 -0.81,0 -0.81,0 -0.81,0 -0.81,0 -0.81,0 -0.81,0 -0.81,0 -0.81,0 -0.81,0 -0.81,0 -0.81,0 -0.81,0 -0.81,0 -0.81,0 -0.81,0 -0.81,0 -0.81,0 -0.81,0 -0.81,0 -0.81,0 -0.81,0 -0.81,0 -0.8,0 -0.81,0 -0.81,0 -0.81,0 -0.81,0 -0.81,0 -0.81,0 -0.81,0 -0.81,0 -0.81,0 -0.81,0 -0.81,0 -0.81,0 -0.81,0 -0.81,0 -0.81,0 -0.81,0 -0.81,0 -0.81,0 -0.81,0 -0.81,0 -0.81,0 -0.81,0 -0.8,0 -0.81,0 -0.81,0 -0.81,0 -0.81,0 -0.81,0 -0.81,0 -0.81,0 -0.81,0 -0.81,0 -0.81,0 -0.81,0 -0.81,0 -0.81,0 -0.81,0 -0.81,0 -0.81,0 -0.81,0 -0.81,0 -0.81,0 -0.81,0 -0.81,0 -0.81,0 -0.81,0 -0.8,0 -0.81,0 -0.81,0 -0.81,0 -0.81,0 -0.81,0 -0.81,0 -0.81,0 -0.81,0 -0.81,0 -0.81,0 -0.81,0 -0.81,0 -0.81,0 -0.81,0 -0.81,0 -0.81,0 -0.81,0 -0.81,0 -0.81,0 -0.81,0 -0.81,0 -0.81,0 -0.81,0 -0.8,0 -0.81,0 -0.81,0 -0.81,0 -0.81,0 -0.81,0 -0.81,0 -0.81,0 -0.81,0 -0.81,0 -0.81,0 -0.81,0 -0.81,0 -0.81,0 -0.81,0 -0.81,0 -0.81,0 -0.81,0 -0.81,0 -0.81,0 -0.81,0 -0.81,0 -0.81,0 -0.8,0 -0.81,0 -0.81,0 -0.81,0 -0.81,0 -0.81,0 -0.81,0 -0.81,0 -0.81,0 -0.81,0 -0.81,0 -0.81,0 -0.81,0 -0.81,0 -0.81,0 -0.81,0 -0.81,0 -0.81,0 -0.81,0 -0.81,0 -0.81,0 -0.81,0 -0.81,0 -0.81,0 -0.8,0 -0.81,0 -0.81,0 -0.81,0 -0.81,0 -0.81,0 -0.81,0 -0.81,0 -0.81,0 -0.81,0 -0.81,0 -0.81,0 -0.81,0 -0.81,0 -0.81,0 -0.81,0 -0.81,0 -0.81,0 -0.81,0 -0.81,0 -0.81,0 -0.81,0 -0.81,0 -0.81,0 -0.8,0 -0.81,0 -0.81,0 -0.81,0 -0.81,0 -0.81,0 -0.81,0 -0.81,0 -0.81,0 -0.81,0 -0.81,0 -0.81,0 -0.81,0 -0.81,0 0,2.93 z"
       style="fill:#00bfc4;fill-opacity:0.25100002;fill-rule:nonzero;stroke:none"
       id="path4371" /><path
       d="m 55.22,152.31 0.81,-0.02 0.81,-0.06 0.81,-0.08 0.81,-0.11 0.81,-0.14 0.81,-0.16 0.81,-0.18 0.81,-0.19 0.81,-0.19 0.81,-0.19 0.81,-0.19 0.81,-0.19 0.81,-0.17 0.8,-0.16 0.81,-0.14 0.81,-0.13 0.81,-0.11 0.81,-0.1 0.81,-0.08 0.81,-0.07 0.81,-0.06 0.81,-0.05 0.81,-0.04 0.81,-0.03 0.81,-0.02 0.81,-0.02 0.81,-0.01 0.81,-0.01 0.81,0 0.81,0 0.81,0 0.81,0 0.81,0.02 0.81,0.01 0.81,0.03 0.81,0.03 0.81,0.05 0.8,0.05 0.81,0.08 0.81,0.1 0.81,0.13 0.81,0.16 0.81,0.2 0.81,0.24 0.81,0.3 0.81,0.36 0.81,0.43 0.81,0.52 0.81,0.62 0.81,0.71 0.81,0.83 0.81,0.94 0.81,1.07 0.81,1.21 0.81,1.34 0.81,1.52 0.81,1.68 0.81,1.83 0.81,2 0.81,2.16 0.81,2.33 0.8,2.48 0.81,2.64 0.81,2.82 0.81,2.97 0.81,3.1 0.81,3.24 0.81,3.37 0.81,3.49 0.81,3.61 0.81,3.72 0.81,3.86 0.81,3.98 0.81,4.1 0.81,4.24 0.81,4.4 0.81,4.55 0.81,4.74 0.81,4.95 0.81,5.21 0.81,5.49 0.81,5.77 0.81,6.09 0.81,6.41 0.8,6.77 0.81,7.13 0.81,7.5 0.81,7.91 0.81,8.3 0.81,8.65 0.81,8.97 0.81,9.29 0.81,9.55 0.81,9.78 0.81,9.96 0.81,10.1 0.81,10.15 0.81,10.12 0.81,10.01 0.81,9.81 0.81,9.52 0.81,9.12 0.81,8.62 0.81,7.91 0.81,7.12 0.81,6.25 0.81,5.28 0.81,4.22 0.8,3.1 0.81,1.94 0.81,0.73 0.81,-0.61 0.81,-1.83 0.81,-2.95 0.81,-3.98 0.81,-4.91 0.81,-5.76 0.81,-6.47 0.81,-7.08 0.81,-7.61 0.81,-7.97 0.81,-8.21 0.81,-8.36 0.81,-8.42 0.81,-8.43 0.81,-8.36 0.81,-8.25 0.81,-8.06 0.81,-7.83 0.81,-7.55 0.81,-7.23 0.81,-6.88 0.8,-6.49 0.81,-6.04 0.81,-5.56 0.81,-4.99 0.81,-4.43 0.81,-3.88 0.81,-3.34 0.81,-2.81 0.81,-2.3 0.81,-1.84 0.81,-1.42 0.81,-1.02 0.81,-0.73 0.81,-0.51 0.81,-0.37 0.81,-0.29 0.81,-0.26 0.81,-0.28 0.81,-0.36 0.81,-0.47 0.81,-0.61 0.81,-0.76 0.81,-0.91 0.8,-1.08 0.81,-1.24 0.81,-1.4 0.81,-1.54 0.81,-1.71 0.81,-1.85 0.81,-1.99 0.81,-2.11 0.81,-2.24 0.81,-2.35 0.81,-2.46 0.81,-2.56 0.81,-2.67 0.81,-2.76 0.81,-2.83 0.81,-2.88 0.81,-2.93 0.81,-2.97 0.81,-2.99 0.81,-3.01 0.81,-3.03 0.81,-3.03 0.81,-3.04 0.81,-3.04 0.8,-3.05 0.81,-3.06 0.81,-3.07 0.81,-3.07 0.81,-3.08 0.81,-3.07 0.81,-3.06 0.81,-3.02 0.81,-2.98 0.81,-2.91 0.81,-2.84 0.81,-2.72 0.81,-2.6 0.81,-2.44 0.81,-2.27 0.81,-2.11 0.81,-1.92 0.81,-1.75 0.81,-1.56 0.81,-1.38 0.81,-1.21 0.81,-1.05 0.81,-0.92 0.81,-0.83 0.8,-0.74 0.81,-0.68 0.81,-0.65 0.81,-0.63 0.81,-0.64 0.81,-0.67 0.81,-0.7 0.81,-0.74 0.81,-0.79 0.81,-0.85 0.81,-0.89 0.81,-0.93 0.81,-0.97 0.81,-0.99 0.81,-1.01 0.81,-1.01 0.81,-0.99 0.81,-0.97 0.81,-0.95 0.81,-0.9 0.81,-0.85 0.81,-0.79 0.81,-0.73 0.81,-0.67 0.8,-0.61 0.81,-0.55 0.81,-0.48 0.81,-0.43 0.81,-0.37 0.81,-0.31 0.81,-0.27 0.81,-0.23 0.81,-0.19 0.81,-0.16 0.81,-0.13 0.81,-0.1 0.81,-0.08 0.81,-0.07 0.81,-0.05 0.81,-0.04 0.81,-0.03 0.81,-0.02 0.81,-0.02 0.81,-0.01 0.81,-0.01 0.81,-0.01 0.81,0 0.8,-0.01 0.81,0 0.81,0 0.81,0 0.81,0 0.81,0 0.81,0 0.81,0 0.81,0 0.81,0 0.81,0 0.81,0 0.81,0 0.81,0 0.81,0 0.81,0 0.81,0 0.81,0 0.81,0 0.81,0 0.81,0 0.81,0 0.81,0 0.81,0 0.8,0 0.81,0 0.81,0 0.81,0 0.81,0 0.81,0 0.81,0 0.81,0 0.81,0 0.81,0 0.81,0 0.81,0 0.81,0 0.81,0 0.81,0 0.81,0 0.81,0 0.81,0 0.81,0 0.81,0 0.81,0 0.81,0 0.81,0 0.81,0 0.8,0 0.81,0 0.81,0 0.81,0 0.81,0 0.81,0 0.81,0 0.81,0 0.81,0 0.81,0 0.81,0 0.81,0 0.81,0 0.81,0 0.81,0 0.81,0 0.81,0 0.81,0 0.81,0 0.81,0 0.81,0 0.81,0 0.81,0 0.8,0 0.81,0 0.81,0 0.81,0 0.81,0 0.81,0 0.81,0 0.81,0 0.81,0 0.81,0 0.81,0 0.81,0 0.81,0 0.81,0 0.81,0 0.81,0 0.81,0 0.81,0 0.81,0 0.81,0 0.81,0 0.81,0 0.81,0 0.81,0 0.8,0 0.81,0 0.81,0 0.81,0 0.81,0 0.81,0 0.81,0 0.81,0 0.81,0 0.81,0 0.81,0 0.81,0 0.81,0 0.81,0 0.81,0 0.81,0 0.81,0 0.81,0 0.81,0 0.81,0 0.81,0 0.81,0 0.81,0 0.81,0 0.8,0 0.81,0 0.81,0 0.81,0 0.81,0 0.81,0 0.81,0 0.81,0 0.81,0 0.81,0 0.81,0 0.81,0 0.81,0 0.81,0 0.81,0 0.81,0 0.81,0 0.81,0 0.81,0 0.81,0 0.81,0 0.81,0 0.81,0 0.81,0 0.8,0 0.81,0 0.81,0 0.81,0 0.81,0 0.81,0 0.81,0 0.81,0 0.81,0 0.81,0 0.81,0 0.81,0 0.81,0 0.81,0 0.81,0 0.81,0 0.81,0 0.81,0 0.81,0 0.81,0 0.81,0 0.81,0 0.81,0 0.8,0 0.81,0 0.81,0 0.81,0 0.81,0 0.81,0 0.81,0 0.81,0 0.81,0 0.81,0 0.81,0 0.81,0 0.81,0 0.81,0 0.81,0 0.81,0 0.81,0 0.81,0 0.81,0 0.81,0 0.81,0 0.81,0 0.81,0 0.81,0 0.8,0 0.81,0 0.81,0 0.81,0 0.81,0 0.81,0 0.81,0 0.81,0 0.81,0 0.81,0 0.81,0 0.81,0 0.81,0 0.81,0 0.81,0 0.81,0 0.81,0 0.81,0 0.81,0 0.81,0 0.81,0 0.81,0 0.81,0 0.81,0 0.8,0 0.81,0 0.81,0 0.81,0 0.81,0 0.81,0 0.81,0 0.81,0 0.81,0 0.81,0 0.81,0 0.81,0 0.81,0 0.81,0 0.81,0 0.81,0 0.81,0 0.81,0 0.81,0 0.81,0 0.81,0 0.81,0 0.81,0 0.8,0 0.81,0 0.81,0 0.81,0 0.81,0 0.81,0 0.81,0 0.81,0 0.81,0 0.81,0 0.81,0 0.81,0 0.81,0 0.81,0 0.81,0 0.81,0 0.81,0 0.81,0 0.81,0 0.81,0 0.81,0 0.81,0 0.81,0 0.81,0 0,0 -0.81,0 -0.81,0 -0.81,0 -0.81,0 -0.81,0 -0.81,0 -0.81,0 -0.81,0 -0.81,0 -0.81,0 -0.81,0 -0.81,0 -0.81,0 -0.81,0 -0.81,0 -0.81,0 -0.81,0 -0.81,0 -0.81,0 -0.81,0 -0.81,0 -0.81,0 -0.81,0 -0.8,0 -0.81,0 -0.81,0 -0.81,0 -0.81,0 -0.81,0 -0.81,0 -0.81,0 -0.81,0 -0.81,0 -0.81,0 -0.81,0 -0.81,0 -0.81,0 -0.81,0 -0.81,0 -0.81,0 -0.81,0 -0.81,0 -0.81,0 -0.81,0 -0.81,0 -0.81,0 -0.8,0 -0.81,0 -0.81,0 -0.81,0 -0.81,0 -0.81,0 -0.81,0 -0.81,0 -0.81,0 -0.81,0 -0.81,0 -0.81,0 -0.81,0 -0.81,0 -0.81,0 -0.81,0 -0.81,0 -0.81,0 -0.81,0 -0.81,0 -0.81,0 -0.81,0 -0.81,0 -0.81,0 -0.8,0 -0.81,0 -0.81,0 -0.81,0 -0.81,0 -0.81,0 -0.81,0 -0.81,0 -0.81,0 -0.81,0 -0.81,0 -0.81,0 -0.81,0 -0.81,0 -0.81,0 -0.81,0 -0.81,0 -0.81,0 -0.81,0 -0.81,0 -0.81,0 -0.81,0 -0.81,0 -0.81,0 -0.8,0 -0.81,0 -0.81,0 -0.81,0 -0.81,0 -0.81,0 -0.81,0 -0.81,0 -0.81,0 -0.81,0 -0.81,0 -0.81,0 -0.81,0 -0.81,0 -0.81,0 -0.81,0 -0.81,0 -0.81,0 -0.81,0 -0.81,0 -0.81,0 -0.81,0 -0.81,0 -0.8,0 -0.81,0 -0.81,0 -0.81,0 -0.81,0 -0.81,0 -0.81,0 -0.81,0 -0.81,0 -0.81,0 -0.81,0 -0.81,0 -0.81,0 -0.81,0 -0.81,0 -0.81,0 -0.81,0 -0.81,0 -0.81,0 -0.81,0 -0.81,0 -0.81,0 -0.81,0 -0.81,0 -0.8,0 -0.81,0 -0.81,0 -0.81,0 -0.81,0 -0.81,0 -0.81,0 -0.81,0 -0.81,0 -0.81,0 -0.81,0 -0.81,0 -0.81,0 -0.81,0 -0.81,0 -0.81,0 -0.81,0 -0.81,0 -0.81,0 -0.81,0 -0.81,0 -0.81,0 -0.81,0 -0.81,0 -0.8,0 -0.81,0 -0.81,0 -0.81,0 -0.81,0 -0.81,0 -0.81,0 -0.81,0 -0.81,0 -0.81,0 -0.81,0 -0.81,0 -0.81,0 -0.81,0 -0.81,0 -0.81,0 -0.81,0 -0.81,0 -0.81,0 -0.81,0 -0.81,0 -0.81,0 -0.81,0 -0.81,0 -0.8,0 -0.81,0 -0.81,0 -0.81,0 -0.81,0 -0.81,0 -0.81,0 -0.81,0 -0.81,0 -0.81,0 -0.81,0 -0.81,0 -0.81,0 -0.81,0 -0.81,0 -0.81,0 -0.81,0 -0.81,0 -0.81,0 -0.81,0 -0.81,0 -0.81,0 -0.81,0 -0.8,0 -0.81,0 -0.81,0 -0.81,0 -0.81,0 -0.81,0 -0.81,0 -0.81,0 -0.81,0 -0.81,0 -0.81,0 -0.81,0 -0.81,0 -0.81,0 -0.81,0 -0.81,0 -0.81,0 -0.81,0 -0.81,0 -0.81,0 -0.81,0 -0.81,0 -0.81,0 -0.81,0 -0.8,0 -0.81,0 -0.81,0 -0.81,0 -0.81,0 -0.81,0 -0.81,0 -0.81,0 -0.81,0 -0.81,0 -0.81,0 -0.81,0 -0.81,0 -0.81,0 -0.81,0 -0.81,0 -0.81,0 -0.81,0 -0.81,0 -0.81,0 -0.81,0 -0.81,0 -0.81,0 -0.81,0 -0.8,0 -0.81,0 -0.81,0 -0.81,0 -0.81,0 -0.81,0 -0.81,0 -0.81,0 -0.81,0 -0.81,0 -0.81,0 -0.81,0 -0.81,0 -0.81,0 -0.81,0 -0.81,0 -0.81,0 -0.81,0 -0.81,0 -0.81,0 -0.81,0 -0.81,0 -0.81,0 -0.8,0 -0.81,0 -0.81,0 -0.81,0 -0.81,0 -0.81,0 -0.81,0 -0.81,0 -0.81,0 -0.81,0 -0.81,0 -0.81,0 -0.81,0 -0.81,0 -0.81,0 -0.81,0 -0.81,0 -0.81,0 -0.81,0 -0.81,0 -0.81,0 -0.81,0 -0.81,0 -0.81,0 -0.8,0 -0.81,0 -0.81,0 -0.81,0 -0.81,0 -0.81,0 -0.81,0 -0.81,0 -0.81,0 -0.81,0 -0.81,0 -0.81,0 -0.81,0 -0.81,0 -0.81,0 -0.81,0 -0.81,0 -0.81,0 -0.81,0 -0.81,0 -0.81,0 -0.81,0 -0.81,0 -0.81,0 -0.8,0 -0.81,0 -0.81,0 -0.81,0 -0.81,0 -0.81,0 -0.81,0 -0.81,0 -0.81,0 -0.81,0 -0.81,0 -0.81,0 -0.81,0 -0.81,0 -0.81,0 -0.81,0 -0.81,0 -0.81,0 -0.81,0 -0.81,0 -0.81,0 -0.81,0 -0.81,0 -0.81,0 -0.8,0 -0.81,0 -0.81,0 -0.81,0 -0.81,0 -0.81,0 -0.81,0 -0.81,0 -0.81,0 -0.81,0 -0.81,0 -0.81,0 -0.81,0 -0.81,0 -0.81,0 -0.81,0 -0.81,0 -0.81,0 -0.81,0 -0.81,0 -0.81,0 -0.81,0 -0.81,0 -0.8,0 -0.81,0 -0.81,0 -0.81,0 -0.81,0 -0.81,0 -0.81,0 -0.81,0 -0.81,0 -0.81,0 -0.81,0 -0.81,0 -0.81,0 -0.81,0 -0.81,0 -0.81,0 -0.81,0 -0.81,0 -0.81,0 -0.81,0 -0.81,0 -0.81,0 -0.81,0 -0.81,0 -0.8,0 -0.81,0 -0.81,0 -0.81,0 -0.81,0 -0.81,0 -0.81,0 -0.81,0 -0.81,0 -0.81,0 -0.81,0 -0.81,0 -0.81,0 -0.81,0 -0.81,0 -0.81,0 -0.81,0 -0.81,0 -0.81,0 -0.81,0 -0.81,0 -0.81,0 -0.81,0 -0.81,0 -0.8,0 -0.81,0 -0.81,0 -0.81,0 -0.81,0 -0.81,0 -0.81,0 -0.81,0 -0.81,0 -0.81,0 -0.81,0 -0.81,0 -0.81,0 -0.81,0 -0.81,0 -0.81,0 -0.81,0 -0.81,0 -0.81,0 -0.81,0 -0.81,0 -0.81,0 -0.81,0 -0.8,0 -0.81,0 -0.81,0 -0.81,0 -0.81,0 -0.81,0 -0.81,0 -0.81,0 -0.81,0 -0.81,0 -0.81,0 -0.81,0 -0.81,0 -0.81,0 -0.81,0 -0.81,0 -0.81,0 -0.81,0 -0.81,0 -0.81,0 -0.81,0 -0.81,0 -0.81,0 -0.81,0 -0.8,0 -0.81,0 -0.81,0 -0.81,0 -0.81,0 -0.81,0 -0.81,0 -0.81,0 -0.81,0 -0.81,0 -0.81,0 -0.81,0 -0.81,0 -0.81,0 -0.81,0 -0.81,0 -0.81,0 -0.81,0 -0.81,0 -0.81,0 -0.81,0 -0.81,0 -0.81,0 -0.81,0 -0.8,0 -0.81,0 -0.81,0 -0.81,0 -0.81,0 -0.81,0 -0.81,0 -0.81,0 -0.81,0 -0.81,0 -0.81,0 -0.81,0 -0.81,0 -0.81,0 0,2.93"
       style="fill:none;stroke:#000000;stroke-width:1.05999994;stroke-linecap:round;stroke-linejoin:round;stroke-miterlimit:10;stroke-opacity:1;stroke-dasharray:none"
       id="path4373" /></g></g><g
   id="g4377" /><g
   id="g4379"><g
     id="g4381"
     clip-path="url(#clipPath4383)" /></g><g
   id="g4387" /><g
   id="g4389"
   transform="translate(-6.4,-16)"><path
   d="m 181.38,128.86 0,4.32"
   style="fill:none;stroke:#000000;stroke-width:0.43000001;stroke-linecap:round;stroke-linejoin:round;stroke-miterlimit:10;stroke-opacity:1;stroke-dasharray:none"
   id="path4397" /><path
   d="m 292.3977,116.46778 -0.3727,44.17047"
   style="fill:none;stroke:#a1a1a1;stroke-width:1.87039995;stroke-linecap:round;stroke-linejoin:round;stroke-miterlimit:10;stroke-opacity:1;stroke-dasharray:none"
   id="path4399"
   sodipodi:nodetypes="cc" /><text
   transform="matrix(0.70710678,-0.70710678,-0.70710678,-0.70710678,0,0)"
   id="text4411"
   x="72.259239"
   y="-227.08733"
   style="font-size:12px"><tspan
     style="font-size:16.99884796px;font-variant:normal;font-weight:normal;writing-mode:lr-tb;fill:#000000;fill-opacity:1;fill-rule:nonzero;stroke:none;font-family:Helvetica;-inkscape-font-specification:Helvetica"
     x="72.259239 84.53241 93.983772 102.48319 110.98261 120.43397 124.20772 127.98146 132.70715 142.58348 152.03485 155.80859 165.25995 174.7113 184.16266 187.93637"
     y="-227.08733"
     sodipodi:role="line"
     id="tspan4413">Russell Feingold</tspan></text>



<text
   transform="matrix(0.70710678,-0.70710678,-0.70710678,-0.70710678,267.84,110.04)"
   id="text4415"><tspan
     style="font-size:16.99884796px;font-variant:normal;font-weight:normal;writing-mode:lr-tb;fill:#000000;fill-opacity:1;fill-rule:nonzero;stroke:none;font-family:Helvetica;-inkscape-font-specification:Helvetica"
     x="0 11.338231 20.279625 28.779049 33.504726 45.777897 55.229256 59.954933 68.454353 77.905716 81.679459 90.178886 99.630241"
     y="0"
     sodipodi:role="line"
     id="tspan4417">Kay Hutchison</tspan></text>



<text
   transform="matrix(0.70710678,-0.70710678,-0.70710678,-0.70710678,0,0)"
   id="text4419"
   x="22.556707"
   y="-179.53439"
   style="font-size:12px"><tspan
     style="font-size:16.99884796px;font-variant:normal;font-weight:normal;writing-mode:lr-tb;fill:#000000;fill-opacity:1;fill-rule:nonzero;stroke:none;font-family:Helvetica;-inkscape-font-specification:Helvetica"
     x="22.556707 31.056129 40.507488 49.958847 59.410206 64.135887 74.794167 84.245522 89.906143 96.076721"
     y="-179.53439"
     sodipodi:role="line"
     id="tspan4421">John Kerry</tspan></text>



<text
   transform="matrix(0.70710678,-0.70710678,-0.70710678,-0.70710678,0,0)"
   id="text4423"
   x="43.522423"
   y="-198.95859"
   style="font-size:12px"><tspan
     style="font-size:16.99884796px;font-variant:normal;font-weight:normal;writing-mode:lr-tb;fill:#000000;fill-opacity:1;fill-rule:nonzero;stroke:none;font-family:Helvetica;-inkscape-font-specification:Helvetica"
     x="43.522423 52.021847 61.473206 70.924568 75.650246 85.101608 88.875351 98.326706 107.77806 117.22943 123.31501 137.47502 146.92636"
     y="-198.95859"
     sodipodi:role="line"
     id="tspan4425">Joe Lieberman</tspan></text>



<text
   transform="matrix(0.70710678,-0.70710678,-0.70710678,-0.70710678,290.43,110.39)"
   id="text4427"><tspan
     style="font-size:16.99884796px;font-variant:normal;font-weight:normal;writing-mode:lr-tb;fill:#000000;fill-opacity:1;fill-rule:nonzero;stroke:none;font-family:Helvetica;-inkscape-font-specification:Helvetica"
     x="0 8.499424 17.950783 27.402142 36.8535 41.579182 55.73922 64.23864 76.51181 85.963173 89.736916"
     y="0"
     sodipodi:role="line"
     id="tspan4429">John McCain</tspan></text>



<text
   transform="matrix(0.70710678,-0.70710678,-0.70710678,-0.70710678,318.1,110.16)"
   id="text4431"><tspan
     style="font-size:16.99884796px;font-variant:normal;font-weight:normal;writing-mode:lr-tb;fill:#000000;fill-opacity:1;fill-rule:nonzero;stroke:none;font-family:Helvetica;-inkscape-font-specification:Helvetica"
     x="0 8.499424 17.950783 27.402142 36.8535 41.579182 52.917412 62.368771 71.820129 81.271484 90.722847 100.1742"
     y="0"
     sodipodi:role="line"
     id="tspan4433">John Boehner</tspan></text>



<text
   transform="matrix(0.70710678,-0.70710678,-0.70710678,-0.70710678,0,0)"
   id="text4435"
   x="7.9408097"
   y="-162.882"
   style="font-size:12px"><tspan
     style="font-size:16.99884796px;font-variant:normal;font-weight:normal;writing-mode:lr-tb;fill:#000000;fill-opacity:1;fill-rule:nonzero;stroke:none;font-family:Helvetica;-inkscape-font-specification:Helvetica"
     x="7.9408097 18.599089 28.050446 32.776127 38.691723 42.465469 50.964893 59.464317 64.189995 74.848274 84.299629 93.750992 103.20235 112.65371 122.10507"
     y="-162.882"
     sodipodi:role="line"
     id="tspan4437">Patrick Kennedy</tspan></text>



<text
   transform="matrix(0.70710678,-0.70710678,-0.70710678,-0.70710678,0,0)"
   id="text4439"
   x="58.018112"
   y="-213.03006"
   style="font-size:12px"><tspan
     style="font-size:16.99884796px;font-variant:normal;font-weight:normal;writing-mode:lr-tb;fill:#000000;fill-opacity:1;fill-rule:nonzero;stroke:none;font-family:Helvetica;-inkscape-font-specification:Helvetica"
     x="58.018112 70.291283 79.742638 89.194 98.645355 102.4191 110.91853 115.6442 126.47247 135.92381 144.42323 148.19699 157.64835 161.42207 169.92151"
     y="-213.03006"
     sodipodi:role="line"
     id="tspan4441">Dennis Kucinich</tspan></text>



<text
   transform="matrix(0.70710678,-0.70710678,-0.70710678,-0.70710678,467.85,110.65)"
   id="text4443"><tspan
     style="font-size:16.99884796px;font-variant:normal;font-weight:normal;writing-mode:lr-tb;fill:#000000;fill-opacity:1;fill-rule:nonzero;stroke:none;font-family:Helvetica;-inkscape-font-specification:Helvetica"
     x="0 12.273168 21.724527 31.175886 40.627243 44.40099 53.852348 58.578026 69.236305 78.68766 88.139023"
     y="0"
     sodipodi:role="line"
     id="tspan4445">Ronald Paul</tspan></text>



<text
   transform="matrix(0.70710678,-0.70710678,-0.70710678,-0.70710678,363.25,110.46)"
   id="text4447"><tspan
     style="font-size:16.99884796px;font-variant:normal;font-weight:normal;writing-mode:lr-tb;fill:#000000;fill-opacity:1;fill-rule:nonzero;stroke:none;font-family:Helvetica;-inkscape-font-specification:Helvetica"
     x="0 11.338231 15.111975 20.772591 30.223949 33.997696 43.449055 47.222797 56.674156 61.399834 71.276169 80.21756 88.71698"
     y="0"
     sodipodi:role="line"
     id="tspan4449">Virginia Foxx</tspan></text>



</g><g
   id="g4451" /><g
   id="g4453"><g
     id="g4455"
     clip-path="url(#clipPath4457)" /></g><g
   id="g4461" /><g
   id="g4463"><g
     id="g4465"
     clip-path="url(#clipPath4467)" /></g><g
   id="g4471" /><g
   id="g4473"><g
     id="g4475"
     clip-path="url(#clipPath4477)" /></g><g
   id="g4481" /><g
   id="g4483"><g
     id="g4485"
     clip-path="url(#clipPath4487)" /></g><g
   id="g4491" /><g
   id="g4493"><g
     id="g4495"
     clip-path="url(#clipPath4497)" /></g><g
   id="g4501" /><g
   id="g4503"><g
     id="g4505"
     clip-path="url(#clipPath4507)" /></g><g
   id="g4511" /><g
   id="g4513"><g
     id="g4515"
     clip-path="url(#clipPath4517)" /></g><g
   id="g4521" /><g
   id="g4523"><g
     id="g4525"
     clip-path="url(#clipPath4527)" /></g><g
   id="g4531" /><g
   id="g4533"><g
     id="g4535"
     clip-path="url(#clipPath4537)" /></g><g
   id="g4541" /><g
   id="g4543"><g
     id="g4545"
     clip-path="url(#clipPath4547)" /></g><g
   id="g4551" /><g
   id="g4553"><g
     id="g4555"
     clip-path="url(#clipPath4557)" /></g><g
   id="g4561" /><g
   id="g4563"><g
     id="g4565"
     clip-path="url(#clipPath4567)" /></g><g
   id="g4571" /><g
   id="g4573"><g
     id="g4575"
     clip-path="url(#clipPath4577)" /></g><g
   id="g4581" /><g
   id="g4583"><g
     id="g4585"
     clip-path="url(#clipPath4587)" /></g><g
   id="g4591" /><g
   id="g4593"><g
     id="g4595"
     clip-path="url(#clipPath4597)" /></g><g
   id="g4601" /><g
   id="g4603"><g
     id="g4605"
     clip-path="url(#clipPath4607)" /></g><g
   id="g4611" /><g
   id="g4613"><g
     id="g4615"
     clip-path="url(#clipPath4617)" /></g><g
   id="g4621" /><g
   id="g4623"><g
     id="g4625"
     clip-path="url(#clipPath4627)" /></g><g
   id="g4631" /><g
   id="g4633"><g
     id="g4635"
     clip-path="url(#clipPath4637)" /></g><g
   id="g4641" /><g
   id="g4643" /><g
   id="g4645" /><path
   style="fill:none;stroke:#000000;stroke-width:4.41667843;stroke-linecap:butt;stroke-linejoin:miter;stroke-miterlimit:4;stroke-opacity:1;stroke-dasharray:none;marker-start:url(#Arrow2Mstart);marker-end:url(#Arrow2Mend);display:inline"
   d="m -19.602297,148.46778 506.151147,-1e-5"
   id="path5419"
   inkscape:connector-type="polyline"
   sodipodi:nodetypes="cc" /><text
   xml:space="preserve"
   style="font-size:31.32751083px;font-style:normal;font-weight:normal;fill:#000000;fill-opacity:1;stroke:none;font-family:Bitstream Vera Sans"
   x="45.967705"
   y="-107.75469"
   id="text9334"
   transform="scale(0.97898472,-1.0214664)"><tspan
     sodipodi:role="line"
     id="tspan9336"
     x="45.967705"
     y="-107.75469">-3  -2   -1   0    1    2    3</tspan></text>



<path
   d="m 317.9977,100.46778 -0.3727,44.17047"
   style="fill:none;stroke:#a1a1a1;stroke-width:1.87039983;stroke-linecap:round;stroke-linejoin:round;stroke-miterlimit:10;stroke-opacity:1;stroke-dasharray:none"
   id="path4399-8"
   sodipodi:nodetypes="cc" /><path
   d="m 364.3977,100.46778 -0.3727,44.17047"
   style="fill:none;stroke:#a1a1a1;stroke-width:1.87039983;stroke-linecap:round;stroke-linejoin:round;stroke-miterlimit:10;stroke-opacity:1;stroke-dasharray:none"
   id="path4399-3"
   sodipodi:nodetypes="cc" /><path
   d="m 207.5977,100.46778 -0.3727,44.17047"
   style="fill:none;stroke:#a1a1a1;stroke-width:1.87039983;stroke-linecap:round;stroke-linejoin:round;stroke-miterlimit:10;stroke-opacity:1;stroke-dasharray:none"
   id="path4399-0"
   sodipodi:nodetypes="cc" /><path
   d="m 191.5977,100.46778 -0.3727,44.17047"
   style="fill:none;stroke:#a1a1a1;stroke-width:1.87039983;stroke-linecap:round;stroke-linejoin:round;stroke-miterlimit:10;stroke-opacity:1;stroke-dasharray:none"
   id="path4399-1"
   sodipodi:nodetypes="cc" /><path
   d="m 180.3977,100.46778 -0.3727,44.17047"
   style="fill:none;stroke:#a1a1a1;stroke-width:1.87039983;stroke-linecap:round;stroke-linejoin:round;stroke-miterlimit:10;stroke-opacity:1;stroke-dasharray:none"
   id="path4399-9"
   sodipodi:nodetypes="cc" /><path
   d="m 148.3977,100.46778 -0.3727,44.17047"
   style="fill:none;stroke:#a1a1a1;stroke-width:1.87039983;stroke-linecap:round;stroke-linejoin:round;stroke-miterlimit:10;stroke-opacity:1;stroke-dasharray:none"
   id="path4399-6"
   sodipodi:nodetypes="cc" /><path
   d="m 130.7977,100.46778 -0.3727,44.17047"
   style="fill:none;stroke:#a1a1a1;stroke-width:1.87039983;stroke-linecap:round;stroke-linejoin:round;stroke-miterlimit:10;stroke-opacity:1;stroke-dasharray:none"
   id="path4399-7"
   sodipodi:nodetypes="cc" /><path
   d="m 468.3977,100.46778 -0.3727,44.17047"
   style="fill:none;stroke:#a1a1a1;stroke-width:1.87039983;stroke-linecap:round;stroke-linejoin:round;stroke-miterlimit:10;stroke-opacity:1;stroke-dasharray:none"
   id="path4399-4"
   sodipodi:nodetypes="cc" /><path
   d="m 263.5977,100.46778 -0.3727,44.17047"
   style="fill:none;stroke:#a1a1a1;stroke-width:1.87039983;stroke-linecap:round;stroke-linejoin:round;stroke-miterlimit:10;stroke-opacity:1;stroke-dasharray:none"
   id="path4399-31"
   sodipodi:nodetypes="cc" /></g><g
     inkscape:groupmode="layer"
     id="layer1"
     inkscape:label="ideal spectrum"
     transform="translate(67.311061,234.38403)" /></svg>