<?xml version="1.0" encoding="UTF-8" standalone="no"?>
<!-- Created with Inkscape (http://www.inkscape.org/) -->

<svg
   xmlns:dc="http://purl.org/dc/elements/1.1/"
   xmlns:cc="http://creativecommons.org/ns#"
   xmlns:rdf="http://www.w3.org/1999/02/22-rdf-syntax-ns#"
   xmlns:svg="http://www.w3.org/2000/svg"
   xmlns="http://www.w3.org/2000/svg"
   xmlns:sodipodi="http://sodipodi.sourceforge.net/DTD/sodipodi-0.dtd"
   xmlns:inkscape="http://www.inkscape.org/namespaces/inkscape"
   id="svg2"
   version="1.1"
   inkscape:version="0.47 r22583"
   width="672.23254"
   height="649.4964"
   xml:space="preserve"
   sodipodi:docname="fraction_docs_vs_fraction_citations.svg"><metadata
     id="metadata8"><rdf:RDF><cc:Work
         rdf:about=""><dc:format>image/svg+xml</dc:format><dc:type
           rdf:resource="http://purl.org/dc/dcmitype/StillImage" /><dc:title></dc:title></cc:Work></rdf:RDF></metadata><defs
     id="defs6"><inkscape:perspective
       sodipodi:type="inkscape:persp3d"
       inkscape:vp_x="0 : 0.5 : 1"
       inkscape:vp_y="0 : 1000 : 0"
       inkscape:vp_z="1 : 0.5 : 1"
       inkscape:persp3d-origin="0.5 : 0.33333333 : 1"
       id="perspective10" /><clipPath
       clipPathUnits="userSpaceOnUse"
       id="clipPath52"><path
         d="m 23.02,489.6 20.99,0 0,0 -20.99,0 z"
         id="path54" /></clipPath><clipPath
       clipPathUnits="userSpaceOnUse"
       id="clipPath62"><path
         d="m 23.02,489.6 20.99,0 0,0 -20.99,0 z"
         id="path64" /></clipPath><clipPath
       clipPathUnits="userSpaceOnUse"
       id="clipPath76"><path
         d="m 23.02,37.28 20.99,0 0,0 -20.99,0 z"
         id="path78" /></clipPath><clipPath
       clipPathUnits="userSpaceOnUse"
       id="clipPath86"><path
         d="m 23.02,23.02 20.99,0 0,14.27 -20.99,0 0,-14.27 z"
         id="path88" /></clipPath><clipPath
       clipPathUnits="userSpaceOnUse"
       id="clipPath96"><path
         d="m 23.02,23.02 20.99,0 0,0 -20.99,0 z"
         id="path98" /></clipPath><clipPath
       clipPathUnits="userSpaceOnUse"
       id="clipPath106"><path
         d="m 44,489.6 0,0 0,0 0,0 z"
         id="path108" /></clipPath><clipPath
       clipPathUnits="userSpaceOnUse"
       id="clipPath116"><path
         d="m 44,489.6 0,0 0,0 0,0 z"
         id="path118" /></clipPath><clipPath
       clipPathUnits="userSpaceOnUse"
       id="clipPath126"><path
         d="m 44,37.28 0,0 0,452.32 0,0 0,-452.32 z"
         id="path128" /></clipPath><clipPath
       clipPathUnits="userSpaceOnUse"
       id="clipPath136"><path
         d="m 44,37.28 0,0 0,0 0,0 z"
         id="path138" /></clipPath><clipPath
       clipPathUnits="userSpaceOnUse"
       id="clipPath146"><path
         d="m 44,23.02 0,0 0,14.27 0,0 0,-14.27 z"
         id="path148" /></clipPath><clipPath
       clipPathUnits="userSpaceOnUse"
       id="clipPath156"><path
         d="m 44,23.02 0,0 0,0 0,0 z"
         id="path158" /></clipPath><clipPath
       clipPathUnits="userSpaceOnUse"
       id="clipPath166"><path
         d="m 44,489.6 445.6,0 0,0 -445.6,0 z"
         id="path168" /></clipPath><clipPath
       clipPathUnits="userSpaceOnUse"
       id="clipPath176"><path
         d="m 44,489.6 445.6,0 0,0 -445.6,0 z"
         id="path178" /></clipPath><clipPath
       clipPathUnits="userSpaceOnUse"
       id="clipPath186"><path
         d="m 44,37.28 445.6,0 0,452.32 -445.6,0 0,-452.32 z"
         id="path188" /></clipPath><clipPath
       clipPathUnits="userSpaceOnUse"
       id="clipPath196"><path
         d="m 44,37.28 445.6,0 0,0 -445.6,0 z"
         id="path198" /></clipPath><clipPath
       clipPathUnits="userSpaceOnUse"
       id="clipPath210"><path
         d="m 44,23.02 445.6,0 0,0 -445.6,0 z"
         id="path212" /></clipPath><clipPath
       clipPathUnits="userSpaceOnUse"
       id="clipPath220"><path
         d="m 489.6,489.6 0,0 0,0 0,0 z"
         id="path222" /></clipPath><clipPath
       clipPathUnits="userSpaceOnUse"
       id="clipPath230"><path
         d="m 489.6,489.6 0,0 0,0 0,0 z"
         id="path232" /></clipPath><clipPath
       clipPathUnits="userSpaceOnUse"
       id="clipPath240"><path
         d="m 489.6,37.28 0,0 0,452.32 0,0 0,-452.32 z"
         id="path242" /></clipPath><clipPath
       clipPathUnits="userSpaceOnUse"
       id="clipPath250"><path
         d="m 489.6,37.28 0,0 0,0 0,0 z"
         id="path252" /></clipPath><clipPath
       clipPathUnits="userSpaceOnUse"
       id="clipPath260"><path
         d="m 489.6,23.02 0,0 0,14.27 0,0 0,-14.27 z"
         id="path262" /></clipPath><clipPath
       clipPathUnits="userSpaceOnUse"
       id="clipPath270"><path
         d="m 489.6,23.02 0,0 0,0 0,0 z"
         id="path272" /></clipPath><clipPath
       clipPathUnits="userSpaceOnUse"
       id="clipPath280"><path
         d="m 489.6,489.6 0,0 0,0 0,0 z"
         id="path282" /></clipPath><clipPath
       clipPathUnits="userSpaceOnUse"
       id="clipPath290"><path
         d="m 489.6,489.6 0,0 0,0 0,0 z"
         id="path292" /></clipPath><clipPath
       clipPathUnits="userSpaceOnUse"
       id="clipPath300"><path
         d="m 489.6,37.28 0,0 0,452.32 0,0 0,-452.32 z"
         id="path302" /></clipPath><clipPath
       clipPathUnits="userSpaceOnUse"
       id="clipPath310"><path
         d="m 489.6,37.28 0,0 0,0 0,0 z"
         id="path312" /></clipPath><clipPath
       clipPathUnits="userSpaceOnUse"
       id="clipPath320"><path
         d="m 489.6,23.02 0,0 0,14.27 0,0 0,-14.27 z"
         id="path322" /></clipPath><clipPath
       clipPathUnits="userSpaceOnUse"
       id="clipPath330"><path
         d="m 489.6,23.02 0,0 0,0 0,0 z"
         id="path332" /></clipPath><clipPath
       clipPathUnits="userSpaceOnUse"
       id="clipPath340"><path
         d="m 489.6,489.6 0,0 0,0 0,0 z"
         id="path342" /></clipPath><clipPath
       clipPathUnits="userSpaceOnUse"
       id="clipPath350"><path
         d="m 489.6,489.6 0,0 0,0 0,0 z"
         id="path352" /></clipPath><clipPath
       clipPathUnits="userSpaceOnUse"
       id="clipPath360"><path
         d="m 489.6,37.28 0,0 0,452.32 0,0 0,-452.32 z"
         id="path362" /></clipPath><clipPath
       clipPathUnits="userSpaceOnUse"
       id="clipPath370"><path
         d="m 489.6,37.28 0,0 0,0 0,0 z"
         id="path372" /></clipPath><clipPath
       clipPathUnits="userSpaceOnUse"
       id="clipPath380"><path
         d="m 489.6,23.02 0,0 0,14.27 0,0 0,-14.27 z"
         id="path382" /></clipPath><clipPath
       clipPathUnits="userSpaceOnUse"
       id="clipPath390"><path
         d="m 489.6,23.02 0,0 0,0 0,0 z"
         id="path392" /></clipPath><clipPath
       clipPathUnits="userSpaceOnUse"
       id="clipPath400"><path
         d="m 23.02,489.6 20.99,0 0,0 -20.99,0 z"
         id="path402" /></clipPath><clipPath
       clipPathUnits="userSpaceOnUse"
       id="clipPath410"><path
         d="m 23.02,489.6 20.99,0 0,0 -20.99,0 z"
         id="path412" /></clipPath><clipPath
       clipPathUnits="userSpaceOnUse"
       id="clipPath454"><path
         d="m 23.02,37.28 20.99,0 0,0 -20.99,0 z"
         id="path456" /></clipPath><clipPath
       clipPathUnits="userSpaceOnUse"
       id="clipPath464"><path
         d="m 23.02,23.02 20.99,0 0,14.27 -20.99,0 0,-14.27 z"
         id="path466" /></clipPath><clipPath
       clipPathUnits="userSpaceOnUse"
       id="clipPath474"><path
         d="m 23.02,23.02 20.99,0 0,0 -20.99,0 z"
         id="path476" /></clipPath><clipPath
       clipPathUnits="userSpaceOnUse"
       id="clipPath484"><path
         d="m 44,489.6 0,0 0,0 0,0 z"
         id="path486" /></clipPath><clipPath
       clipPathUnits="userSpaceOnUse"
       id="clipPath494"><path
         d="m 44,489.6 0,0 0,0 0,0 z"
         id="path496" /></clipPath><clipPath
       clipPathUnits="userSpaceOnUse"
       id="clipPath504"><path
         d="m 44,37.28 0,0 0,452.32 0,0 0,-452.32 z"
         id="path506" /></clipPath><clipPath
       clipPathUnits="userSpaceOnUse"
       id="clipPath514"><path
         d="m 44,37.28 0,0 0,0 0,0 z"
         id="path516" /></clipPath><clipPath
       clipPathUnits="userSpaceOnUse"
       id="clipPath524"><path
         d="m 44,23.02 0,0 0,14.27 0,0 0,-14.27 z"
         id="path526" /></clipPath><clipPath
       clipPathUnits="userSpaceOnUse"
       id="clipPath534"><path
         d="m 44,23.02 0,0 0,0 0,0 z"
         id="path536" /></clipPath><clipPath
       clipPathUnits="userSpaceOnUse"
       id="clipPath544"><path
         d="m 44,489.6 445.6,0 0,0 -445.6,0 z"
         id="path546" /></clipPath><clipPath
       clipPathUnits="userSpaceOnUse"
       id="clipPath554"><path
         d="m 44,489.6 445.6,0 0,0 -445.6,0 z"
         id="path556" /></clipPath><clipPath
       clipPathUnits="userSpaceOnUse"
       id="clipPath564"><path
         d="m 44,37.28 445.6,0 0,452.32 -445.6,0 0,-452.32 z"
         id="path566" /></clipPath><clipPath
       clipPathUnits="userSpaceOnUse"
       id="clipPath644"><path
         d="m 44,37.28 445.6,0 0,0 -445.6,0 z"
         id="path646" /></clipPath><clipPath
       clipPathUnits="userSpaceOnUse"
       id="clipPath688"><path
         d="m 44,23.02 445.6,0 0,0 -445.6,0 z"
         id="path690" /></clipPath><clipPath
       clipPathUnits="userSpaceOnUse"
       id="clipPath698"><path
         d="m 489.6,489.6 0,0 0,0 0,0 z"
         id="path700" /></clipPath><clipPath
       clipPathUnits="userSpaceOnUse"
       id="clipPath708"><path
         d="m 489.6,489.6 0,0 0,0 0,0 z"
         id="path710" /></clipPath><clipPath
       clipPathUnits="userSpaceOnUse"
       id="clipPath718"><path
         d="m 489.6,37.28 0,0 0,452.32 0,0 0,-452.32 z"
         id="path720" /></clipPath><clipPath
       clipPathUnits="userSpaceOnUse"
       id="clipPath728"><path
         d="m 489.6,37.28 0,0 0,0 0,0 z"
         id="path730" /></clipPath><clipPath
       clipPathUnits="userSpaceOnUse"
       id="clipPath738"><path
         d="m 489.6,23.02 0,0 0,14.27 0,0 0,-14.27 z"
         id="path740" /></clipPath><clipPath
       clipPathUnits="userSpaceOnUse"
       id="clipPath748"><path
         d="m 489.6,23.02 0,0 0,0 0,0 z"
         id="path750" /></clipPath><clipPath
       clipPathUnits="userSpaceOnUse"
       id="clipPath758"><path
         d="m 489.6,489.6 0,0 0,0 0,0 z"
         id="path760" /></clipPath><clipPath
       clipPathUnits="userSpaceOnUse"
       id="clipPath768"><path
         d="m 489.6,489.6 0,0 0,0 0,0 z"
         id="path770" /></clipPath><clipPath
       clipPathUnits="userSpaceOnUse"
       id="clipPath778"><path
         d="m 489.6,37.28 0,0 0,452.32 0,0 0,-452.32 z"
         id="path780" /></clipPath><clipPath
       clipPathUnits="userSpaceOnUse"
       id="clipPath788"><path
         d="m 489.6,37.28 0,0 0,0 0,0 z"
         id="path790" /></clipPath><clipPath
       clipPathUnits="userSpaceOnUse"
       id="clipPath798"><path
         d="m 489.6,23.02 0,0 0,14.27 0,0 0,-14.27 z"
         id="path800" /></clipPath><clipPath
       clipPathUnits="userSpaceOnUse"
       id="clipPath808"><path
         d="m 489.6,23.02 0,0 0,0 0,0 z"
         id="path810" /></clipPath><clipPath
       clipPathUnits="userSpaceOnUse"
       id="clipPath818"><path
         d="m 489.6,489.6 0,0 0,0 0,0 z"
         id="path820" /></clipPath><clipPath
       clipPathUnits="userSpaceOnUse"
       id="clipPath828"><path
         d="m 489.6,489.6 0,0 0,0 0,0 z"
         id="path830" /></clipPath><clipPath
       clipPathUnits="userSpaceOnUse"
       id="clipPath838"><path
         d="m 489.6,37.28 0,0 0,452.32 0,0 0,-452.32 z"
         id="path840" /></clipPath><clipPath
       clipPathUnits="userSpaceOnUse"
       id="clipPath848"><path
         d="m 489.6,37.28 0,0 0,0 0,0 z"
         id="path850" /></clipPath><clipPath
       clipPathUnits="userSpaceOnUse"
       id="clipPath858"><path
         d="m 489.6,23.02 0,0 0,14.27 0,0 0,-14.27 z"
         id="path860" /></clipPath><clipPath
       clipPathUnits="userSpaceOnUse"
       id="clipPath868"><path
         d="m 489.6,23.02 0,0 0,0 0,0 z"
         id="path870" /></clipPath></defs><sodipodi:namedview
     pagecolor="#ffffff"
     bordercolor="#666666"
     borderopacity="1"
     objecttolerance="10"
     gridtolerance="10"
     guidetolerance="10"
     inkscape:pageopacity="0"
     inkscape:pageshadow="2"
     inkscape:window-width="1067"
     inkscape:window-height="615"
     id="namedview4"
     showgrid="false"
     inkscape:zoom="1.0595378"
     inkscape:cx="451.32124"
     inkscape:cy="424.5424"
     inkscape:window-x="464"
     inkscape:window-y="96"
     inkscape:window-maximized="0"
     inkscape:current-layer="g12" /><g
     id="g12"
     inkscape:groupmode="layer"
     inkscape:label="fraction_docs_vs_fraction_citations"
     transform="matrix(1.25,0,0,-1.25,42.232543,630)"><g
       id="g14" /><g
       id="g16" /><g
       id="g18" /><g
       id="g20" /><g
       id="g22" /><g
       id="g24" /><g
       id="g26" /><path
       id="path30"
       style="fill:#ffffff;fill-opacity:1;fill-rule:nonzero;stroke:none"
       d="M 0,0 504,0 504,504 0,504 0,0 z" /><g
       id="g32" /><g
       id="g34"
       transform="matrix(2.4215581,0,0,2.0000612,-366.23701,-36.645754)"><text
         transform="matrix(1,0,0,-1,152.89,10.8)"
         id="text36"><tspan
           style="font-size:12px;font-variant:normal;font-weight:normal;writing-mode:lr-tb;fill:#000000;fill-opacity:1;fill-rule:nonzero;stroke:none;font-family:Helvetica;-inkscape-font-specification:Helvetica"
           x="0 7.3319998 11.208 17.879999 23.879999 27.216 29.879999 36.551998 43.223999 46.560001 53.231998 56.568001 59.903999 66.575996 73.248001 79.248001 85.919998 95.916 102.588 109.26 112.596 118.596 121.932 128.604 135.276 141.76801 147.468 154.14 157.476 160.812 167.48399 171.48 178.15199 184.15199 190.82401 197.496 200.16"
           y="0"
           sodipodi:role="line"
           id="tspan38">Fraction of documents above threshold</tspan></text>
</g><g
       id="g40"
       transform="matrix(2.1667381,0,0,1.99962,-56.831461,-272.99553)"><text
         transform="matrix(0,1,1,0,19.42,160.23)"
         id="text42"><tspan
           style="font-size:12px;font-variant:normal;font-weight:normal;writing-mode:lr-tb;fill:#000000;fill-opacity:1;fill-rule:nonzero;stroke:none;font-family:Helvetica;-inkscape-font-specification:Helvetica"
           x="0 7.3319998 11.208 17.879999 23.879999 27.216 29.879999 36.551998 43.223999 46.560001 53.231998 56.568001 59.903999 65.903999 68.568001 71.903999 78.575996 81.912003 84.575996 91.248001 97.919998 103.92 107.256 113.928 120.6 127.092 132.79201 139.464 142.8 146.136 152.808 156.804 163.476 169.476 176.14799 182.82001 185.48399"
           y="0"
           sodipodi:role="line"
           id="tspan44">Fraction of citations above threshold</tspan></text>
</g><g
       id="g46" /><g
       id="g48"><g
         id="g50"
         clip-path="url(#clipPath52)" /></g><g
       id="g56" /><g
       id="g58"><g
         id="g60"
         clip-path="url(#clipPath62)" /></g><g
       id="g66" /><g
       id="g68" /><g
       id="g70" /><g
       id="g72"><g
         id="g74"
         clip-path="url(#clipPath76)" /></g><g
       id="g80" /><g
       id="g82"><g
         id="g84"
         clip-path="url(#clipPath86)" /></g><g
       id="g90" /><g
       id="g92"><g
         id="g94"
         clip-path="url(#clipPath96)" /></g><g
       id="g100" /><g
       id="g102"><g
         id="g104"
         clip-path="url(#clipPath106)" /></g><g
       id="g110" /><g
       id="g112"><g
         id="g114"
         clip-path="url(#clipPath116)" /></g><g
       id="g120" /><g
       id="g122"><g
         id="g124"
         clip-path="url(#clipPath126)" /></g><g
       id="g130" /><g
       id="g132"><g
         id="g134"
         clip-path="url(#clipPath136)" /></g><g
       id="g140" /><g
       id="g142"><g
         id="g144"
         clip-path="url(#clipPath146)" /></g><g
       id="g150" /><g
       id="g152"><g
         id="g154"
         clip-path="url(#clipPath156)" /></g><g
       id="g160" /><g
       id="g162"><g
         id="g164"
         clip-path="url(#clipPath166)" /></g><g
       id="g170" /><g
       id="g172"><g
         id="g174"
         clip-path="url(#clipPath176)" /></g><g
       id="g180" /><g
       id="g182"><g
         id="g184"
         clip-path="url(#clipPath186)" /></g><g
       id="g190" /><g
       id="g192"><g
         id="g194"
         clip-path="url(#clipPath196)" /></g><g
       id="g200" /><g
       id="g202" /><g
       id="g204" /><g
       id="g206"><g
         id="g208"
         clip-path="url(#clipPath210)" /></g><g
       id="g214" /><g
       id="g216"><g
         id="g218"
         clip-path="url(#clipPath220)" /></g><g
       id="g224" /><g
       id="g226"><g
         id="g228"
         clip-path="url(#clipPath230)" /></g><g
       id="g234" /><g
       id="g236"><g
         id="g238"
         clip-path="url(#clipPath240)" /></g><g
       id="g244" /><g
       id="g246"><g
         id="g248"
         clip-path="url(#clipPath250)" /></g><g
       id="g254" /><g
       id="g256"><g
         id="g258"
         clip-path="url(#clipPath260)" /></g><g
       id="g264" /><g
       id="g266"><g
         id="g268"
         clip-path="url(#clipPath270)" /></g><g
       id="g274" /><g
       id="g276"><g
         id="g278"
         clip-path="url(#clipPath280)" /></g><g
       id="g284" /><g
       id="g286"><g
         id="g288"
         clip-path="url(#clipPath290)" /></g><g
       id="g294" /><g
       id="g296"><g
         id="g298"
         clip-path="url(#clipPath300)" /></g><g
       id="g304" /><g
       id="g306"><g
         id="g308"
         clip-path="url(#clipPath310)" /></g><g
       id="g314" /><g
       id="g316"><g
         id="g318"
         clip-path="url(#clipPath320)" /></g><g
       id="g324" /><g
       id="g326"><g
         id="g328"
         clip-path="url(#clipPath330)" /></g><g
       id="g334" /><g
       id="g336"><g
         id="g338"
         clip-path="url(#clipPath340)" /></g><g
       id="g344" /><g
       id="g346"><g
         id="g348"
         clip-path="url(#clipPath350)" /></g><g
       id="g354" /><g
       id="g356"><g
         id="g358"
         clip-path="url(#clipPath360)" /></g><g
       id="g364" /><g
       id="g366"><g
         id="g368"
         clip-path="url(#clipPath370)" /></g><g
       id="g374" /><g
       id="g376"><g
         id="g378"
         clip-path="url(#clipPath380)" /></g><g
       id="g384" /><g
       id="g386"><g
         id="g388"
         clip-path="url(#clipPath390)" /></g><g
       id="g394" /><g
       id="g396"><g
         id="g398"
         clip-path="url(#clipPath400)" /></g><g
       id="g404" /><g
       id="g406"><g
         id="g408"
         clip-path="url(#clipPath410)" /></g><g
       id="g414" /><path
       id="path418"
       style="fill:none;stroke:#7f7f7f;stroke-width:1.05999994;stroke-linecap:round;stroke-linejoin:round;stroke-miterlimit:10;stroke-opacity:1;stroke-dasharray:none"
       d="m 39.75,57.84 4.25,0" /><path
       id="path420"
       style="fill:none;stroke:#7f7f7f;stroke-width:1.05999994;stroke-linecap:round;stroke-linejoin:round;stroke-miterlimit:10;stroke-opacity:1;stroke-dasharray:none"
       d="m 39.75,140.09 4.25,0" /><path
       id="path422"
       style="fill:none;stroke:#7f7f7f;stroke-width:1.05999994;stroke-linecap:round;stroke-linejoin:round;stroke-miterlimit:10;stroke-opacity:1;stroke-dasharray:none"
       d="m 39.75,222.33 4.25,0" /><path
       id="path424"
       style="fill:none;stroke:#7f7f7f;stroke-width:1.05999994;stroke-linecap:round;stroke-linejoin:round;stroke-miterlimit:10;stroke-opacity:1;stroke-dasharray:none"
       d="m 39.75,304.57 4.25,0" /><path
       id="path426"
       style="fill:none;stroke:#7f7f7f;stroke-width:1.05999994;stroke-linecap:round;stroke-linejoin:round;stroke-miterlimit:10;stroke-opacity:1;stroke-dasharray:none"
       d="m 39.75,386.82 4.25,0" /><text
       id="text428"
       transform="scale(0.81882796,-1.2212578)"
       x="13.293544"
       y="-44.768154"
       style="font-size:27.91666794px"><tspan
         id="tspan430"
         sodipodi:role="line"
         y="-44.768154"
         x="13.293544 26.228266 32.695629"
         style="font-size:23.26389122px;font-variant:normal;font-weight:normal;writing-mode:lr-tb;fill:#7f7f7f;fill-opacity:1;fill-rule:nonzero;stroke:none;font-family:Helvetica;-inkscape-font-specification:Helvetica">0.0</tspan></text>
<text
       id="text432"
       transform="scale(0.86077368,-1.1617456)"
       x="13.553275"
       y="-117.79037"
       style="font-size:25.70907211px"><tspan
         id="tspan434"
         sodipodi:role="line"
         y="-117.79037"
         x="13.553275 25.465145 31.421082"
         style="font-size:21.42422676px;font-variant:normal;font-weight:normal;writing-mode:lr-tb;fill:#7f7f7f;fill-opacity:1;fill-rule:nonzero;stroke:none;font-family:Helvetica;-inkscape-font-specification:Helvetica">0.2</tspan></text>
<text
       id="text436"
       transform="scale(0.83894957,-1.1919668)"
       x="12.819828"
       y="-183.84135"
       style="font-size:27.2600975px"><tspan
         id="tspan438"
         sodipodi:role="line"
         y="-183.84135"
         x="12.819828 25.450338 31.765594"
         style="font-size:22.71674728px;font-variant:normal;font-weight:normal;writing-mode:lr-tb;fill:#7f7f7f;fill-opacity:1;fill-rule:nonzero;stroke:none;font-family:Helvetica;-inkscape-font-specification:Helvetica">0.4</tspan></text>
<text
       id="text440"
       transform="scale(0.83303839,-1.2004249)"
       x="11.584208"
       y="-251.08646"
       style="font-size:28.70315933px"><tspan
         id="tspan442"
         sodipodi:role="line"
         y="-251.08646"
         x="11.584208 24.883337 31.532904"
         style="font-size:23.91930008px;font-variant:normal;font-weight:normal;writing-mode:lr-tb;fill:#7f7f7f;fill-opacity:1;fill-rule:nonzero;stroke:none;font-family:Helvetica;-inkscape-font-specification:Helvetica">0.6</tspan></text>
<text
       id="text444"
       transform="scale(0.81368723,-1.2289735)"
       x="14.173803"
       y="-312.16595"
       style="font-size:27.32422066px"><tspan
         id="tspan446"
         sodipodi:role="line"
         y="-312.16595"
         x="14.173803 26.834026 33.164139"
         style="font-size:22.77018547px;font-variant:normal;font-weight:normal;writing-mode:lr-tb;fill:#7f7f7f;fill-opacity:1;fill-rule:nonzero;stroke:none;font-family:Helvetica;-inkscape-font-specification:Helvetica">0.8</tspan></text>
<g
       id="g448" /><g
       id="g450"><g
         id="g452"
         clip-path="url(#clipPath454)" /></g><g
       id="g458" /><g
       id="g460"><g
         id="g462"
         clip-path="url(#clipPath464)" /></g><g
       id="g468" /><g
       id="g470"><g
         id="g472"
         clip-path="url(#clipPath474)" /></g><g
       id="g478" /><g
       id="g480"><g
         id="g482"
         clip-path="url(#clipPath484)" /></g><g
       id="g488" /><g
       id="g490"><g
         id="g492"
         clip-path="url(#clipPath494)" /></g><g
       id="g498" /><g
       id="g500"><g
         id="g502"
         clip-path="url(#clipPath504)" /></g><g
       id="g508" /><g
       id="g510"><g
         id="g512"
         clip-path="url(#clipPath514)" /></g><g
       id="g518" /><g
       id="g520"><g
         id="g522"
         clip-path="url(#clipPath524)" /></g><g
       id="g528" /><g
       id="g530"><g
         id="g532"
         clip-path="url(#clipPath534)" /></g><g
       id="g538" /><g
       id="g540"><g
         id="g542"
         clip-path="url(#clipPath544)" /></g><g
       id="g548" /><g
       id="g550"><g
         id="g552"
         clip-path="url(#clipPath554)" /></g><g
       id="g558" /><path
       d="m 44,57.84 445.6,0"
       style="fill:none;stroke:#f2f2f2;stroke-width:0.52999997;stroke-linecap:round;stroke-linejoin:round;stroke-miterlimit:10;stroke-opacity:1;stroke-dasharray:none"
       id="path570" /><path
       d="m 44,98.96 445.6,0"
       style="fill:none;stroke:#f2f2f2;stroke-width:0.52999997;stroke-linecap:round;stroke-linejoin:round;stroke-miterlimit:10;stroke-opacity:1;stroke-dasharray:none"
       id="path572" /><path
       d="m 44,140.09 445.6,0"
       style="fill:none;stroke:#f2f2f2;stroke-width:0.52999997;stroke-linecap:round;stroke-linejoin:round;stroke-miterlimit:10;stroke-opacity:1;stroke-dasharray:none"
       id="path574" /><path
       d="m 44,181.21 445.6,0"
       style="fill:none;stroke:#f2f2f2;stroke-width:0.52999997;stroke-linecap:round;stroke-linejoin:round;stroke-miterlimit:10;stroke-opacity:1;stroke-dasharray:none"
       id="path576" /><path
       d="m 44,222.33 445.6,0"
       style="fill:none;stroke:#f2f2f2;stroke-width:0.52999997;stroke-linecap:round;stroke-linejoin:round;stroke-miterlimit:10;stroke-opacity:1;stroke-dasharray:none"
       id="path578" /><path
       d="m 44,263.45 445.6,0"
       style="fill:none;stroke:#f2f2f2;stroke-width:0.52999997;stroke-linecap:round;stroke-linejoin:round;stroke-miterlimit:10;stroke-opacity:1;stroke-dasharray:none"
       id="path580" /><path
       d="m 44,304.57 445.6,0"
       style="fill:none;stroke:#f2f2f2;stroke-width:0.52999997;stroke-linecap:round;stroke-linejoin:round;stroke-miterlimit:10;stroke-opacity:1;stroke-dasharray:none"
       id="path582" /><path
       d="m 44,345.7 445.6,0"
       style="fill:none;stroke:#f2f2f2;stroke-width:0.52999997;stroke-linecap:round;stroke-linejoin:round;stroke-miterlimit:10;stroke-opacity:1;stroke-dasharray:none"
       id="path584" /><path
       d="m 44,386.82 445.6,0"
       style="fill:none;stroke:#f2f2f2;stroke-width:0.52999997;stroke-linecap:round;stroke-linejoin:round;stroke-miterlimit:10;stroke-opacity:1;stroke-dasharray:none"
       id="path586" /><path
       d="m 44,427.94 445.6,0"
       style="fill:none;stroke:#f2f2f2;stroke-width:0.52999997;stroke-linecap:round;stroke-linejoin:round;stroke-miterlimit:10;stroke-opacity:1;stroke-dasharray:none"
       id="path588" /><path
       d="m 44,469.06 445.6,0"
       style="fill:none;stroke:#f2f2f2;stroke-width:0.52999997;stroke-linecap:round;stroke-linejoin:round;stroke-miterlimit:10;stroke-opacity:1;stroke-dasharray:none"
       id="path590" /><path
       d="m 64.26,37.28 0,452.32"
       style="fill:none;stroke:#f2f2f2;stroke-width:0.52999997;stroke-linecap:round;stroke-linejoin:round;stroke-miterlimit:10;stroke-opacity:1;stroke-dasharray:none"
       id="path592" /><path
       d="m 104.77,37.28 0,452.32"
       style="fill:none;stroke:#f2f2f2;stroke-width:0.52999997;stroke-linecap:round;stroke-linejoin:round;stroke-miterlimit:10;stroke-opacity:1;stroke-dasharray:none"
       id="path594" /><path
       d="m 145.28,37.28 0,452.32"
       style="fill:none;stroke:#f2f2f2;stroke-width:0.52999997;stroke-linecap:round;stroke-linejoin:round;stroke-miterlimit:10;stroke-opacity:1;stroke-dasharray:none"
       id="path596" /><path
       d="m 185.79,37.28 0,452.32"
       style="fill:none;stroke:#f2f2f2;stroke-width:0.52999997;stroke-linecap:round;stroke-linejoin:round;stroke-miterlimit:10;stroke-opacity:1;stroke-dasharray:none"
       id="path598" /><path
       d="m 226.31,37.28 0,452.32"
       style="fill:none;stroke:#f2f2f2;stroke-width:0.52999997;stroke-linecap:round;stroke-linejoin:round;stroke-miterlimit:10;stroke-opacity:1;stroke-dasharray:none"
       id="path600" /><path
       d="m 266.82,37.28 0,452.32"
       style="fill:none;stroke:#f2f2f2;stroke-width:0.52999997;stroke-linecap:round;stroke-linejoin:round;stroke-miterlimit:10;stroke-opacity:1;stroke-dasharray:none"
       id="path602" /><path
       d="m 307.33,37.28 0,452.32"
       style="fill:none;stroke:#f2f2f2;stroke-width:0.52999997;stroke-linecap:round;stroke-linejoin:round;stroke-miterlimit:10;stroke-opacity:1;stroke-dasharray:none"
       id="path604" /><path
       d="m 347.85,37.28 0,452.32"
       style="fill:none;stroke:#f2f2f2;stroke-width:0.52999997;stroke-linecap:round;stroke-linejoin:round;stroke-miterlimit:10;stroke-opacity:1;stroke-dasharray:none"
       id="path606" /><path
       d="m 388.36,37.28 0,452.32"
       style="fill:none;stroke:#f2f2f2;stroke-width:0.52999997;stroke-linecap:round;stroke-linejoin:round;stroke-miterlimit:10;stroke-opacity:1;stroke-dasharray:none"
       id="path608" /><path
       d="m 428.87,37.28 0,452.32"
       style="fill:none;stroke:#f2f2f2;stroke-width:0.52999997;stroke-linecap:round;stroke-linejoin:round;stroke-miterlimit:10;stroke-opacity:1;stroke-dasharray:none"
       id="path610" /><path
       d="m 469.38,37.28 0,452.32"
       style="fill:none;stroke:#f2f2f2;stroke-width:0.52999997;stroke-linecap:round;stroke-linejoin:round;stroke-miterlimit:10;stroke-opacity:1;stroke-dasharray:none"
       id="path612" /><path
       d="m 44,57.84 445.6,0"
       style="fill:none;stroke:#ffffff;stroke-width:1.05999994;stroke-linecap:round;stroke-linejoin:round;stroke-miterlimit:10;stroke-opacity:1;stroke-dasharray:none"
       id="path614" /><path
       d="m 44,140.09 445.6,0"
       style="fill:none;stroke:#ffffff;stroke-width:1.05999994;stroke-linecap:round;stroke-linejoin:round;stroke-miterlimit:10;stroke-opacity:1;stroke-dasharray:none"
       id="path616" /><path
       d="m 44,222.33 445.6,0"
       style="fill:none;stroke:#ffffff;stroke-width:1.05999994;stroke-linecap:round;stroke-linejoin:round;stroke-miterlimit:10;stroke-opacity:1;stroke-dasharray:none"
       id="path618" /><path
       d="m 44,304.57 445.6,0"
       style="fill:none;stroke:#ffffff;stroke-width:1.05999994;stroke-linecap:round;stroke-linejoin:round;stroke-miterlimit:10;stroke-opacity:1;stroke-dasharray:none"
       id="path620" /><path
       d="m 44,386.82 445.6,0"
       style="fill:none;stroke:#ffffff;stroke-width:1.05999994;stroke-linecap:round;stroke-linejoin:round;stroke-miterlimit:10;stroke-opacity:1;stroke-dasharray:none"
       id="path622" /><path
       d="m 64.26,37.28 0,452.32"
       style="fill:none;stroke:#ffffff;stroke-width:1.05999994;stroke-linecap:round;stroke-linejoin:round;stroke-miterlimit:10;stroke-opacity:1;stroke-dasharray:none"
       id="path624" /><path
       d="m 145.28,37.28 0,452.32"
       style="fill:none;stroke:#ffffff;stroke-width:1.05999994;stroke-linecap:round;stroke-linejoin:round;stroke-miterlimit:10;stroke-opacity:1;stroke-dasharray:none"
       id="path626" /><path
       d="m 226.31,37.28 0,452.32"
       style="fill:none;stroke:#ffffff;stroke-width:1.05999994;stroke-linecap:round;stroke-linejoin:round;stroke-miterlimit:10;stroke-opacity:1;stroke-dasharray:none"
       id="path628" /><path
       d="m 307.33,37.28 0,452.32"
       style="fill:none;stroke:#ffffff;stroke-width:1.05999994;stroke-linecap:round;stroke-linejoin:round;stroke-miterlimit:10;stroke-opacity:1;stroke-dasharray:none"
       id="path630" /><path
       d="m 388.36,37.28 0,452.32"
       style="fill:none;stroke:#ffffff;stroke-width:1.05999994;stroke-linecap:round;stroke-linejoin:round;stroke-miterlimit:10;stroke-opacity:1;stroke-dasharray:none"
       id="path632" /><path
       d="m 44,37.28 445.6,452.3"
       style="fill:none;stroke:#818181;stroke-width:3.51999998;stroke-linecap:butt;stroke-linejoin:round;stroke-miterlimit:10;stroke-opacity:1;stroke-dasharray:3.52, 3.52;stroke-dashoffset:0"
       id="path636" /><g
       id="g638" /><g
       id="g640"><g
         id="g642"
         clip-path="url(#clipPath644)" /></g><g
       id="g648" /><path
       id="path652"
       style="fill:none;stroke:#7f7f7f;stroke-width:1.05999994;stroke-linecap:round;stroke-linejoin:round;stroke-miterlimit:10;stroke-opacity:1;stroke-dasharray:none"
       d="m 64.26,33.03 0,4.25" /><path
       id="path654"
       style="fill:none;stroke:#7f7f7f;stroke-width:1.05999994;stroke-linecap:round;stroke-linejoin:round;stroke-miterlimit:10;stroke-opacity:1;stroke-dasharray:none"
       d="m 145.28,33.03 0,4.25" /><path
       id="path656"
       style="fill:none;stroke:#7f7f7f;stroke-width:1.05999994;stroke-linecap:round;stroke-linejoin:round;stroke-miterlimit:10;stroke-opacity:1;stroke-dasharray:none"
       d="m 226.31,33.03 0,4.25" /><path
       id="path658"
       style="fill:none;stroke:#7f7f7f;stroke-width:1.05999994;stroke-linecap:round;stroke-linejoin:round;stroke-miterlimit:10;stroke-opacity:1;stroke-dasharray:none"
       d="m 307.33,33.03 0,4.25" /><path
       id="path660"
       style="fill:none;stroke:#7f7f7f;stroke-width:1.05999994;stroke-linecap:round;stroke-linejoin:round;stroke-miterlimit:10;stroke-opacity:1;stroke-dasharray:none"
       d="m 388.36,33.03 0,4.25" /><text
       id="text662"
       transform="scale(0.96453148,-1.0367728)"
       x="52.268658"
       y="-13.225453"
       style="font-size:26.76997185px"><tspan
         id="tspan664"
         sodipodi:role="line"
         y="-13.225453"
         x="52.268658 64.672073 70.873787"
         style="font-size:22.30830765px;font-variant:normal;font-weight:normal;writing-mode:lr-tb;fill:#7f7f7f;fill-opacity:1;fill-rule:nonzero;stroke:none;font-family:Helvetica;-inkscape-font-specification:Helvetica">0.0</tspan></text>
<text
       id="text666"
       transform="scale(0.89831877,-1.1131906)"
       x="146.3922"
       y="-11.388476"
       style="font-size:26.50477219px"><tspan
         id="tspan668"
         sodipodi:role="line"
         y="-11.388476"
         x="146.3922 158.67273 164.813"
         style="font-size:22.08731079px;font-variant:normal;font-weight:normal;writing-mode:lr-tb;fill:#7f7f7f;fill-opacity:1;fill-rule:nonzero;stroke:none;font-family:Helvetica;-inkscape-font-specification:Helvetica">0.2</tspan></text>
<text
       id="text670"
       transform="scale(0.89678804,-1.1150907)"
       x="237.00105"
       y="-11.36907"
       style="font-size:26.45960808px"><tspan
         id="tspan672"
         sodipodi:role="line"
         y="-11.36907"
         x="237.00105 249.26067 255.39047"
         style="font-size:22.04967499px;font-variant:normal;font-weight:normal;writing-mode:lr-tb;fill:#7f7f7f;fill-opacity:1;fill-rule:nonzero;stroke:none;font-family:Helvetica;-inkscape-font-specification:Helvetica">0.4</tspan></text>
<text
       id="text674"
       transform="scale(0.94478846,-1.058438)"
       x="310.67508"
       y="-12.954741"
       style="font-size:26.22201538px"><tspan
         id="tspan676"
         sodipodi:role="line"
         y="-12.954741"
         x="310.67508 322.82462 328.89938"
         style="font-size:21.85167885px;font-variant:normal;font-weight:normal;writing-mode:lr-tb;fill:#7f7f7f;fill-opacity:1;fill-rule:nonzero;stroke:none;font-family:Helvetica;-inkscape-font-specification:Helvetica">0.6</tspan></text>
<text
       id="text678"
       transform="scale(0.92586206,-1.0800745)"
       x="404.58237"
       y="-12.695226"
       style="font-size:25.69672394px"><tspan
         id="tspan680"
         sodipodi:role="line"
         y="-12.695226"
         x="404.58237 416.48853 422.44159"
         style="font-size:21.41393661px;font-variant:normal;font-weight:normal;writing-mode:lr-tb;fill:#7f7f7f;fill-opacity:1;fill-rule:nonzero;stroke:none;font-family:Helvetica;-inkscape-font-specification:Helvetica">0.8</tspan></text>
<g
       id="g682" /><g
       id="g684"><g
         id="g686"
         clip-path="url(#clipPath688)" /></g><g
       id="g692" /><g
       id="g694"><g
         id="g696"
         clip-path="url(#clipPath698)" /></g><g
       id="g702" /><g
       id="g704"><g
         id="g706"
         clip-path="url(#clipPath708)" /></g><g
       id="g712" /><g
       id="g714"><g
         id="g716"
         clip-path="url(#clipPath718)" /></g><g
       id="g722" /><g
       id="g724"><g
         id="g726"
         clip-path="url(#clipPath728)" /></g><g
       id="g732" /><g
       id="g734"><g
         id="g736"
         clip-path="url(#clipPath738)" /></g><g
       id="g742" /><g
       id="g744"><g
         id="g746"
         clip-path="url(#clipPath748)" /></g><g
       id="g752" /><g
       id="g754"><g
         id="g756"
         clip-path="url(#clipPath758)" /></g><g
       id="g762" /><g
       id="g764"><g
         id="g766"
         clip-path="url(#clipPath768)" /></g><g
       id="g772" /><g
       id="g774"><g
         id="g776"
         clip-path="url(#clipPath778)" /></g><g
       id="g782" /><g
       id="g784"><g
         id="g786"
         clip-path="url(#clipPath788)" /></g><g
       id="g792" /><g
       id="g794"><g
         id="g796"
         clip-path="url(#clipPath798)" /></g><g
       id="g802" /><g
       id="g804"><g
         id="g806"
         clip-path="url(#clipPath808)" /></g><g
       id="g812" /><g
       id="g814"><g
         id="g816"
         clip-path="url(#clipPath818)" /></g><g
       id="g822" /><g
       id="g824"><g
         id="g826"
         clip-path="url(#clipPath828)" /></g><g
       id="g832" /><g
       id="g834"><g
         id="g836"
         clip-path="url(#clipPath838)" /></g><g
       id="g842" /><g
       id="g844"><g
         id="g846"
         clip-path="url(#clipPath848)" /></g><g
       id="g852" /><g
       id="g854"><g
         id="g856"
         clip-path="url(#clipPath858)" /></g><g
       id="g862" /><g
       id="g864"><g
         id="g866"
         clip-path="url(#clipPath868)" /></g><g
       id="g872" /><g
       id="g874" /><g
       id="g876" /><rect
       style="fill:#ffffff;fill-opacity:0;stroke:#c1c1c1;stroke-width:0.95999998;stroke-miterlimit:10;stroke-opacity:1;stroke-dasharray:none;stroke-dashoffset:0"
       id="rect4556"
       width="405.16861"
       height="412.92456"
       x="64.050835"
       y="-469.83051"
       transform="scale(1,-1)"
       ry="0" /><path
       d="m 64.26,57.84 4.05,9.97 4.06,9.49 4.06,8.03 4.06,7.73 4.05,7.53 4.02,7.66 4.06,6.47 4.06,7.27 4.05,7.14 4.06,5.96 4.06,5.91 4.02,5.97 4.06,5.15 4.05,5.76 4.06,6.35 4.06,5.43 4.06,5.69 4.02,6.19 4.05,5.79 4.06,4.86 4.06,5.09 4.05,4.86 4.06,5.35 4.02,4.12 4.06,4.98 4.06,5.23 4.05,5.52 4.06,5.46 4.06,4.41 4.02,4.86 4.05,4.79 4.06,5.26 4.06,4.51 4.06,4.42 4.05,4.06 4.02,4.12 4.06,4.03 4.06,4.45 4.06,4.76 4.05,4.51 4.06,4.18 4.02,3.91 4.06,3.87 4.05,4.08 4.06,3.83 4.06,3.87 4.06,3.83 4.02,4.12 4.05,3.71 4.06,3.5 4.06,3.58 4.05,4.92 4.02,3.22 4.06,3.02 4.06,4.12 4.06,4 4.05,3.56 4.06,4.28 4.02,3.09 4.06,3.73 4.05,3.4 4.06,4.14 4.06,3.58 4.06,3.29 4.02,3.83 4.05,3.75 4.06,3.46 4.06,2.82 4.06,3.65 4.05,2.9 4.02,2.82 4.06,3.13 4.06,4 4.05,3.46 4.06,3.02 4.06,3.67 4.02,3.6 4.06,3.22 4.05,2.84 4.06,2 4.06,2.75 4.05,2.58 4.02,3.07 4.06,2.24 4.06,2.16 4.06,2.25 4.05,2.66 4.06,2.43 4.02,1.89 4.06,1.89 4.06,1.43 4.05,1.4 4.06,2.08 4.06,2.3 4.02,2.14 4.05,1.96 4.06,1.59 4.06,1.33 3.08,0.64 5,0.27"
       style="fill:none;stroke:#000000;stroke-width:4.0999999;stroke-linecap:butt;stroke-linejoin:round;stroke-miterlimit:1;stroke-opacity:1;stroke-dasharray:none"
       id="path634" /></g></svg>